<svg width="160" height="160" viewBox="0 0 160 160" fill="none" xmlns="http://www.w3.org/2000/svg">
<path d="M80.0005 24.1241C87.3381 24.1241 94.6039 25.5693 101.383 28.3773C108.162 31.1854 114.322 35.3011 119.51 40.4896C124.699 45.6781 128.815 51.8378 131.623 58.6169C134.431 65.396 135.876 72.6619 135.876 79.9995C135.876 87.3372 134.431 94.603 131.623 101.382C128.815 108.161 124.699 114.321 119.51 119.509C114.322 124.698 108.162 128.814 101.383 131.622C94.6039 134.43 87.3381 135.875 80.0005 135.875C72.6628 135.875 65.397 134.43 58.6178 131.622C51.8387 128.814 45.6791 124.698 40.4905 119.509C35.302 114.321 31.1863 108.161 28.3783 101.382C25.5703 94.603 24.125 87.3372 24.125 79.9995C24.125 72.6619 25.5703 65.396 28.3783 58.6169C31.1863 51.8378 35.302 45.6781 40.4905 40.4896C45.6791 35.3011 51.8387 31.1853 58.6178 28.3773C65.397 25.5693 72.6628 24.1241 80.0005 24.1241L80.0005 24.1241Z" stroke="#C8CAC2" stroke-width="8"/>
<path d="M100.112 27.8695C106.958 30.5107 113.217 34.4744 118.531 39.5343C123.845 44.5942 128.11 50.6512 131.083 57.3596C134.056 64.0679 135.679 71.2962 135.859 78.6316C136.038 85.9671 134.771 93.2661 132.13 100.112C129.489 106.958 125.525 113.216 120.465 118.53C115.406 123.844 109.349 128.11 102.64 131.083C95.9319 134.056 88.7036 135.679 81.3681 135.859C74.0327 136.038 66.7336 134.771 59.8878 132.13" stroke="#AEDB01" stroke-width="8" stroke-linecap="round"/>
</svg>
