<svg width="15" height="20" viewBox="0 0 15 20" fill="none" xmlns="http://www.w3.org/2000/svg">
<path d="M3.62461 8.36303C3.57086 8.05523 3.51759 7.74823 3.46477 7.44206C3.42255 7.19777 3.39114 6.94859 3.336 6.7057C3.30599 6.57308 3.34682 6.50817 3.4564 6.44047C4.52133 5.77722 5.73815 5.39724 6.99127 5.33662C10.1548 5.1747 13.1062 7.1018 14.2153 10.0629C15.8185 14.3377 13.2147 18.9921 8.73097 19.8666C4.78743 20.6344 0.90252 18.0212 0.142778 14.0784C-0.222261 12.1837 0.113814 10.414 1.12413 8.7689C1.17229 8.69038 1.22568 8.61535 1.30141 8.50158C1.34992 8.77344 1.39354 9.00761 1.43368 9.24247C1.54954 9.91671 1.65947 10.5917 1.78266 11.2666C1.83292 11.5458 1.73241 11.8058 1.70763 12.0748C1.5621 13.6617 1.97774 15.0831 3.01004 16.2951C4.2793 17.786 5.92058 18.4526 7.87072 18.2993C10.4557 18.0959 12.6019 16.0397 12.96 13.4635C13.3788 10.4576 11.385 7.65284 8.41269 7.10145C6.70057 6.78387 5.15177 7.18799 3.7813 8.26462C3.74641 8.29323 3.70976 8.32359 3.67277 8.35186C3.65727 8.35767 3.64108 8.36143 3.62461 8.36303Z" fill="#CBFE00"/>
<path d="M4.49311 14.653C4.36213 14.652 4.23264 14.6251 4.11205 14.574C3.99146 14.5228 3.88213 14.4485 3.7903 14.355C3.69848 14.2616 3.62597 14.151 3.57692 14.0296C3.52787 13.9081 3.50324 13.7782 3.50444 13.6472C3.51107 13.0888 3.96509 12.6554 4.5322 12.6617C4.79341 12.6677 5.04197 12.7754 5.22499 12.9619C5.40801 13.1483 5.51104 13.3989 5.51215 13.6601C5.5104 14.2192 5.06021 14.6568 4.49311 14.653Z" fill="#1CD6D1"/>
<path d="M7.94723 15.9371C7.94778 16.1355 7.88943 16.3296 7.77956 16.4948C7.66969 16.66 7.51326 16.7888 7.33009 16.865C7.14692 16.9412 6.94525 16.9613 6.75064 16.9228C6.55603 16.8842 6.37725 16.7888 6.23694 16.6485C6.09664 16.5083 6.00113 16.3295 5.96252 16.1349C5.92391 15.9403 5.94394 15.7387 6.02006 15.5555C6.09619 15.3723 6.22499 15.2158 6.39014 15.1059C6.55528 14.9959 6.74935 14.9375 6.94774 14.938C7.21231 14.9395 7.46563 15.0452 7.65274 15.2322C7.83986 15.4193 7.94567 15.6726 7.94723 15.9371Z" fill="#1CD6D1"/>
<path d="M11.7057 11.6354C11.7021 11.897 11.5954 12.1467 11.4089 12.3301C11.2224 12.5136 10.971 12.6161 10.7093 12.6153C10.5762 12.6171 10.4441 12.5922 10.3206 12.5423C10.1972 12.4924 10.085 12.4184 9.99045 12.3246C9.89594 12.2309 9.82105 12.1192 9.77017 11.9962C9.71929 11.8731 9.69343 11.7412 9.6941 11.6081C9.69478 11.4749 9.72197 11.3433 9.77409 11.2208C9.82621 11.0982 9.90221 10.9873 9.99767 10.8945C10.0931 10.8017 10.2061 10.7289 10.33 10.6802C10.454 10.6315 10.5863 10.608 10.7194 10.6111C11.2785 10.6153 11.7137 11.069 11.7057 11.6354Z" fill="#1CD6D1"/>
<path d="M7.62252 11.6393C7.7535 11.6392 7.88321 11.665 8.00421 11.7151C8.12521 11.7653 8.23512 11.8388 8.32762 11.9316C8.42013 12.0243 8.49341 12.1344 8.54327 12.2555C8.59313 12.3766 8.61859 12.5064 8.61817 12.6374C8.61817 12.9037 8.51239 13.1591 8.3241 13.3474C8.13581 13.5357 7.88043 13.6414 7.61414 13.6414C7.34786 13.6414 7.09248 13.5357 6.90418 13.3474C6.71589 13.1591 6.61011 12.9037 6.61011 12.6374C6.60977 12.505 6.63583 12.3739 6.68676 12.2517C6.7377 12.1295 6.81249 12.0187 6.90676 11.9258C7.00103 11.8328 7.11288 11.7596 7.23578 11.7105C7.35868 11.6613 7.49016 11.6371 7.62252 11.6393Z" fill="#1CD6D1"/>
<path d="M8.27669 10.3299C7.73437 10.3299 7.28348 9.88704 7.2772 9.35274C7.27199 9.15311 7.32647 8.95646 7.43368 8.78797C7.54088 8.61948 7.69593 8.48681 7.87897 8.40696C8.06201 8.3271 8.26472 8.30368 8.46115 8.3397C8.65758 8.37572 8.83879 8.46954 8.98159 8.60914C9.12439 8.74875 9.22228 8.92779 9.26272 9.12336C9.30317 9.31893 9.28434 9.52211 9.20864 9.70691C9.13294 9.89171 9.00381 10.0497 8.83778 10.1607C8.67176 10.2717 8.47639 10.3306 8.27669 10.3299Z" fill="#1CD6D1"/>
<path d="M10.0608 15.7732C9.92992 15.7739 9.80018 15.7485 9.67924 15.6984C9.55831 15.6482 9.44863 15.5744 9.35667 15.4812C9.2647 15.3881 9.1923 15.2774 9.14374 15.1558C9.09518 15.0343 9.07144 14.9042 9.07391 14.7733C9.0765 14.5088 9.18406 14.2561 9.37295 14.0709C9.56183 13.8857 9.81655 13.7831 10.0811 13.7857C10.3456 13.7883 10.5983 13.8959 10.7835 14.0847C10.9687 14.2736 11.0713 14.5283 11.0687 14.7929C11.0656 15.3425 10.621 15.7732 10.0608 15.7732Z" fill="#1CD6D1"/>
<path d="M5.14372 11.4832C5.01284 11.4847 4.88299 11.46 4.76182 11.4105C4.64066 11.361 4.53065 11.2877 4.43829 11.1949C4.34593 11.1022 4.2731 10.9918 4.22409 10.8705C4.17508 10.7491 4.15089 10.6191 4.15295 10.4883C4.15208 10.3574 4.17711 10.2276 4.22659 10.1064C4.27607 9.98515 4.34903 9.87493 4.44128 9.78204C4.53353 9.68914 4.64323 9.61541 4.76409 9.56508C4.88494 9.51475 5.01455 9.48881 5.14547 9.48877C5.27782 9.4889 5.40884 9.5152 5.53099 9.56616C5.65314 9.61711 5.76401 9.69172 5.85722 9.78568C5.95044 9.87964 6.02416 9.9911 6.07413 10.1137C6.12411 10.2362 6.14937 10.3674 6.14845 10.4998C6.14759 10.6305 6.12086 10.7597 6.0698 10.88C6.01874 11.0004 5.94436 11.1094 5.85095 11.2008C5.75755 11.2922 5.64696 11.3643 5.52558 11.4127C5.40419 11.4612 5.27441 11.4852 5.14372 11.4832Z" fill="#1CD6D1"/>
<rect x="0.132324" y="0.321289" width="1.89345" height="12.3559" rx="0.946725" transform="rotate(-9.76137 0.132324 0.321289)" fill="#CBFE00"/>
</svg>
