<svg width="419" height="570" viewBox="0 0 419 570" fill="none" xmlns="http://www.w3.org/2000/svg">
<mask id="mask0_1_3198" style="mask-type:alpha" maskUnits="userSpaceOnUse" x="0" y="0" width="419" height="570">
<rect width="419" height="570" fill="#C4C4C4"/>
</mask>
<g mask="url(#mask0_1_3198)">
<path d="M29.7296 -121.914C46.6119 -117.595 50.3838 -104.503 52.8312 -89.4734C61.6515 -35.3713 71.0668 18.6252 80.2998 72.6697C88.7649 122.462 97.2077 172.262 105.628 222.067C111.156 254.597 116.717 287.111 122.309 319.608C124.833 334.139 115.946 347.384 101.52 350.177C98.212 350.79 94.8148 350.739 91.5267 350.026C88.2385 349.313 85.1252 347.952 82.3683 346.024C79.6114 344.095 77.266 341.637 75.4691 338.792C73.6721 335.948 72.4595 332.774 71.9018 329.456C66.5943 300.135 61.7091 270.737 56.6991 241.359C49.1745 197.209 41.6723 153.06 34.1925 108.911C26.6295 64.4541 19.0602 19.9848 11.4844 -24.4972C7.95244 -45.2378 4.33412 -65.9591 0.926941 -86.7189C-2.32667 -106.519 2.65452 -115.042 21.1397 -122L29.7296 -121.914Z" fill="white" fill-opacity="0.02"/>
<path d="M114.794 239.785C113.316 231.32 111.851 222.877 110.398 214.456C109.237 207.738 108.373 200.885 106.857 194.205C106.031 190.558 107.154 188.773 110.168 186.911C139.455 168.671 172.92 158.221 207.383 156.554C294.386 152.1 375.553 205.099 406.055 286.535C450.146 404.097 378.538 532.101 255.227 556.153C146.773 577.268 39.932 505.4 19.0378 396.966C8.99867 344.86 18.2413 296.19 46.0266 250.947C47.3511 248.787 48.8195 246.724 50.9022 243.595C52.2362 251.072 53.436 257.512 54.5397 263.971C57.7261 282.514 60.7494 301.075 64.1374 319.637C65.5195 327.316 62.7553 334.466 62.0739 341.866C58.0716 385.506 69.5024 424.598 97.8924 457.93C132.799 498.932 177.937 517.263 231.569 513.05C302.659 507.454 361.685 450.905 371.532 380.055C383.049 297.39 328.218 220.253 246.474 205.089C199.388 196.355 156.793 207.469 119.103 237.078C118.144 237.865 117.136 238.7 116.118 239.478C115.692 239.637 115.247 239.741 114.794 239.785V239.785Z" fill="white" fill-opacity="0.02"/>
</g>
</svg>
