<svg width="64" height="81" viewBox="0 0 64 81" fill="none" xmlns="http://www.w3.org/2000/svg">
<path fill-rule="evenodd" clip-rule="evenodd" d="M63.8743 68.8085C63.5105 66.2696 63.178 63.9537 62.8376 61.6339C62.1725 57.1016 61.5054 52.5696 60.8384 48.0375C58.8257 34.3637 56.8129 20.6893 54.8532 7.00616C54.6263 5.41396 54.1412 5.324 52.7993 5.69956C49.9687 6.48547 47.1381 7.24729 44.3096 8.00853C40.4926 9.03581 36.6794 10.062 32.8753 11.1451C31.4044 11.5637 30.8841 11.3094 30.5477 9.82673C30.1377 8.02576 29.6502 6.24345 29.1626 4.46067C28.8453 3.30033 28.5279 2.1398 28.2318 0.973784C28.0127 0.0935761 27.7232 -0.180247 26.7882 0.113155C25.0005 0.704595 23.1795 1.19051 21.3348 1.56842C20.1221 1.80314 20.1612 2.35084 20.4233 3.29364C20.7264 4.37749 21.0061 5.46879 21.2857 6.55988C21.7639 8.42636 22.2421 10.2922 22.8371 12.1192C23.3065 13.5588 22.7393 13.8562 21.5891 14.1574C18.6031 14.9426 15.6193 15.7393 12.6354 16.5359L12.6351 16.536L12.6333 16.5365L12.6326 16.5367L12.6299 16.5374L12.6294 16.5375C8.83683 17.5501 5.04413 18.5627 1.24652 19.552C0.186362 19.8298 -0.318297 20.0254 0.21374 21.3164C7.9674 40.7123 15.6793 60.1238 23.3495 79.551C23.7407 80.5172 24.085 80.619 25.0435 80.3608C37.5828 76.9703 50.1313 73.6086 62.689 70.2755C63.6944 70.0095 64.2694 69.7083 63.8743 68.8085ZM34.4089 19.0318C38.4891 17.9872 42.5655 16.9271 46.6144 15.7731C47.7215 15.4562 47.9562 15.8474 48.0853 16.7902C48.4661 19.5521 48.873 22.3126 49.3059 25.0719C49.4389 25.8935 49.1651 26.359 48.457 26.7932C45.1001 28.8577 41.2878 30.0667 37.3546 30.3141C36.4353 30.5957 35.9189 30.0363 35.6451 28.8901C34.9957 26.1829 34.315 23.4797 33.5091 20.8156C33.1922 19.7555 33.3292 19.3213 34.4089 19.0318ZM13.6555 33.1151C12.7948 30.8109 11.9029 28.5184 10.9562 26.2455C10.6745 25.5648 10.8388 25.3458 11.4922 25.1736C14.0674 24.49 16.6539 23.7952 19.2415 23.1001L19.2421 23.0999L19.2469 23.0986C20.9814 22.6327 22.7163 22.1666 24.4488 21.7037C24.9065 21.5824 25.3329 21.5159 25.5012 22.1692C26.1271 24.5517 26.7804 26.9263 27.4572 29.3674C27.5494 30.0258 27.0624 30.047 26.6447 30.0652C26.5661 30.0686 26.4899 30.0719 26.4205 30.0793C22.4092 30.4944 18.5179 31.6905 14.966 33.6002C14.2658 33.9679 13.9372 33.8897 13.6555 33.1347V33.1151ZM53.2297 64.4114C45.4917 66.3987 37.7745 68.4603 30.0782 70.5963C28.8812 70.9288 28.5447 70.6198 28.1418 69.5831C24.6835 60.7836 21.1862 51.9841 17.6497 43.1847C17.1177 41.8741 17.4932 41.3812 18.6081 40.8101C22.346 38.862 26.5226 37.9094 30.7355 38.0443C34.7453 38.5998 39.6119 38.7132 44.3767 37.2618C46.1751 36.7097 47.9409 36.0567 49.6658 35.3058C50.6517 34.8833 50.816 35.1337 50.9529 36.0882C52.1943 44.773 53.4748 53.4538 54.7945 62.1307C54.9745 63.5625 54.6067 64.0867 53.2492 64.4427L53.2297 64.4114ZM50.1623 59.0246C50.1602 59.5593 50.0522 60.0883 49.8443 60.5809C49.6363 61.0735 49.3327 61.5199 48.951 61.8943C48.5693 62.2687 48.1171 62.5637 47.6206 62.7621C47.1241 62.9605 46.5931 63.0584 46.0585 63.0501C45.017 63.0159 44.0289 62.5811 43.3001 61.8363C42.5713 61.0914 42.158 60.0941 42.1465 59.052C42.1298 58.5182 42.22 57.9863 42.4119 57.4878C42.6037 56.9893 42.8934 56.5342 43.2637 56.1493C43.634 55.7644 44.0776 55.4574 44.5683 55.2464C45.059 55.0355 45.587 54.9248 46.1211 54.9209C46.6567 54.9224 47.1866 55.0301 47.6803 55.2376C48.174 55.4451 48.6217 55.7484 48.9975 56.13C49.3732 56.5116 49.6696 56.9639 49.8696 57.4608C50.0695 57.9576 50.169 58.4891 50.1623 59.0246ZM39.7438 55.2748C39.9726 54.7884 40.0994 54.2602 40.1163 53.7228C40.1828 52.6716 39.8297 51.637 39.1345 50.8457C38.4393 50.0545 37.4587 49.5712 36.4077 49.5018C35.8728 49.4513 35.3332 49.5108 34.8222 49.6768C34.3112 49.8428 33.8396 50.1116 33.4364 50.4668C33.0333 50.8219 32.7071 51.2558 32.478 51.7418C32.2489 52.2278 32.1218 52.7555 32.1044 53.2925C32.041 54.3434 32.3951 55.3768 33.0896 56.168C33.7841 56.9592 34.7628 57.4442 35.813 57.5176C36.3482 57.568 36.8881 57.5083 37.3994 57.3421C37.9106 57.176 38.3824 56.9068 38.7856 56.5512C39.1888 56.1956 39.5149 55.7613 39.7438 55.2748ZM29.6829 47.7346C29.6661 48.2719 29.5393 48.8001 29.3105 49.2865C29.0816 49.773 28.7555 50.2074 28.3523 50.563C27.9491 50.9185 27.4773 51.1877 26.966 51.3539C26.4548 51.5201 25.9149 51.5798 25.3797 51.5293C24.3299 51.4549 23.3517 50.9696 22.6574 50.1787C21.9631 49.3877 21.6087 48.3549 21.6711 47.3043C21.6885 46.7673 21.8156 46.2395 22.0447 45.7536C22.2738 45.2676 22.6 44.8337 23.0031 44.4785C23.4063 44.1234 23.8779 43.8545 24.3889 43.6886C24.8999 43.5226 25.4394 43.463 25.9743 43.5135C27.0253 43.5829 28.0059 44.0662 28.7012 44.8575C29.3964 45.6487 29.7494 46.6834 29.6829 47.7346ZM40.5729 45.2674C40.8017 44.781 40.9285 44.2528 40.9454 43.7155C41.0108 42.6655 40.6578 41.6324 39.9635 40.8421C39.2693 40.0518 38.2903 39.5686 37.2407 39.4983C36.7054 39.4443 36.1648 39.5013 35.6525 39.6657C35.1403 39.8301 34.6675 40.0983 34.2636 40.4537C33.8598 40.8091 33.5336 41.244 33.3054 41.7312C33.0772 42.2184 32.9519 42.7474 32.9374 43.2851C32.8719 44.3359 33.2247 45.3698 33.9187 46.1614C34.6128 46.9529 35.5918 47.4378 36.6421 47.5102C37.1773 47.5607 37.7172 47.501 38.2285 47.3348C38.7397 47.1686 39.2115 46.8994 39.6147 46.5438C40.0179 46.1882 40.344 45.7539 40.5729 45.2674ZM50.7303 47.4215C50.7134 47.9588 50.5866 48.487 50.3578 48.9734C50.1289 49.4599 49.8028 49.8943 49.3996 50.2498C48.9964 50.6054 48.5246 50.8746 48.0134 51.0408C47.5021 51.207 46.9622 51.2667 46.427 51.2162C45.3764 51.1438 44.397 50.6591 43.7024 49.8676C43.0077 49.0762 42.654 48.0423 42.7184 46.9911C42.7329 46.4534 42.8582 45.9244 43.0864 45.4372C43.3146 44.9501 43.6408 44.5152 44.0446 44.1598C44.4485 43.8044 44.9213 43.5361 45.4335 43.3717C45.9458 43.2073 46.4864 43.1503 47.0217 43.2043C48.0723 43.2727 49.0529 43.7551 49.7482 44.5458C50.4436 45.3364 50.7967 46.3707 50.7303 47.4215ZM37.3411 66.522C37.5701 66.0357 37.6972 65.5076 37.7147 64.9703C37.7801 63.9204 37.4271 62.8873 36.7328 62.097C36.0386 61.3067 35.0596 60.8235 34.01 60.7532C33.4747 60.6992 32.9341 60.7561 32.4218 60.9205C31.9096 61.0849 31.4368 61.3532 31.0329 61.7086C30.6291 62.064 30.3029 62.4989 30.0747 62.986C29.8465 63.4732 29.7212 64.0022 29.7067 64.54C29.6422 65.5909 29.9953 66.6247 30.689 67.4167C31.3828 68.2086 32.3612 68.6946 33.4114 68.7689C33.9467 68.8183 34.4865 68.7576 34.9975 68.5907C35.5085 68.4239 35.98 68.1543 36.383 67.7985C36.786 67.4428 37.1121 67.0084 37.3411 66.522Z" fill="url(#paint0_linear_692_3285)"/>
<defs>
<linearGradient id="paint0_linear_692_3285" x1="7.11112" y1="4.47134" x2="50.4422" y2="2.76112" gradientUnits="userSpaceOnUse">
<stop stop-color="#CBFE00"/>
<stop offset="1" stop-color="#1CD6D1"/>
</linearGradient>
</defs>
</svg>
