<svg width="1600" height="1000" viewBox="0 0 1600 1000" fill="none" xmlns="http://www.w3.org/2000/svg">
<g opacity="0.06" clip-path="url(#clip0_1843_7726)">
<path d="M225.775 672.024H1374.22L1759.87 841.976H-159.867L225.775 672.024Z" fill="white" fill-opacity="0.02" stroke="#BAE21A" stroke-miterlimit="10"/>
<path d="M-104.636 817.636H1704.64" stroke="#BAE21A" stroke-miterlimit="10"/>
<path d="M-55.4154 795.944H1655.41" stroke="#BAE21A" stroke-miterlimit="10"/>
<path d="M-11.274 776.491H1611.27" stroke="#BAE21A" stroke-miterlimit="10"/>
<path d="M28.5358 758.947H1571.46" stroke="#BAE21A" stroke-miterlimit="10"/>
<path d="M64.6205 743.045H1535.38" stroke="#BAE21A" stroke-miterlimit="10"/>
<path d="M97.4806 728.563H1502.52" stroke="#BAE21A" stroke-miterlimit="10"/>
<path d="M127.529 715.321H1472.47" stroke="#BAE21A" stroke-miterlimit="10"/>
<path d="M155.113 703.165H1444.89" stroke="#BAE21A" stroke-miterlimit="10"/>
<path d="M180.523 691.966H1419.48" stroke="#BAE21A" stroke-miterlimit="10"/>
<path d="M204.007 681.617H1395.99" stroke="#BAE21A" stroke-miterlimit="10"/>
<path d="M1269.82 672.024L1585.34 841.976" stroke="#BAE21A" stroke-miterlimit="10"/>
<path d="M1165.42 672.024L1410.82 841.976" stroke="#BAE21A" stroke-miterlimit="10"/>
<path d="M1061.01 672.024L1236.3 841.976" stroke="#BAE21A" stroke-miterlimit="10"/>
<path d="M956.607 672.024L1061.78 841.976" stroke="#BAE21A" stroke-miterlimit="10"/>
<path d="M852.202 672.024L887.26 841.976" stroke="#BAE21A" stroke-miterlimit="10"/>
<path d="M747.797 672.024L712.739 841.976" stroke="#BAE21A" stroke-miterlimit="10"/>
<path d="M643.393 672.024L538.218 841.976" stroke="#BAE21A" stroke-miterlimit="10"/>
<path d="M538.989 672.024L363.696 841.976" stroke="#BAE21A" stroke-miterlimit="10"/>
<path d="M434.585 672.024L189.175 841.976" stroke="#BAE21A" stroke-miterlimit="10"/>
<path d="M330.179 672.024L14.6541 841.976" stroke="#BAE21A" stroke-miterlimit="10"/>
</g>
<mask id="mask0_1843_7726" style="mask-type:alpha" maskUnits="userSpaceOnUse" x="188" y="0" width="419" height="570">
<rect x="188" width="419" height="570" fill="#C4C4C4"/>
</mask>
<g mask="url(#mask0_1843_7726)">
<path d="M217.73 -121.914C234.612 -117.595 238.384 -104.503 240.831 -89.4734C249.651 -35.3713 259.067 18.6252 268.3 72.6697C276.765 122.462 285.208 172.262 293.628 222.067C299.156 254.597 304.717 287.111 310.309 319.608C312.833 334.139 303.946 347.384 289.52 350.177C286.212 350.79 282.815 350.739 279.527 350.026C276.238 349.313 273.125 347.952 270.368 346.024C267.611 344.095 265.266 341.637 263.469 338.792C261.672 335.948 260.459 332.774 259.902 329.456C254.594 300.135 249.709 270.737 244.699 241.359C237.175 197.209 229.672 153.06 222.192 108.911C214.63 64.4541 207.06 19.9848 199.484 -24.4972C195.952 -45.2378 192.334 -65.9591 188.927 -86.7189C185.673 -106.519 190.655 -115.042 209.14 -122L217.73 -121.914Z" fill="white" fill-opacity="0.02"/>
<path d="M302.794 239.785C301.316 231.32 299.851 222.877 298.398 214.457C297.237 207.738 296.373 200.885 294.857 194.205C294.031 190.558 295.154 188.773 298.168 186.911C327.455 168.671 360.92 158.221 395.383 156.554C482.386 152.1 563.553 205.099 594.055 286.535C638.147 404.097 566.538 532.101 443.227 556.153C334.773 577.268 227.932 505.401 207.038 396.966C196.999 344.86 206.241 296.19 234.027 250.947C235.351 248.787 236.82 246.724 238.902 243.595C240.236 251.072 241.436 257.512 242.54 263.971C245.726 282.514 248.749 301.076 252.137 319.637C253.52 327.316 250.755 334.466 250.074 341.866C246.072 385.506 257.502 424.598 285.892 457.93C320.799 498.932 365.937 517.263 419.569 513.05C490.659 507.454 549.685 450.905 559.532 380.055C571.049 297.39 516.218 220.254 434.474 205.089C387.388 196.355 344.793 207.469 307.103 237.078C306.144 237.865 305.136 238.7 304.118 239.478C303.692 239.638 303.247 239.741 302.794 239.785Z" fill="white" fill-opacity="0.02"/>
</g>
<path d="M980.143 611.961C974.473 617.46 914.235 502.622 799.558 508.124C684.882 513.626 715.543 592.351 642.898 616.145C570.253 639.939 521.581 570.663 455.567 592.591C389.553 614.519 365.773 699.821 301.095 714.589C236.418 729.357 203.816 648.607 132.649 672.772C61.482 696.937 86.5686 757.565 1.00192 784.236C-84.5648 810.907 -124.931 740.339 -209.15 786.132C-293.368 831.926 -305.276 997.4 -305.276 997.4L-306.55 997.574" stroke="url(#paint0_linear_1843_7726)" stroke-width="4" stroke-miterlimit="10"/>
<defs>
<linearGradient id="paint0_linear_1843_7726" x1="-203.383" y1="662.912" x2="632.346" y2="377.656" gradientUnits="userSpaceOnUse">
<stop stop-color="#CBFE00"/>
<stop offset="1" stop-color="#1CD6D1"/>
</linearGradient>
<clipPath id="clip0_1843_7726">
<rect width="1920" height="170" fill="white" transform="translate(-160 672)"/>
</clipPath>
</defs>
</svg>
