<svg width="1600" height="170" viewBox="0 0 1600 170" fill="none" xmlns="http://www.w3.org/2000/svg">
<g opacity="0.06" clip-path="url(#clip0_1_3186)">
<path d="M296.893 0.0234375H1392.11L1759.87 169.976H-70.873L296.893 0.0234375Z" fill="white" fill-opacity="0.02" stroke="#BAE21A" stroke-miterlimit="10"/>
<path d="M-18.2021 145.636H1707.2" stroke="#BAE21A" stroke-miterlimit="10"/>
<path d="M28.7363 123.944H1660.26" stroke="#BAE21A" stroke-miterlimit="10"/>
<path d="M70.832 104.491H1618.17" stroke="#BAE21A" stroke-miterlimit="10"/>
<path d="M108.796 86.9473H1580.2" stroke="#BAE21A" stroke-miterlimit="10"/>
<path d="M143.208 71.0449H1545.79" stroke="#BAE21A" stroke-miterlimit="10"/>
<path d="M174.545 56.5632H1514.45" stroke="#BAE21A" stroke-miterlimit="10"/>
<path d="M203.201 43.3206H1485.8" stroke="#BAE21A" stroke-miterlimit="10"/>
<path d="M229.507 31.1646H1459.49" stroke="#BAE21A" stroke-miterlimit="10"/>
<path d="M253.738 19.9663H1435.26" stroke="#BAE21A" stroke-miterlimit="10"/>
<path d="M276.134 9.61694H1412.87" stroke="#BAE21A" stroke-miterlimit="10"/>
<path d="M1292.54 0.0234375L1593.44 169.976" stroke="#BAE21A" stroke-miterlimit="10"/>
<path d="M1192.98 0.0234375L1427.01 169.976" stroke="#BAE21A" stroke-miterlimit="10"/>
<path d="M1093.41 0.0234375L1260.58 169.976" stroke="#BAE21A" stroke-miterlimit="10"/>
<path d="M993.848 0.0234375L1094.15 169.976" stroke="#BAE21A" stroke-miterlimit="10"/>
<path d="M894.282 0.0234375L927.716 169.976" stroke="#BAE21A" stroke-miterlimit="10"/>
<path d="M794.718 0.0234375L761.284 169.976" stroke="#BAE21A" stroke-miterlimit="10"/>
<path d="M695.153 0.0234375L594.853 169.976" stroke="#BAE21A" stroke-miterlimit="10"/>
<path d="M595.588 0.0234375L428.421 169.976" stroke="#BAE21A" stroke-miterlimit="10"/>
<path d="M496.023 0.0234375L261.989 169.976" stroke="#BAE21A" stroke-miterlimit="10"/>
<path d="M396.458 0.0234375L95.5586 169.976" stroke="#BAE21A" stroke-miterlimit="10"/>
</g>
<defs>
<clipPath id="clip0_1_3186">
<rect width="1831" height="170" fill="white" transform="translate(-71)"/>
</clipPath>
</defs>
</svg>
