<?xml version="1.0" encoding="utf-8"?>
<!-- Generator: Adobe Illustrator 27.0.1, SVG Export Plug-In . SVG Version: 6.00 Build 0)  -->
<svg version="1.1" id="Layer_1" xmlns="http://www.w3.org/2000/svg" xmlns:xlink="http://www.w3.org/1999/xlink" x="0px" y="0px"
     viewBox="0 0 1835 704" style="enable-background:new 0 0 1835 704;" xml:space="preserve">
<style type="text/css">
	.st0{fill:#9EFF00;}
	.st1{fill:#00D9CD;}
</style>
  <path class="st0" d="M671.5,695.7c-113.5,0-205.9-92.4-205.9-205.9S558,284,671.5,284s205.9,92.4,205.9,205.9S785,695.7,671.5,695.7
	z M671.5,330.8c-87.7,0-159,71.3-159,159c0,87.7,71.3,159,159,159c87.7,0,159-71.3,159-159C830.5,402.2,759.2,330.8,671.5,330.8z"/>
  <g>
	<g>
		<g>
			<path class="st0" d="M98.9,482.1c-12.8,0-23.7-9.2-25.8-21.8L0,30.6c-1.2-6.9,0.4-13.9,4.5-19.6c4.1-5.7,10.1-9.5,17-10.7
				C35.7-2,49.3,7.6,51.7,21.8l73.1,429.6c1.2,6.9-0.4,13.9-4.5,19.6c-4.1,5.7-10.1,9.5-17,10.7C101.9,482,100.4,482.1,98.9,482.1z"
      />
		</g>
	</g>
</g>
  <path class="st0" d="M221.4,284c-41.8,0-80.6,12.5-113.1,34l8.8,52c27.9-24.3,64.4-39.1,104.3-39.1c87.7,0,159,71.3,159,159
	c0,87.7-71.3,159-159,159c-87.7,0-159-71.3-159-159c0-11.7,1.3-23.1,3.7-34L52,373c-23,33.2-36.5,73.5-36.5,116.8
	c0,113.5,92.4,205.9,205.9,205.9s205.9-92.4,205.9-205.9S334.9,284,221.4,284z"/>
  <g>
	<g>
		<circle class="st1" cx="210.2" cy="581.9" r="28"/>
	</g>
    <g>
		<circle class="st1" cx="297.7" cy="549.3" r="28"/>
	</g>
    <g>
		<circle class="st1" cx="228.9" cy="489.2" r="28"/>
	</g>
    <g>
		<circle class="st1" cx="141.8" cy="517.8" r="28"/>
	</g>
    <g>
		<circle class="st1" cx="315.7" cy="460.5" r="28"/>
	</g>
    <g>
		<circle class="st1" cx="247.6" cy="396.4" r="28"/>
	</g>
    <g>
		<circle class="st1" cx="159.7" cy="429" r="28"/>
	</g>
</g>
  <g>
	<g>
		<g>
			<path class="st0" d="M999.5,482.1c-12.8,0-23.7-9.2-25.8-21.8L900.6,30.6c-1.2-6.9,0.4-13.9,4.5-19.6c4.1-5.7,10.1-9.5,17-10.7
				c14.3-2.4,27.8,7.2,30.3,21.5l73.1,429.6c1.2,6.9-0.4,13.9-4.5,19.6c-4.1,5.7-10.1,9.5-17,10.7
				C1002.5,482,1001,482.1,999.5,482.1z"/>
		</g>
	</g>
</g>
  <path class="st0" d="M1122,284c-41.8,0-80.6,12.5-113.1,34l8.8,52c27.9-24.3,64.4-39.1,104.3-39.1c87.7,0,159,71.3,159,159
	c0,87.7-71.3,159-159,159c-87.7,0-159-71.3-159-159c0-11.7,1.3-23.1,3.7-34L952.6,373c-23,33.2-36.5,73.5-36.5,116.8
	c0,113.5,92.4,205.9,205.9,205.9c113.5,0,205.9-92.4,205.9-205.9S1235.5,284,1122,284z"/>
  <g>
	<g>
		<circle class="st1" cx="1110.7" cy="581.9" r="28"/>
	</g>
    <g>
		<circle class="st1" cx="1198.3" cy="549.3" r="28"/>
	</g>
    <g>
		<circle class="st1" cx="1129.5" cy="489.2" r="28"/>
	</g>
    <g>
		<circle class="st1" cx="1042.4" cy="517.8" r="28"/>
	</g>
    <g>
		<circle class="st1" cx="1216.2" cy="460.5" r="28"/>
	</g>
    <g>
		<circle class="st1" cx="1148.2" cy="396.4" r="28"/>
	</g>
    <g>
		<circle class="st1" cx="1060.3" cy="429" r="28"/>
	</g>
</g>
  <g>
	<g>
		<g>
			<g>
				<path class="st0" d="M1694.6,497.1c12.8,0,23.7,9.2,25.8,21.8l26.2,154.4c1.2,6.9-0.4,13.9-4.5,19.6c-4.1,5.7-10.1,9.5-17,10.7
					c-14.3,2.4-27.8-7.2-30.3-21.5l-26.2-154.4c-1.2-6.9,0.4-13.9,4.5-19.6c4.1-5.7,10.1-9.5,17-10.7
					C1691.6,497.2,1693.1,497.1,1694.6,497.1z"/>
			</g>
		</g>
	</g>
    <path class="st0" d="M1572.1,695.3c41.8,0,80.6-12.5,113.1-34l-8.8-52c-27.9,24.3-64.4,39.1-104.3,39.1c-87.7,0-159-71.3-159-159
		c0-87.7,71.3-159,159-159c87.7,0,159,71.3,159,159c0,11.7-1.3,23.1-3.7,34l14.1,82.8c23-33.2,36.5-73.5,36.5-116.8
		c0-113.5-92.4-205.9-205.9-205.9c-113.5,0-205.9,92.4-205.9,205.9S1458.6,695.3,1572.1,695.3z"/>
</g>
  <g>
	<path class="st1" d="M1778.3,123.5c11.9-14.4,19.8-28.8,19.8-44c0-26.3-21.4-42.4-47.7-42.4c-24.7,0-44.9,15.6-48.6,42.4l-35.8-8.6
		c6.6-43.6,42.8-70.8,84.4-70.8c46.9,0,84.4,32.1,84.4,79.4c0,26.3-11.5,49.8-29.2,69.5c-35,40.3-35.4,42-72.8,86H1835v37h-165.8
		v-16.5L1778.3,123.5z"/>
</g>
  <g>
	<g>
		<path class="st0" d="M765.8-521.7c-61.5,0-111.6-50.1-111.6-111.6s50.1-111.6,111.6-111.6s111.6,50.1,111.6,111.6
			S827.4-521.7,765.8-521.7z M765.8-719.5c-47.5,0-86.2,38.7-86.2,86.2c0,47.5,38.7,86.2,86.2,86.2c47.5,0,86.2-38.7,86.2-86.2
			C852-680.8,813.4-719.5,765.8-719.5z"/>
    <g>
			<g>
				<g>
					<g>
						<path class="st0" d="M455.4-637.4c-7,0-12.8-5-14-11.8l-39.6-232.9c-0.6-3.7,0.2-7.5,2.4-10.6c2.2-3.1,5.5-5.2,9.2-5.8
							c7.7-1.3,15.1,3.9,16.4,11.6l39.6,232.9c0.6,3.7-0.2,7.5-2.4,10.6c-2.2,3.1-5.5,5.2-9.2,5.8
							C457.1-637.5,456.2-637.4,455.4-637.4z"/>
					</g>
				</g>
			</g>
      <path class="st0" d="M521.8-744.9c-22.6,0-43.7,6.8-61.3,18.4l4.8,28.2c15.1-13.2,34.9-21.2,56.5-21.2
				c47.5,0,86.2,38.7,86.2,86.2c0,47.5-38.7,86.2-86.2,86.2c-47.5,0-86.2-38.7-86.2-86.2c0-6.3,0.7-12.5,2-18.5l-7.6-44.9
				c-12.5,18-19.8,39.8-19.8,63.3c0,61.5,50.1,111.6,111.6,111.6s111.6-50.1,111.6-111.6S583.4-744.9,521.8-744.9z"/>
      <g>
				<g>
					<circle class="st1" cx="515.7" cy="-583.3" r="15.2"/>
				</g>
        <g>
					<circle class="st1" cx="563.2" cy="-601" r="15.2"/>
				</g>
        <g>
					<circle class="st1" cx="525.9" cy="-633.6" r="15.2"/>
				</g>
        <g>
					<circle class="st1" cx="478.7" cy="-618.1" r="15.2"/>
				</g>
        <g>
					<circle class="st1" cx="572.9" cy="-649.2" r="15.2"/>
				</g>
        <g>
					<circle class="st1" cx="536" cy="-683.9" r="15.2"/>
				</g>
        <g>
					<circle class="st1" cx="488.4" cy="-666.2" r="15.2"/>
				</g>
			</g>
		</g>
    <g>
			<g>
				<g>
					<g>
						<path class="st0" d="M943.7-637.4c-7,0-12.8-5-14-11.8L890-882.2c-0.6-3.7,0.2-7.5,2.4-10.6c2.2-3.1,5.5-5.2,9.2-5.8
							c7.7-1.3,15.1,3.9,16.4,11.6l39.6,232.9c0.6,3.7-0.2,7.5-2.4,10.6c-2.2,3.1-5.5,5.2-9.2,5.8
							C945.3-637.5,944.5-637.4,943.7-637.4z"/>
					</g>
				</g>
			</g>
      <path class="st0" d="M1010.1-744.9c-22.6,0-43.7,6.8-61.3,18.4l4.8,28.2c15.1-13.2,34.9-21.2,56.5-21.2
				c47.5,0,86.2,38.7,86.2,86.2c0,47.5-38.7,86.2-86.2,86.2c-47.5,0-86.2-38.7-86.2-86.2c0-6.3,0.7-12.5,2-18.5l-7.6-44.9
				c-12.5,18-19.8,39.8-19.8,63.3c0,61.5,50.1,111.6,111.6,111.6s111.6-50.1,111.6-111.6S1071.6-744.9,1010.1-744.9z"/>
      <g>
				<g>
					<circle class="st1" cx="1004" cy="-583.3" r="15.2"/>
				</g>
        <g>
					<circle class="st1" cx="1051.4" cy="-601" r="15.2"/>
				</g>
        <g>
					<circle class="st1" cx="1014.1" cy="-633.6" r="15.2"/>
				</g>
        <g>
					<circle class="st1" cx="966.9" cy="-618.1" r="15.2"/>
				</g>
        <g>
					<circle class="st1" cx="1061.1" cy="-649.2" r="15.2"/>
				</g>
        <g>
					<circle class="st1" cx="1024.2" cy="-683.9" r="15.2"/>
				</g>
        <g>
					<circle class="st1" cx="976.6" cy="-666.2" r="15.2"/>
				</g>
			</g>
		</g>
    <g>
			<g>
				<g>
					<g>
						<path class="st0" d="M1320.4-629.3c7,0,12.8,5,14,11.8l14.2,83.7c0.6,3.7-0.2,7.5-2.4,10.6c-2.2,3.1-5.5,5.2-9.2,5.8
							c-7.7,1.3-15.1-3.9-16.4-11.6l-14.2-83.7c-0.6-3.7,0.2-7.5,2.4-10.6c2.2-3.1,5.5-5.2,9.2-5.8
							C1318.8-629.3,1319.6-629.3,1320.4-629.3z"/>
					</g>
				</g>
			</g>
      <path class="st0" d="M1254-521.9c22.6,0,43.7-6.8,61.3-18.4l-4.8-28.2c-15.1,13.2-34.9,21.2-56.5,21.2
				c-47.5,0-86.2-38.7-86.2-86.2c0-47.5,38.7-86.2,86.2-86.2c47.5,0,86.2,38.7,86.2,86.2c0,6.3-0.7,12.5-2,18.5l7.6,44.9
				c12.5-18,19.8-39.8,19.8-63.3c0-61.5-50.1-111.6-111.6-111.6c-61.5,0-111.6,50.1-111.6,111.6S1192.5-521.9,1254-521.9z"/>
		</g>
	</g>
</g>
</svg>
