<?xml version="1.0" encoding="utf-8"?>
<!-- Generator: Adobe Illustrator 26.0.2, SVG Export Plug-In . SVG Version: 6.00 Build 0)  -->
<svg version="1.1" id="Layer_1" xmlns="http://www.w3.org/2000/svg" xmlns:xlink="http://www.w3.org/1999/xlink" x="0px" y="0px"
	 viewBox="0 0 179.2 66" style="enable-background:new 0 0 179.2 66;" xml:space="preserve">
<style type="text/css">
	.st0{fill:#FFFFFF;}
	.st1{fill:#1CD8D2;stroke:#000000;stroke-width:0.75;stroke-miterlimit:10;}
	.st2{fill:none;}
	.st3{fill:#CCFF00;}
	.st4{fill:#1CD8D2;}
	.st5{fill:#0099FF;}
	.st6{opacity:0.66;fill:#CCFF00;enable-background:new    ;}
	.st7{fill:#CCFF00;enable-background:new    ;}
	.st8{fill:#0099FF;stroke:#000000;stroke-width:0.5;stroke-miterlimit:10;}
	.st9{fill:#DA4C77;stroke:#000000;stroke-width:0.75;stroke-miterlimit:10;}
	.st10{fill:none;stroke:#000000;stroke-width:0.75;stroke-miterlimit:10;}
</style>
<ellipse class="st0" cx="105.4" cy="46.1" rx="14.7" ry="15"/>
<path class="st1" d="M101.3,26.8c-0.4-1-2.3-3.3-0.7-3.9c1.2-0.4,2,2.2,3.3,2.1c1.5,0-2.3-5.7,1.1-5.9c0.5,0,1.6,0,2,1.5
	c0.3,1.5-0.9,1.9-0.1,2.5c1.5,0.6,2.7-1.8,3.7-0.6c0.9,1.7-1.2,4.2-2,5.2"/>
<rect class="st2" width="167" height="66"/>
<path class="st3" d="M63,66c-10.5,0-19-8.8-19-19.5S52.5,27,63,27s19,8.8,19,19.5S73.5,66,63,66z M63,31.4
	c-8.1,0-14.7,6.8-14.7,15.1S54.9,61.6,63,61.6s14.7-6.8,14.7-15.1S71.1,31.4,63,31.4z"/>
<path class="st3" d="M9.3,45.4c-1.2,0-2.2-0.9-2.4-2.1L0,2.9c-0.1-0.7,0-1.3,0.4-1.8s1-0.9,1.6-1c1.3-0.2,2.6,0.7,2.8,2l6.9,40.4
	c0.1,0.7,0,1.3-0.4,1.8s-1,0.9-1.6,1C9.6,45.4,9.4,45.4,9.3,45.4z"/>
<path class="st3" d="M20.8,26.7c-3.9,0-7.6,1.2-10.6,3.2l0.8,4.9c2.6-2.3,6.1-3.7,9.8-3.7c8.2,0,14.9,6.7,14.9,15s-6.7,15-14.9,15
	s-14.9-6.7-14.9-15c0-1.1,0.1-2.2,0.3-3.2l-1.3-7.8c-2.1,3.2-3.4,6.9-3.4,11c0,10.7,8.7,19.4,19.3,19.4s19.3-8.7,19.3-19.4
	S31.5,26.7,20.8,26.7z"/>
<path class="st3" d="M93.9,45.4c-1.2,0-2.2-0.9-2.4-2.1L84.6,2.9c-0.1-0.7,0-1.3,0.4-1.8s1-0.9,1.6-1c1.3-0.2,2.6,0.7,2.8,2
	l6.8,40.4c0.1,0.7,0,1.3-0.4,1.8s-1,0.9-1.6,1C94.2,45.4,94,45.4,93.9,45.4z"/>
<path class="st3" d="M105.4,26.7c-3.9,0-7.6,1.2-10.6,3.2l0.8,4.9c2.6-2.3,6.1-3.7,9.8-3.7c8.2,0,14.9,6.7,14.9,15s-6.7,15-14.9,15
	s-14.9-6.7-14.9-15c0-1.1,0.1-2.2,0.3-3.2l-1.3-7.8c-2.1,3.2-3.4,6.9-3.4,11c0,10.7,8.7,19.4,19.3,19.4s19.3-8.7,19.3-19.4
	S116,26.7,105.4,26.7z"/>
<path class="st4" d="M19.5,57.2c1.5,0,2.6-1.2,2.6-2.7s-1.2-2.7-2.6-2.7s-2.6,1.2-2.6,2.7S18,57.2,19.5,57.2z"/>
<path class="st5" d="M26.8,54.5c1.5,0,2.6-1.2,2.6-2.7s-1.2-2.7-2.6-2.7s-2.6,1.2-2.6,2.7C24.1,53.3,25.3,54.5,26.8,54.5z"/>
<path class="st4" d="M20.5,49.2c1.5,0,2.6-1.2,2.6-2.7s-1.2-2.7-2.6-2.7s-2.6,1.2-2.6,2.7S19.1,49.2,20.5,49.2z"/>
<path class="st5" d="M12.1,51.9c1.5,0,2.6-1.2,2.6-2.7s-1.2-2.7-2.6-2.7s-2.6,1.2-2.6,2.7S10.7,51.9,12.1,51.9z"/>
<path class="st4" d="M29.4,45.7c1.5,0,2.6-1.2,2.6-2.7s-1.2-2.7-2.6-2.7s-2.6,1.2-2.6,2.7S28,45.7,29.4,45.7z"/>
<path class="st5" d="M24.1,40.1c1.5,0,2.6-1.2,2.6-2.7s-1.2-2.7-2.6-2.7c-1.5,0-2.6,1.2-2.6,2.7S22.7,40.1,24.1,40.1z"/>
<path class="st4" d="M14.8,42.8c1.5,0,2.6-1.2,2.6-2.7s-1.2-2.7-2.6-2.7s-2.6,1.2-2.6,2.7C12.1,41.6,13.3,42.8,14.8,42.8z"/>
<g>
	<path class="st4" d="M161.8,26.6v-2.4l2.5-2.3c4.9-4.5,7.2-7,7.2-9.8c0-1.9-1-3.5-3.7-3.5c-1.8,0-3.4,0.9-4.4,1.7l-1.2-2.8
		c1.5-1.2,3.8-2.1,6.4-2.1c4.6,0,6.8,2.9,6.8,6.3c0,3.6-2.6,6.6-6.2,10l-1.8,1.6v0.1h8.5v3.3h-14.1V26.6z"/>
</g>
<path class="st6" d="M164.3,46.5c1.2,0,1.6-1.2,1.8,0l3,16.6c0.1,0.7,0,1.3-0.4,1.8s-1,0.9-1.6,1c-1.3,0.2-2.6-0.7-2.8-2l-0.7-3.5
	c-0.1-0.7-0.8-2.4-2.3-1.3c-0.5,0.4,1.9-12.5,2.6-12.6C164,46.5,164.2,46.5,164.3,46.5z"/>
<path class="st7" d="M147.2,65.6c-10.5,0-19-8.8-19-19.5s8.5-19.5,19-19.5s19,8.8,19,19.5C166.2,56.9,157.6,65.6,147.2,65.6z
	 M147.2,31.1c-8.1,0-14.7,6.8-14.7,15.1s6.6,15.1,14.7,15.1s14.7-6.8,14.7-15.1S155.2,31.1,147.2,31.1z"/>
<path class="st8" d="M109.9,52.6c0.4,0.9,0.9,2.7,1.2,3.6c0.5-1.1,0.8-2.4,0.5-3.6c0-0.3-0.5-1.2-0.8-1.3"/>
<path class="st8" d="M98.5,52.1c0.5,0.9,1.1,3,1.3,4.1c1.1-0.3,1.7-1.5,1.6-2.5"/>
<path class="st9" d="M94.3,40.1c-0.5,0.7-0.5,3.8-0.1,4.4c0.5,1.1,4.4,1.9,5,1.6c0.8-0.3,1.5-1.1,1.7-1.9c0.4-1.2,0.4-2.4,0.4-3.6
	c0-1.3,0.3-2.5,1.6-3.2c0.7-0.4,1.6-0.7,2.4-0.7c1.2-0.1,3.3,2,3.4,2.3c0.4,2.4-0.4,4.8-2,6.5c-0.1,0.1-4.2,0.3-5-0.8
	c-0.5-0.8,0-6.1-1.7-7.2C98.9,36.8,94.5,39.7,94.3,40.1z"/>
<path class="st9" d="M109.9,44.6c0.1,0.1,3.3,0.8,4.4,0.5c0.9-0.3,1.9-0.5,2.3-1.5c0.3-0.5,0.3-1.1,0.3-1.6c0-1.3,0-2.8-0.9-3.7
	c-0.8-0.9-2-1.1-3.2-1.2c-0.9,0-1.9,0-2.5,0.4C108,39.2,108.8,42.8,109.9,44.6z"/>
<path class="st10" d="M97.7,51.4c1.2,0.9,2.7,1.6,4.1,2c1.7,0.5,3.4,0.8,5.3,0.7c0.8,0,1.6-0.1,2.1-0.7c0.5-0.3,2.1-2.5,2.5-3.2"/>
</svg>
