<svg width="105" height="40" viewBox="0 0 105 40" fill="none" xmlns="http://www.w3.org/2000/svg">
<path d="M101.174 28.6114C101.07 29.1824 101.03 29.7622 100.901 30.3304C100.588 31.723 100.023 33.0467 99.235 34.2365C99.2028 34.2855 99.1889 34.36 99.0859 34.3662C98.9713 33.7061 98.8538 33.0456 98.7414 32.3845C98.6023 31.5642 98.476 30.7422 98.3246 29.9242C98.2729 29.6459 98.3664 29.3933 98.4059 29.1328C99.1443 24.2162 95.7475 19.6317 90.7996 18.8777C86.0104 18.1475 81.476 21.3658 80.5778 26.1322C79.6418 31.1001 83.0047 35.9266 87.9687 36.7112C90.6366 37.132 93.0379 36.4831 95.1587 34.8091C95.2227 34.7585 95.3062 34.6678 95.3585 34.6811C95.4598 34.7073 95.4286 34.8331 95.4431 34.9199C95.5811 35.7212 95.7107 36.5243 95.8604 37.3239C95.8949 37.5082 95.8604 37.6022 95.6979 37.7035C93.4825 39.068 91.0829 39.6729 88.4851 39.4537C83.3019 39.0174 79.0074 35.2104 77.9807 30.1507C77.3998 27.2894 77.9087 24.3144 79.4075 21.8088C80.9063 19.3033 83.287 17.4479 86.0827 16.6066C92.7017 14.6032 99.6686 18.8031 100.956 25.5801C101.045 26.0504 101.102 26.5262 101.174 26.9998V28.6114Z" fill="#CBFE00"/>
<path d="M52.9844 0.00500659C53.9633 0.255431 54.182 1.0145 54.3239 1.88598C54.8353 5.02297 55.3812 8.15383 55.9166 11.2875C56.4074 14.1746 56.897 17.0621 57.3852 19.95C57.7057 21.8361 58.0281 23.7214 58.3524 25.6057C58.4988 26.4482 57.9834 27.2162 57.147 27.3781C56.9552 27.4137 56.7582 27.4107 56.5676 27.3694C56.3769 27.328 56.1964 27.2491 56.0365 27.1373C55.8767 27.0255 55.7407 26.8829 55.6365 26.718C55.5323 26.553 55.462 26.369 55.4297 26.1766C55.1219 24.4765 54.8387 22.772 54.5482 21.0685C54.1119 18.5086 53.6769 15.9487 53.2432 13.3888C52.8046 10.8111 52.3658 8.23267 51.9265 5.65348C51.7217 4.45088 51.5119 3.2494 51.3143 2.04569C51.1257 0.897634 51.4145 0.403462 52.4863 0L52.9844 0.00500659Z" fill="#CBFE00"/>
<path d="M1.7369 0C2.36908 0.180862 2.83153 0.542587 2.9612 1.21762C3.10533 1.98003 3.22498 2.74744 3.3552 3.51207C3.75068 5.8349 4.14636 8.15773 4.54221 10.4806C4.96033 12.9292 5.37882 15.3789 5.79767 17.8297C6.23564 20.3985 6.66693 22.9679 7.1099 25.535C7.26628 26.4399 6.75986 27.2251 5.89617 27.3764C5.07923 27.5195 4.32852 26.9708 4.17882 26.0998C3.65756 23.0684 3.13891 20.0357 2.62285 17.0016C2.14797 14.2236 1.67253 11.4459 1.19654 8.6686C0.804762 6.37359 0.414099 4.0784 0.0245498 1.78303C-0.112906 0.971094 0.336189 0.280476 1.13755 0.0484152C1.17098 0.0350839 1.20319 0.0188852 1.23382 0H1.7369Z" fill="#CBFE00"/>
<path d="M38.2132 16.1279C31.7512 16.1374 26.4973 21.4041 26.5067 27.8623C26.5162 34.2993 31.7829 39.5265 38.2489 39.5193C44.7148 39.5121 49.9354 34.2737 49.9303 27.8105C49.9265 21.3646 44.6636 16.1179 38.2132 16.1279ZM38.2132 36.8548C33.2342 36.8548 29.1763 32.7973 29.1779 27.8239C29.1796 22.8505 33.2515 18.7941 38.2238 18.7936C43.1961 18.793 47.2608 22.8449 47.263 27.8206C47.2644 29.0088 47.0312 30.1857 46.5766 31.2836C46.1221 32.3815 45.4552 33.3788 44.6143 34.2183C43.7734 35.0579 42.7749 35.7231 41.6763 36.1758C40.5776 36.6285 39.4004 36.8598 38.2121 36.8564L38.2132 36.8548Z" fill="#CBFE00"/>
<path d="M6.68696 21.0167C6.55285 20.2321 6.42652 19.4947 6.29741 18.7579C6.29741 18.7395 6.29408 18.7206 6.29129 18.7022C6.185 18.045 6.185 18.045 6.75319 17.7111C13.4239 13.7939 22.171 17.5002 23.9885 25.0146C25.5401 31.4299 21.6134 37.7662 15.1719 39.2426C8.78052 40.7073 2.31677 36.4763 1.11641 30.032C0.553785 27.0169 1.10027 24.206 2.71078 21.5983C2.78256 21.4814 2.8627 21.369 2.97734 21.197C3.06694 21.7023 3.1493 22.147 3.22498 22.5927C3.40139 23.6317 3.56779 24.6724 3.75421 25.7091C3.78705 25.8933 3.75421 26.0586 3.71915 26.2272C2.8026 30.9163 5.99746 35.6877 10.7043 36.6583C15.6466 37.6761 20.3574 34.6365 21.4615 29.7165C22.5411 24.9083 19.3262 19.9599 14.4863 18.9977C11.6732 18.4412 9.14391 19.0712 6.89343 20.8448C6.83889 20.8904 6.78324 20.9405 6.68696 21.0167Z" fill="#CBFE00"/>
<path d="M57.9166 20.9773C57.8309 20.4865 57.746 19.9969 57.6618 19.5087C57.5944 19.1192 57.5443 18.7218 57.4564 18.3345C57.4086 18.123 57.4737 18.0195 57.6484 17.9116C59.3466 16.8539 61.2869 16.248 63.2852 16.1513C68.3299 15.8931 73.0362 18.9661 74.8047 23.688C77.3613 30.5046 73.2092 37.9266 66.0593 39.3212C59.7709 40.5455 53.5759 36.3784 52.3644 30.0911C51.7824 27.0699 52.3183 24.2479 53.9293 21.6245C54.0061 21.4993 54.0913 21.3797 54.212 21.1982C54.2894 21.6318 54.3589 22.0052 54.4229 22.3797C54.6077 23.4548 54.783 24.5311 54.9794 25.6074C55.0596 26.0526 54.8993 26.4672 54.8598 26.8962C54.6277 29.4266 55.2905 31.6933 56.9366 33.626C58.9606 36.0034 61.5779 37.0663 64.6876 36.822C68.8096 36.4975 72.232 33.2186 72.803 29.1106C73.4708 24.3174 70.2915 19.8448 65.5518 18.9656C62.8216 18.4591 60.3519 19.1036 58.1665 20.8204C58.1109 20.866 58.0524 20.9144 57.9934 20.9595C57.9687 20.9688 57.9429 20.9748 57.9166 20.9773Z" fill="#CBFE00"/>
<path d="M99.412 38.5081C99.4113 38.8809 99.2713 39.2399 99.0195 39.5148C98.7678 39.7897 98.4224 39.9606 98.0511 39.994C97.6798 40.0273 97.3095 39.9208 97.0127 39.6952C96.7159 39.4696 96.5142 39.1413 96.447 38.7746C96.1242 36.9176 95.8126 35.0589 95.497 33.2007C95.3212 32.1623 95.1526 31.1228 94.97 30.0844C94.817 29.2123 95.3039 28.4321 96.1147 28.2746C96.9857 28.1077 97.7403 28.6146 97.8983 29.5162C98.2929 31.7728 98.6713 34.0327 99.0558 36.2915C99.1575 36.8926 99.2586 37.4938 99.3591 38.0952C99.382 38.2326 99.3931 38.3706 99.412 38.5081Z" fill="#CBFE00"/>
<path d="M17.9989 24.5634C18.4179 24.5735 18.8161 24.7479 19.1078 25.0488C19.3995 25.3497 19.5613 25.7532 19.5584 26.1723C19.5554 26.5914 19.388 26.9925 19.0922 27.2894C18.7963 27.5862 18.3957 27.755 17.9767 27.7593C17.0935 27.7538 16.3628 27.012 16.3806 26.1355C16.3915 25.714 16.567 25.3135 16.8694 25.0196C17.1719 24.7258 17.5773 24.5621 17.9989 24.5634Z" fill="#1CD6D1"/>
<path d="M13.5809 33.0756C13.579 33.5 13.4085 33.9064 13.107 34.2052C12.8055 34.504 12.3976 34.6707 11.9732 34.6688C11.5487 34.6669 11.1424 34.4964 10.8436 34.1949C10.5448 33.8934 10.378 33.4856 10.3799 33.0611C10.3799 32.1863 11.1312 31.4439 12.0015 31.4634C12.8786 31.4829 13.5887 32.208 13.5809 33.0756Z" fill="#1CD6D1"/>
<path d="M59.3023 31.007C59.0935 31.0054 58.887 30.9625 58.6947 30.881C58.5024 30.7995 58.328 30.6809 58.1816 30.5319C58.0352 30.383 57.9196 30.2066 57.8414 30.0129C57.7631 29.8193 57.7239 29.6121 57.7258 29.4032C57.7363 28.5128 58.4604 27.8216 59.3647 27.8317C59.7812 27.8412 60.1776 28.0129 60.4694 28.3103C60.7613 28.6077 60.9255 29.0072 60.9273 29.4238C60.9245 30.3153 60.2066 31.0132 59.3023 31.007Z" fill="#1CD6D1"/>
<path d="M64.81 33.0566C64.8109 33.373 64.7178 33.6825 64.5426 33.9459C64.3674 34.2093 64.118 34.4148 63.8259 34.5363C63.5338 34.6578 63.2122 34.6898 62.9019 34.6284C62.5916 34.5669 62.3065 34.4147 62.0827 34.191C61.859 33.9674 61.7067 33.6823 61.6451 33.372C61.5836 33.0617 61.6155 32.7401 61.7369 32.448C61.8583 32.1559 62.0637 31.9064 62.327 31.7311C62.5904 31.5558 62.8998 31.4626 63.2162 31.4634C63.6381 31.4657 64.042 31.6343 64.3404 31.9326C64.6388 32.2309 64.8075 32.6348 64.81 33.0566Z" fill="#1CD6D1"/>
<path d="M70.8024 26.1966C70.7967 26.6138 70.6266 27.0119 70.3291 27.3045C70.0317 27.5971 69.6308 27.7605 69.2136 27.7593C69.0013 27.762 68.7906 27.7224 68.5938 27.6428C68.3969 27.5633 68.218 27.4452 68.0672 27.2957C67.9165 27.1462 67.7971 26.9681 67.716 26.7719C67.6348 26.5757 67.5936 26.3654 67.5947 26.1531C67.5958 25.9408 67.6391 25.7308 67.7222 25.5354C67.8053 25.3401 67.9265 25.1632 68.0788 25.0152C68.231 24.8672 68.4111 24.7511 68.6088 24.6735C68.8064 24.5959 69.0175 24.5584 69.2297 24.5633C70.1212 24.57 70.8152 25.2934 70.8024 26.1966Z" fill="#1CD6D1"/>
<path d="M64.2919 26.2073C64.5008 26.2071 64.7076 26.2482 64.9006 26.3282C65.0935 26.4082 65.2688 26.5255 65.4163 26.6733C65.5638 26.8212 65.6806 26.9967 65.7602 27.1899C65.8397 27.383 65.8803 27.59 65.8796 27.7988C65.8796 28.2235 65.7109 28.6307 65.4107 28.931C65.1104 29.2312 64.7032 29.3999 64.2785 29.3999C63.8539 29.3999 63.4467 29.2312 63.1464 28.931C62.8462 28.6307 62.6775 28.2235 62.6775 27.7988C62.6769 27.5878 62.7185 27.3787 62.7997 27.1838C62.8809 26.989 63.0002 26.8123 63.1505 26.6641C63.3009 26.5159 63.4792 26.3992 63.6752 26.3207C63.8712 26.2423 64.0808 26.2037 64.2919 26.2073Z" fill="#1CD6D1"/>
<path d="M12.5235 22.5065C12.5296 21.6161 13.2258 20.9339 14.1218 20.9367C14.3327 20.9361 14.5416 20.9778 14.7361 21.0593C14.9306 21.1409 15.1067 21.2606 15.2541 21.4115C15.4015 21.5623 15.5172 21.7411 15.5943 21.9375C15.6713 22.1338 15.7082 22.3436 15.7028 22.5544C15.6933 23.4281 14.9794 24.1176 14.0856 24.1126C13.8771 24.1115 13.6709 24.0688 13.479 23.9872C13.2871 23.9055 13.1134 23.7865 12.968 23.637C12.8226 23.4875 12.7084 23.3105 12.6321 23.1164C12.5558 22.9224 12.5189 22.715 12.5235 22.5065Z" fill="#1CD6D1"/>
<path d="M65.3353 24.1126C64.4705 24.1126 63.7515 23.4064 63.7415 22.5544C63.7332 22.236 63.8201 21.9225 63.991 21.6538C64.162 21.3851 64.4092 21.1736 64.7011 21.0462C64.993 20.9189 65.3162 20.8815 65.6295 20.939C65.9427 20.9964 66.2317 21.146 66.4594 21.3686C66.6871 21.5912 66.8432 21.8768 66.9077 22.1886C66.9722 22.5005 66.9421 22.8245 66.8214 23.1191C66.7007 23.4138 66.4948 23.6658 66.2301 23.8428C65.9653 24.0197 65.6538 24.1137 65.3353 24.1126Z" fill="#1CD6D1"/>
<path d="M16.9644 32.794C16.7557 32.7972 16.5485 32.7589 16.3549 32.6811C16.1612 32.6034 15.985 32.4878 15.8365 32.3412C15.688 32.1946 15.5702 32.0198 15.49 31.8271C15.4098 31.6345 15.3689 31.4278 15.3695 31.2191C15.3651 31.0078 15.4029 30.7977 15.4806 30.6012C15.5584 30.4046 15.6745 30.2256 15.8222 30.0744C15.97 29.9233 16.1464 29.8031 16.3411 29.7209C16.5358 29.6387 16.7449 29.5962 16.9563 29.5957C17.1676 29.5953 17.3769 29.637 17.572 29.7183C17.7671 29.7997 17.9439 29.9191 18.0923 30.0697C18.2407 30.2202 18.3576 30.3988 18.4361 30.595C18.5147 30.7912 18.5534 31.0011 18.5499 31.2124C18.5523 31.4211 18.5129 31.6281 18.434 31.8214C18.3551 32.0146 18.2384 32.1901 18.0906 32.3375C17.9428 32.4849 17.7671 32.6012 17.5737 32.6796C17.3802 32.758 17.1731 32.7969 16.9644 32.794Z" fill="#1CD6D1"/>
<path d="M68.1813 32.794C67.9725 32.7952 67.7656 32.7546 67.5728 32.6747C67.3799 32.5947 67.205 32.477 67.0584 32.3284C66.9117 32.1799 66.7963 32.0035 66.7188 31.8096C66.6414 31.6157 66.6035 31.4083 66.6075 31.1996C66.6116 30.7778 66.7831 30.3749 67.0843 30.0795C67.3855 29.7842 67.7917 29.6206 68.2135 29.6247C68.6354 29.6288 69.0383 29.8004 69.3336 30.1016C69.629 30.4028 69.7926 30.8089 69.7884 31.2308C69.7834 32.1073 69.0745 32.794 68.1813 32.794Z" fill="#1CD6D1"/>
<path d="M9.09605 25.9591C8.88731 25.9602 8.68046 25.9195 8.48763 25.8396C8.2948 25.7596 8.11988 25.642 7.97314 25.4935C7.82639 25.3451 7.71077 25.1688 7.63306 24.9751C7.55535 24.7813 7.51712 24.574 7.5206 24.3653C7.51919 24.1543 7.55979 23.9451 7.64002 23.7499C7.72026 23.5547 7.83853 23.3775 7.98796 23.2285C8.13738 23.0794 8.31496 22.9617 8.51036 22.882C8.70575 22.8023 8.91506 22.7622 9.12607 22.7642C9.33709 22.7662 9.5456 22.8102 9.73945 22.8936C9.93331 22.9769 10.1086 23.0981 10.2552 23.2499C10.4018 23.4017 10.5167 23.5811 10.5932 23.7778C10.6698 23.9745 10.7064 24.1844 10.701 24.3953C10.696 25.2774 9.99035 25.9652 9.09605 25.9591Z" fill="#1CD6D1"/>
<path d="M60.3385 25.9591C60.1298 25.9615 59.9227 25.922 59.7295 25.8431C59.5363 25.7641 59.3609 25.6472 59.2136 25.4993C59.0663 25.3514 58.9502 25.1755 58.8721 24.982C58.7939 24.7884 58.7553 24.5812 58.7586 24.3725C58.7572 24.1637 58.7971 23.9568 58.876 23.7635C58.9549 23.5702 59.0713 23.3945 59.2184 23.2463C59.3655 23.0982 59.5404 22.9806 59.7331 22.9004C59.9259 22.8201 60.1325 22.7788 60.3413 22.7787C60.5524 22.7789 60.7613 22.8208 60.9561 22.9021C61.1509 22.9833 61.3276 23.1023 61.4763 23.2521C61.6249 23.402 61.7425 23.5797 61.8222 23.7751C61.9019 23.9706 61.9421 24.1798 61.9407 24.3909C61.9393 24.5993 61.8967 24.8054 61.8153 24.9972C61.7338 25.1891 61.6152 25.3629 61.4663 25.5087C61.3173 25.6545 61.141 25.7694 60.9474 25.8467C60.7539 25.924 60.5469 25.9622 60.3385 25.9591Z" fill="#1CD6D1"/>
<path d="M11.4567 27.7855C11.4542 27.5766 11.4937 27.3694 11.5729 27.1761C11.6521 26.9828 11.7693 26.8074 11.9176 26.6604C12.066 26.5133 12.2423 26.3975 12.4363 26.32C12.6302 26.2424 12.8378 26.2047 13.0466 26.2089C13.2577 26.2073 13.467 26.2479 13.6622 26.3283C13.8574 26.4087 14.0346 26.5274 14.1832 26.6773C14.3319 26.8272 14.4491 27.0053 14.5279 27.2012C14.6067 27.397 14.6455 27.6067 14.6421 27.8178C14.6335 28.2392 14.4594 28.6403 14.1574 28.9344C13.8554 29.2285 13.4498 29.3919 13.0283 29.3893C12.8195 29.388 12.6131 29.3454 12.4209 29.264C12.2287 29.1825 12.0546 29.0638 11.9085 28.9147C11.7624 28.7656 11.6472 28.5891 11.5697 28.3953C11.4922 28.2015 11.4538 27.9942 11.4567 27.7855Z" fill="#1CD6D1"/>
<path d="M8.09936 31.0071C7.67828 31.0106 7.27306 30.8466 6.97286 30.5513C6.67266 30.256 6.50206 29.8536 6.49859 29.4325C6.49512 29.0114 6.65907 28.6062 6.95437 28.306C7.24966 28.0058 7.65212 27.8352 8.0732 27.8317C8.2817 27.83 8.4885 27.8694 8.68178 27.9476C8.87507 28.0258 9.05106 28.1413 9.1997 28.2875C9.34835 28.4337 9.46674 28.6078 9.54811 28.7998C9.62949 28.9917 9.67226 29.1978 9.67397 29.4063C9.67569 29.6148 9.63633 29.8216 9.55812 30.0149C9.47992 30.2082 9.36441 30.3842 9.2182 30.5328C9.07198 30.6815 8.89792 30.7999 8.70595 30.8812C8.51398 30.9626 8.30786 31.0054 8.09936 31.0071Z" fill="#1CD6D1"/>
<path d="M104.772 15.4788H95.1716V13.841L99.9278 8.65333C100.614 7.88841 101.101 7.25098 101.389 6.74103C101.683 6.22455 101.83 5.70807 101.83 5.19159C101.83 4.51166 101.637 3.96249 101.252 3.54407C100.872 3.12565 100.359 2.91645 99.712 2.91645C98.9406 2.91645 98.3424 3.1518 97.9174 3.62252C97.4925 4.09324 97.28 4.73721 97.28 5.55443H94.897C94.897 4.68491 95.0931 3.90365 95.4854 3.21064C95.8842 2.5111 96.4497 1.96847 97.1819 1.58274C97.9207 1.19701 98.7706 1.00415 99.7316 1.00415C101.118 1.00415 102.209 1.35392 103.007 2.05346C103.811 2.74646 104.213 3.70751 104.213 4.93661C104.213 5.64923 104.011 6.3978 103.605 7.18233C103.206 7.96033 102.549 8.84619 101.634 9.83993L98.143 13.5763H104.772V15.4788Z" fill="#1CD6D1"/>
</svg>
