<svg viewBox="0 0 1202 1202" fill="none" xmlns="http://www.w3.org/2000/svg">
<circle cx="601" cy="601" r="601" fill="white"/>
<path d="M682 712.3H375.9V265H682C787.1 265 872.2 350.2 872.2 455.2V522C872.2 627.1 787.1 712.3 682 712.3Z" fill="#ACD905"/>
<path d="M760.9 936H375.9V712.3C375.9 588.8 476 488.7 599.5 488.7H760.9C884.4 488.7 984.5 588.8 984.5 712.3C984.5 835.8 884.4 936 760.9 936Z" fill="#AEAFAA"/>
<path d="M872.2 518.4V522.1C872.2 627.2 787.1 712.3 681.9 712.3H375.9C375.9 650.6 401 594.7 441.4 554.2C481.9 513.7 537.8 488.7 599.6 488.7H760.9C801.5 488.7 839.5 499.5 872.2 518.4Z" fill="#5D6E3C"/>
<path d="M376.5 825C500.488 825 601 724.488 601 600.5C601 476.512 500.488 376 376.5 376C252.512 376 152 476.512 152 600.5C152 724.488 252.512 825 376.5 825Z" fill="black"/>
<path d="M412.4 723.3V765L376.1 786.4L340.8 765V723.3L376.1 744.7L412.4 723.3ZM217.9 579.1L253.2 600.5V672L314 708.3V750L217.9 693.3V579.1ZM534.1 579.1V693.5L437 750.2V708.5L497.8 672.2V600.7L534.1 579.1ZM436.8 522.5L473.1 543.9V585.5L412.3 621.8V694.3L377 715.7L341.9 694.3V621.6L278.9 585.3V543.6L315.2 522.2L376 558.5L436.8 522.5ZM278.9 615.3L314.2 636.7V678.4L278.9 657V615.3ZM473.2 615.3V657L437.9 678.4V636.7L473.2 615.3ZM253.2 486.1L289.5 507.5L253.2 528.9V570.5L217.9 549.1V507.5L253.2 486.1ZM498.8 486.1L535.1 507.5V549.2L498.8 570.5V528.8L463.5 507.5L498.8 486.1ZM376 486.1L412.3 507.5L376 528.9L340.7 507.5L376 486.1ZM376 414.7L473.1 471.4L437.8 492.8L377 456.5L315 492.8L279.7 471.4L376 414.7Z" fill="#F1B82F"/>
</svg>
