<svg width="25" height="25" viewBox="0 0 25 25" fill="none" xmlns="http://www.w3.org/2000/svg">
<path d="M12.5952 0.5C11.9328 0.5 11.3952 1.0376 11.3952 1.7V4.1C11.3952 4.7624 11.9328 5.3 12.5952 5.3C13.2576 5.3 13.7952 4.7624 13.7952 4.1V1.7C13.7952 1.0376 13.2576 0.5 12.5952 0.5ZM4.94521 3.65C4.63801 3.65 4.35481 3.7904 4.12081 4.0256C3.65161 4.4936 3.65161 5.24479 4.12081 5.71279L5.73241 7.36279C6.20161 7.83079 6.99 7.83199 7.458 7.36279C7.926 6.89359 7.9272 6.10521 7.458 5.63721L5.808 4.0256C5.5728 3.7904 5.25241 3.65 4.94521 3.65ZM20.208 3.68721C19.9008 3.68721 19.6176 3.7904 19.3824 4.0256L17.7324 5.63721C17.2644 6.10641 17.2644 6.89359 17.7324 7.36279C18.2016 7.83079 18.9888 7.83079 19.458 7.36279L21.0696 5.71279C21.5388 5.24359 21.5388 4.4936 21.0696 4.0256C20.8356 3.7904 20.5152 3.68721 20.208 3.68721ZM12.5952 6.5C9.282 6.5 6.59521 9.1868 6.59521 12.5C6.59521 15.8132 9.282 18.5 12.5952 18.5C15.9084 18.5 18.5952 15.8132 18.5952 12.5C18.5952 9.1868 15.9084 6.5 12.5952 6.5ZM12.5952 8.9C14.5836 8.9 16.1952 10.5116 16.1952 12.5C16.1952 14.4884 14.5836 16.1 12.5952 16.1C10.6068 16.1 8.9952 14.4884 8.9952 12.5C8.9952 10.5116 10.6068 8.9 12.5952 8.9ZM1.79521 11.3C1.13281 11.3 0.595215 11.8376 0.595215 12.5C0.595215 13.1624 1.13281 13.7 1.79521 13.7H4.19521C4.85761 13.7 5.39521 13.1624 5.39521 12.5C5.39521 11.8376 4.85761 11.3 4.19521 11.3H1.79521ZM20.9952 11.3C20.3328 11.3 19.7952 11.8376 19.7952 12.5C19.7952 13.1624 20.3328 13.7 20.9952 13.7H23.3952C24.0576 13.7 24.5952 13.1624 24.5952 12.5C24.5952 11.8376 24.0576 11.3 23.3952 11.3H20.9952ZM6.59521 17.3C6.28801 17.2988 5.96761 17.4032 5.73241 17.6372L4.08242 19.2872C3.61322 19.7552 3.61562 20.5052 4.08242 20.9744C4.55042 21.4448 5.3376 21.4424 5.808 20.9744L7.458 19.3628C7.9272 18.8948 7.9248 18.1076 7.458 17.6372C7.224 17.4032 6.90241 17.3012 6.59521 17.3ZM18.5952 17.3C18.288 17.3 17.9664 17.4032 17.7324 17.6372C17.2644 18.1064 17.2632 18.8948 17.7324 19.3628L19.4208 21.0128C19.8888 21.4808 20.64 21.482 21.108 21.0128C21.576 20.5436 21.5772 19.7552 21.108 19.2872L19.458 17.6372C19.2228 17.4032 18.9024 17.3 18.5952 17.3ZM12.5952 19.7C11.9328 19.7 11.3952 20.2376 11.3952 20.9V23.3C11.3952 23.9624 11.9328 24.5 12.5952 24.5C13.2576 24.5 13.7952 23.9624 13.7952 23.3V20.9C13.7952 20.2376 13.2576 19.7 12.5952 19.7Z" fill="#A8A8A8"/>
</svg>
