<svg width="24" height="24" viewBox="0 0 24 24" fill="none" xmlns="http://www.w3.org/2000/svg">
<path d="M15.3926 0.559223C14.3226 0.222133 13.4081 1.39152 13.9752 2.35989C14.8713 3.88722 15.3543 5.61068 15.3543 7.33904C15.3543 12.7545 10.9639 17.1453 5.54797 17.1453C4.52824 17.1453 3.49686 16.9798 2.56012 16.6856C1.49013 16.3485 0.537205 17.5179 1.1045 18.4863C3.28333 22.2029 7.26554 23.5 11.6769 23.5C18.4467 23.5 23.9347 19.0122 23.9347 12.2422C23.9347 6.8475 20.4529 2.15029 15.3926 0.559223ZM17.3462 4.23657C19.8763 6.02499 21.4832 8.97301 21.4832 12.2422C21.4832 17.6577 17.0928 22.0484 11.6769 22.0484C9.19088 22.0484 6.91852 21.0923 5.16491 19.5209C5.2957 19.5245 5.41767 19.5969 5.54797 19.5969C12.3179 19.5969 17.8058 14.109 17.8058 7.33904C17.8058 6.28854 17.6195 5.24907 17.3462 4.23657Z" fill="#8F9288"/>
</svg>
