<svg width="7" height="12" viewBox="0 0 7 12" xmlns="http://www.w3.org/2000/svg">
<path d="M0.707108 2.12132C0.316584 1.7308 0.316584 1.09763 0.707108 0.707108C1.09763 0.316584 1.7308 0.316584 2.12132 0.707108L6.52307 5.10886C6.9136 5.49938 6.9136 6.13255 6.52307 6.52307C6.13255 6.9136 5.49938 6.9136 5.10886 6.52307L0.707108 2.12132Z" />
<path d="M2.12132 11.0929C1.7308 11.4834 1.09763 11.4834 0.70711 11.0929C0.316586 10.7024 0.316586 10.0692 0.70711 9.67868L5.10886 5.27693C5.49939 4.8864 6.13255 4.8864 6.52308 5.27693C6.9136 5.66745 6.9136 6.30062 6.52308 6.69114L2.12132 11.0929Z" />
</svg>
