<svg viewBox="0 0 16 17" xmlns="http://www.w3.org/2000/svg">
<path d="M6.73275 0.5C3.01434 0.5 0 3.5146 0 7.23277C0 10.9509 3.01434 13.9655 6.73275 13.9655C8.27851 13.9655 9.74364 13.4345 10.88 12.5592L14.5438 16.2538C14.8725 16.5821 15.4249 16.5821 15.7536 16.2538C16.0823 15.9248 16.0823 15.3727 15.7536 15.0436L12.0645 11.3743C12.9404 10.2381 13.4655 8.77878 13.4655 7.23277C13.4655 3.5146 10.4512 0.5 6.73275 0.5ZM6.73275 2.18319C9.52154 2.18319 11.7823 4.44372 11.7823 7.23277C11.7823 10.0218 9.52154 12.2823 6.73275 12.2823C3.94396 12.2823 1.68319 10.0218 1.68319 7.23277C1.68319 4.44372 3.94396 2.18319 6.73275 2.18319Z"/>
</svg>
