<svg width="32" height="40" viewBox="0 0 32 40" xmlns="http://www.w3.org/2000/svg">
<path d="M7.125 0C3.2212 0 0 2.95999 0 6.68799V33.312C0 37.04 3.2212 40 7.125 40H24.875C28.7788 40 32 37.04 32 33.312C32 32.01 32 17.716 32 14C32 13.98 32.0006 13.958 32 13.938C32 6.81199 25.1212 0 18 0C9.5714 0 9.5526 0 7.125 0ZM7.125 4C9.106 4 11.3472 4 16 4V9.31201C16 13.04 19.2212 16 23.125 16H28C28 21.074 28 32.144 28 33.312C28 34.74 26.6518 36 24.875 36H7.125C5.3482 36 4 34.74 4 33.312V6.68799C4 5.25999 5.3482 4 7.125 4ZM20 4.5C23.5434 5.44 26.6442 8.466 27.5624 12H23.125C21.3458 12 20 10.74 20 9.31201V4.5Z"/>
</svg>
