<svg viewBox="0 0 33 35" fill="none" xmlns="http://www.w3.org/2000/svg">
<g filter="url(#filter0_d_1383_3449)">
<path d="M16.8827 8.5L21.0701 12.6874L16.8827 16.8748L16.8827 14.4641L15.1068 14.4641C11.158 14.4649 8.78864 15.6488 8 18.0175C8.78925 13.2802 11.1588 10.9107 15.1058 10.9115L16.8825 10.9107C16.8827 10.9107 16.8827 8.5 16.8827 8.5ZM15.6445 26.5L11.4571 22.3126L15.6437 18.126L15.6453 20.5353L17.4206 20.5361C21.3694 20.5353 23.7388 19.3514 24.528 16.9819C23.738 21.72 21.3684 24.0893 17.4212 24.0887L15.6445 24.0895L15.6445 26.5Z" fill="#8F9288"/>
</g>
<rect x="1" y="33.5" width="32" height="30.528" rx="15.264" transform="rotate(-90 1 33.5)" stroke="#8F9288" stroke-width="2"/>
<defs>
<filter id="filter0_d_1383_3449" x="7" y="8.5" width="18.5281" height="20" filterUnits="userSpaceOnUse" color-interpolation-filters="sRGB">
<feFlood flood-opacity="0" result="BackgroundImageFix"/>
<feColorMatrix in="SourceAlpha" type="matrix" values="0 0 0 0 0 0 0 0 0 0 0 0 0 0 0 0 0 0 127 0" result="hardAlpha"/>
<feOffset dy="1"/>
<feGaussianBlur stdDeviation="0.5"/>
<feComposite in2="hardAlpha" operator="out"/>
<feColorMatrix type="matrix" values="0 0 0 0 0 0 0 0 0 0 0 0 0 0 0 0 0 0 0.1 0"/>
<feBlend mode="normal" in2="BackgroundImageFix" result="effect1_dropShadow_1383_3449"/>
<feBlend mode="normal" in="SourceGraphic" in2="effect1_dropShadow_1383_3449" result="shape"/>
</filter>
</defs>
</svg>
