<svg width="32" height="32" viewBox="0 0 32 32" fill="none" xmlns="http://www.w3.org/2000/svg">
<path d="M16.5979 21.3317H2V0H16.5979C21.6101 0 25.6686 4.06319 25.6686 9.07064V12.2563C25.6686 17.2686 21.6101 21.3317 16.5979 21.3317Z" fill="#ACD905"/>
<path d="M20.3607 32H2V21.3318C2 15.442 6.77377 10.6683 12.6635 10.6683H20.3607C26.2504 10.6683 31.0241 15.442 31.0241 21.3318C31.0241 27.2215 26.2504 32 20.3607 32Z" fill="#AEAFAA"/>
<path d="M25.6686 12.0847V12.2611C25.6686 17.2733 21.6101 21.3318 16.5931 21.3318H2C2 18.3893 3.19702 15.7234 5.1237 13.792C7.05514 11.8605 9.72101 10.6683 12.6683 10.6683H20.3607C22.2969 10.6683 24.1091 11.1833 25.6686 12.0847Z" fill="#5D6E3C"/>
</svg>
