<svg width="11" height="7" viewBox="0 0 11 7"  fill="#fff" xmlns="http://www.w3.org/2000/svg">
<path d="M0.282987 0.649365C0.660301 0.27205 1.27205 0.27205 1.64936 0.649365L5.73573 4.73573C6.11305 5.11305 6.11305 5.72479 5.73573 6.10211C5.35842 6.47942 4.74667 6.47942 4.36935 6.10211L0.282986 2.01574C-0.0943291 1.63843 -0.0943283 1.02668 0.282987 0.649365Z"/>
<path d="M10.4977 0.282986C10.8751 0.660301 10.8751 1.27205 10.4977 1.64936L5.91682 6.23029C5.5395 6.6076 4.92776 6.6076 4.55044 6.23029C4.17313 5.85297 4.17313 5.24123 4.55044 4.86391L9.13137 0.282986C9.50868 -0.0943289 10.1204 -0.0943285 10.4977 0.282986Z"/>
</svg>
