<svg width="18" height="17" viewBox="0 0 18 17" fill="none" xmlns="http://www.w3.org/2000/svg">
<path d="M18 8.88274L13.8126 13.0701L9.62524 8.88274L12.0359 8.88274L12.0359 7.10683C12.0351 3.15799 10.8512 0.788645 8.4825 -4.16023e-07C13.2198 0.789247 15.5893 3.15879 15.5885 7.10583L15.5893 8.88254C15.5893 8.88274 18 8.88274 18 8.88274ZM-3.34152e-07 7.6445L4.18738 3.45712L8.37396 7.6437L5.96469 7.6453L5.96389 9.42061C5.96469 13.3694 7.14856 15.7388 9.5181 16.528C4.78002 15.738 2.41067 13.3684 2.41127 9.42121L2.41047 7.6445L-3.34152e-07 7.6445Z" fill="current"/>
</svg>
