<svg width="49" height="49" viewBox="0 0 49 49" fill="none" xmlns="http://www.w3.org/2000/svg">
  <path fill-rule="evenodd" clip-rule="evenodd" d="M16.5 1.6C19 0.799999 21.6 0.299999 24.4 0.299999C37.7 0.299999 48.4 11 48.3 24.3C48.3 37.5 37.5 48.3 24.3 48.3C11.1 48.3 0.299999 37.6 0.299999 24.3C0.299999 17.9691 2.75391 12.2925 6.7 8.01017V25.2C6.9 34.9 14.7 42.6 24.4 42.6C34.2 42.6 42.1 34.7 42.1 24.9C42.1 15.1 34.2 7.2 24.4 7.2H20.4V10H24.7C32.9 10.1 39.4 16.8 39.4 24.9C39.4 33.1 32.7 39.8 24.5 39.8C16.3 39.8 9.6 33.1 9.6 24.9V5.4C10.9 4.4 12.3 3.5 13.8 2.8V25C13.9 30.9 18.6 35.6 24.5 35.6C30.4 35.6 35.2 30.8 35.2 24.9C35.2 19 30.4 14.2 24.5 14.2H20.5V17H24.7C29 17.1 32.5 20.7 32.5 25C32.5 29.4 28.9 33 24.5 33C20.1 33 16.5 29.4 16.5 25V1.6ZM6.7 8.01017C7.11704 7.55758 7.55076 7.12057 8 6.7C7.66228 6.97018 7.37018 7.28598 7.09288 7.58577C6.95964 7.72982 6.82982 7.87018 6.7 8V8.01017ZM24.4 20.7H20.4V24.8C20.4 26.9 22.2 28.7 24.4 28.7C26.6 28.7 28.4 26.9 28.4 24.7C28.4 22.5 26.6 20.7 24.4 20.7Z" fill="#369efe"/>
</svg>
