<svg width="300" height="180" viewBox="0 0 300 180" fill="none" xmlns="http://www.w3.org/2000/svg">
<ellipse cx="57.6764" cy="120.697" rx="45.4864" ry="45.577" fill="#444444"/>
<ellipse cx="224.255" cy="120.697" rx="45.4864" ry="45.577" fill="#DDDDDD"/>
<mask id="mask0_1457_363" style="mask-type:alpha" maskUnits="userSpaceOnUse" x="28" y="14" width="225" height="112">
<rect x="28.7852" y="14.1428" width="223.744" height="111.479" fill="#C4C4C4"/>
</mask>
<g mask="url(#mask0_1457_363)">
<mask id="mask1_1457_363" style="mask-type:alpha" maskUnits="userSpaceOnUse" x="29" y="15" width="223" height="310">
<path fill-rule="evenodd" clip-rule="evenodd" d="M140.696 15.8384C79.2964 15.8384 29.522 64.2458 29.522 123.959V324.021H85.2721V129.126C85.2721 99.357 110.086 75.2247 140.695 75.2247C171.305 75.2247 196.118 99.357 196.118 129.126V324.021H251.871V123.959C251.871 64.2458 202.096 15.8384 140.696 15.8384Z" fill="#E9BCFF"/>
</mask>
<g mask="url(#mask1_1457_363)">
<path d="M29.5239 127.013C29.5239 65.6129 79.2983 15.8384 140.698 15.8384C202.098 15.8384 251.872 65.6128 251.872 127.013V324.021H29.5239V127.013Z" fill="#E9BCFF"/>
<path d="M42.1343 128.747C42.1343 74.23 86.3293 30.035 140.847 30.035C195.364 30.035 239.559 74.23 239.559 128.747V343.747H42.1343V128.747Z" fill="#2C98F3"/>
<path d="M55.1006 128.52C55.1006 81.972 92.8352 44.2374 139.383 44.2374C185.931 44.2374 223.666 81.972 223.666 128.52V375.378H55.1006V128.52Z" fill="#58C971"/>
<path d="M70.8438 130.23C70.8438 91.6508 102.118 60.3767 140.697 60.3767C179.275 60.3767 210.549 91.6509 210.549 130.23V414.755H70.8438V130.23Z" fill="#E9BCFF"/>
</g>
</g>

</svg>
