<svg style="box-shadow:0px 4px 4px rgba(101, 104, 112, 0.03);height:36px;margin-right:8px;width:36px" width="36" height="36" viewBox="0 0 36 36" fill="none" xmlns="http://www.w3.org/2000/svg"><rect width="36" height="36" rx="13" fill="#75FB6E"></rect><path d="M15.2985 9.40241V9.36723L15.4652 9.22348H18.0345V8H15.4652L15.0814 8.36398V8.87173L14.9009 9.01548H14.8734C15.0233 9.13783 15.1548 9.27547 15.2985 9.40241Z" fill="#111111"></path><path d="M14.9427 8.99878H14.4349L14.0893 9.36429V9.85215L14.4349 10.2161H14.9427L15.3067 9.85215V9.36429L14.9427 8.99878Z" fill="#111111"></path><path d="M16.6259 16.2059H16.1181L15.7725 16.5714V17.8441L16.1181 18.2081H16.6259L16.9899 17.8441V16.5714L16.6259 16.2059Z" fill="#111111"></path><path d="M14.9309 18.2343H14.4231L14.0775 18.5982V19.0861L14.4231 19.4516H14.9309L15.2948 19.0861V18.5982L14.9309 18.2343Z" fill="#111111"></path><path d="M21.5573 18.2343H21.0496L20.7055 18.5982V19.0861L21.0496 19.4516H21.5573L21.9228 19.0861V18.5982L21.5573 18.2343Z" fill="#111111"></path><path d="M14.4843 9.78149L14.1203 9.82432L14.0132 9.96043L13.5086 10.0185L12.2851 11.5678L12.3447 12.0725L12.2025 12.2453L12.2377 12.5603L12.6322 12.5144L12.7424 12.386L13.247 12.3279L14.4568 10.7802L14.3971 10.2816L14.5256 10.1332L14.4843 9.78149Z" fill="#111111"></path><path d="M12.2235 15.8612L12.589 15.904L12.6961 16.0401L13.1992 16.0983L14.4227 17.6475L14.3631 18.1522L14.5068 18.325L14.4701 18.64L14.0756 18.5941L13.9655 18.4657L13.4608 18.4076L12.2526 16.8599L12.3107 16.3613L12.1822 16.213L12.2235 15.8612Z" fill="#111111"></path><path d="M12.4899 11.9857L12.2268 12.2411L12.2238 12.4139L11.8598 12.7672L11.8307 15.6577L12.1855 16.0217L12.1763 16.248L12.3981 16.4743L12.6826 16.1991L12.6917 16.0293L13.0557 15.676L13.0741 12.7947L12.7254 12.4353L12.7361 12.2396L12.4899 11.9857Z" fill="#111111"></path><path d="M20.7145 9.40241V9.36723L20.5478 9.22348H17.9739V8H20.5432L20.9271 8.36398V8.87173L21.1075 9.01548H21.1351C20.9898 9.13783 20.8582 9.27547 20.7145 9.40241Z" fill="#111111"></path><path d="M21.0695 8.99878H21.5772L21.9228 9.36429V9.85215L21.5772 10.2161H21.0695L20.7055 9.85215V9.36429L21.0695 8.99878Z" fill="#111111"></path><path d="M19.3877 16.2142H19.8954L20.2411 16.5797V17.8452L19.8954 18.2092H19.3877L19.0237 17.8452L19.0237 16.5797L19.3877 16.2142Z" fill="#111111"></path><path d="M21.528 9.78149L21.892 9.82432L22.0006 9.96043L22.5037 10.0185L23.7272 11.5678L23.6675 12.0725L23.8113 12.2453L23.7746 12.5603L23.38 12.5144L23.2699 12.386L22.7652 12.3279L21.5571 10.7802L21.6152 10.2816L21.4867 10.1332L21.528 9.78149Z" fill="#111111"></path><path d="M23.7889 15.8612L23.4249 15.904L23.3178 16.0401L22.8131 16.0983L21.5912 17.6475L21.6493 18.1522L21.5056 18.325L21.5423 18.64L21.9368 18.5941L22.0469 18.4657L22.5516 18.4076L23.7613 16.8599L23.7032 16.3613L23.8302 16.213L23.7889 15.8612Z" fill="#111111"></path><path d="M23.5225 11.9857L23.7871 12.2411L23.7886 12.4139L24.1526 12.7672L24.1816 15.6577L23.8268 16.0217L23.836 16.248L23.6158 16.4743L23.3313 16.1991L23.3206 16.0293L22.9566 15.676L22.9383 12.7947L23.287 12.4353L23.2763 12.2396L23.5225 11.9857Z" fill="#111111"></path><path d="M10.8935 17.2117H10.3857L10.0401 17.5772V18.065L10.3857 18.429H10.8935L11.2575 18.065V17.5772L10.8935 17.2117Z" fill="#111111"></path><path d="M10.6852 18.0934L10.4221 18.3503L10.4191 18.5216L10.0551 18.8764L10.0276 21.1429L10.3808 21.5069L10.3732 21.7317L10.595 21.9152L10.8779 21.6843L10.8871 21.5145L11.251 21.1612L11.2709 18.9024L10.9207 18.543L10.9329 18.3473L10.6852 18.0934Z" fill="#111111"></path><path d="M7.65871 15.7264L7.72142 16.231L9.51534 17.6182L10.02 17.5539L10.1944 17.6962L10.5079 17.6564L10.4589 17.2633L10.3305 17.1548L10.2678 16.6501L8.47538 15.2767L7.97835 15.3394L7.65871 15.7264Z" fill="#111111"></path><path d="M14.9505 19.6315L14.9413 19.4418L14.689 19.1941L14.4305 19.4571L14.4321 19.63L14.1415 19.9251L14.0773 19.9894V19.9909V19.9924V22.262V22.5219L13.9213 22.6718H11.3887L11.2388 22.5219V22.0142L10.8794 21.6563H10.3717L10.0276 22.0142V22.5219L10.3717 22.8676H10.8794L11.043 23.0297V23.5374L11.3887 23.8831H13.9213L14.2791 23.5374V23.0297L14.4413 22.8676H14.9505L15.2946 22.5219V22.3476V19.9894L14.9505 19.6315Z" fill="#111111"></path><path d="M25.1068 17.2117H25.6146L25.9602 17.5772V18.065L25.6146 18.429H25.1068L24.7428 18.065V17.5772L25.1068 17.2117Z" fill="#111111"></path><path d="M25.3138 18.0934L25.5784 18.3503L25.5814 18.5216L25.9454 18.8764L25.9729 21.1429L25.6197 21.5069L25.6273 21.7317L25.4055 21.9152L25.1226 21.6843L25.1134 21.5145L24.7479 21.1612L24.7296 18.9024L25.0798 18.543L25.0676 18.3473L25.3138 18.0934Z" fill="#111111"></path><path d="M28.3413 15.7264L28.2771 16.231L26.4847 17.6182L25.98 17.5539L25.8056 17.6962L25.4906 17.6564L25.5411 17.2633L25.6695 17.1548L25.7322 16.6501L27.5246 15.2767L28.0217 15.3394L28.3413 15.7264Z" fill="#111111"></path><path d="M21.0496 19.6315L21.0587 19.4418L21.3111 19.1941L21.5695 19.4571L21.5665 19.63L21.8586 19.9251L21.9228 19.9894V19.9909V19.9924V22.262V22.5219L22.0788 22.6718H24.6114L24.7613 22.5219V22.0142L25.1192 21.6563H25.6269L25.9725 22.0142V22.5219L25.6269 22.8676H25.1192L24.957 23.0297V23.5374L24.6114 23.8831H22.0788L21.721 23.5374V23.0297L21.5573 22.8676H21.0496L20.7055 22.5219V22.3476V19.9894L21.0496 19.6315Z" fill="#111111"></path><path d="M17.3029 23.6311L17.2983 23.6281L17.3045 23.1325L16.9497 22.7701L16.4419 22.7655L16.0795 23.1203L16.0749 23.6143L15.9235 23.7764L15.4218 23.7718L13.0085 26.1301L13.0039 26.6378L13.3588 26.9865L13.8665 26.9926L16.2798 24.6328L16.2844 24.1373L16.4297 23.9767L16.9129 23.9813L17.3029 23.6311Z" fill="#111111"></path><path d="M13.0033 26.6374L12.8443 26.7888H10.3101L10.1618 26.6389V26.1312L9.8024 25.7733H9.29466L8.95055 26.1312V26.6389L9.29466 26.983H9.8024L9.96604 27.1467V27.6544L10.3101 28H12.8443L13.2021 27.6544V27.1467L13.3642 26.983H13.3704L13.0033 26.6374Z" fill="#111111"></path><path d="M18.7372 23.6311L18.7402 23.6281L18.7356 23.1325L19.0904 22.7701L19.5982 22.7655L19.9591 23.1203L19.9637 23.6143L20.1151 23.7764L20.6167 23.7718L23.03 26.1301L23.0361 26.6378L22.6813 26.9865L22.1736 26.9926L19.7603 24.6328L19.7542 24.1373L19.6104 23.9767L19.1256 23.9813L18.7372 23.6311Z" fill="#111111"></path><path d="M23.0361 26.6374L23.1952 26.7888H25.7277L25.8776 26.6389V26.1312L26.2355 25.7733H26.7432L27.0889 26.1312V26.6389L26.7432 26.983H26.2355L26.0734 27.1467V27.6544L25.7277 28H23.1952L22.8373 27.6544V27.1467L22.6736 26.983H22.6691L23.0361 26.6374Z" fill="#111111"></path></svg>