<?xml version="1.0" encoding="UTF-8"?>
<svg width="1024px" height="1024px" viewBox="0 0 1024 1024" version="1.1" xmlns="http://www.w3.org/2000/svg" xmlns:xlink="http://www.w3.org/1999/xlink">
    <title>logo1024@2x</title>
    <g id="页面1" stroke="none" stroke-width="1" fill="none" fill-rule="evenodd">
        <g id="logo">
            <g id="logo1024">
                <rect id="矩形备份-20" fill="#000000" x="0" y="0" width="1024" height="1024" rx="106"></rect>
                <circle id="椭圆形" fill="#D7FF1E" cx="469" cy="392" r="7"></circle>
                <circle id="椭圆形备份" fill="#D7FF1E" cx="580" cy="425" r="7"></circle>
                <circle id="椭圆形备份-3" fill="#D7FF1E" cx="496" cy="517" r="7"></circle>
                <circle id="椭圆形备份-4" fill="#D7FF1E" cx="539" cy="608" r="7"></circle>
                <circle id="椭圆形备份-5" fill="#D7FF1E" cx="486" cy="693" r="7"></circle>
                <circle id="椭圆形备份-2" fill="#D7FF1E" cx="572" cy="353" r="7"></circle>
                <g id="编组-17备份" transform="translate(309.000000, 200.000000)">
                    <path d="M50.7235174,625 C49.6703955,625 48.6276362,624.79207 47.6550599,624.388137 C43.5747016,622.693475 41.6407127,618.011896 43.3353796,613.93154 C75.344092,536.861894 91.4545211,472.551381 91.6666667,421 C92,340 18.6666667,260 4.66666667,189 C-4.41999031,142.917668 -0.236897014,81.9858539 17.2159466,6.20455716 C18.052301,2.57305591 21.2853019,2.20403112e-07 25.0118674,0 L25.0118674,0 L381.654799,0 C385.381365,2.20403112e-07 388.614366,2.57305591 389.45072,6.20455716 C406.903564,81.9858539 411.086657,142.917668 402,189 C388,260 314.666667,340 315,421 C315.212146,472.551381 331.322575,536.861894 363.331287,613.93154 C365.025954,618.011896 363.091965,622.693475 359.011607,624.388137 C358.03903,624.79207 356.996271,625 355.943149,625 Z" id="形状结合" stroke="#2ECA23" stroke-width="28"></path>
                    <path d="M356.322,79 C367.678,138.46056 362,188.872774 339.288,230.236641 C305.22,292.282443 274.110442,355.352 274.346592,421.1888 C274.498709,463.59766 286.188697,516.630079 309.416557,580.286057 C310.363141,582.880173 309.027553,585.750478 306.433437,586.697063 C305.884227,586.897468 305.304125,587 304.719494,587 L102.280506,587 C101.695875,587 101.115773,586.897468 100.566563,586.697063 C97.972447,585.750478 96.6368587,582.880173 97.5834433,580.286057 C120.811303,516.630079 132.501291,463.59766 132.653408,421.1888 C132.889558,355.352 101.78,292.282443 67.712,230.236641 C45.22712,189.286412 39.4372634,139.467899 50.3424302,80.7811023 L50.678,79 L356.322,79 Z M177,476 C167.611159,476 160,483.611159 160,493 C160,502.388841 167.611159,510 177,510 C186.388841,510 194,502.388841 194,493 C194,483.611159 186.388841,476 177,476 Z M230,391 C220.611159,391 213,398.611159 213,408 C213,417.388841 220.611159,425 230,425 C239.388841,425 247,417.388841 247,408 C247,398.611159 239.388841,391 230,391 Z M187,300 C177.611159,300 170,307.611159 170,317 C170,326.388841 177.611159,334 187,334 C196.388841,334 204,326.388841 204,317 C204,307.611159 196.388841,300 187,300 Z M271,208 C261.611159,208 254,215.611159 254,225 C254,234.388841 261.611159,242 271,242 C280.388841,242 288,234.388841 288,225 C288,215.611159 280.388841,208 271,208 Z M160,175 C150.611159,175 143,182.611159 143,192 C143,201.388841 150.611159,209 160,209 C169.388841,209 177,201.388841 177,192 C177,182.611159 169.388841,175 160,175 Z M263,136 C253.611159,136 246,143.611159 246,153 C246,162.388841 253.611159,170 263,170 C272.388841,170 280,162.388841 280,153 C280,143.611159 272.388841,136 263,136 Z" id="形状结合" fill="#D7FF1E"></path>
                </g>
            </g>
        </g>
    </g>
</svg>