<svg width="4096" height="4096" viewBox="0 0 4096 4096" fill="none" xmlns="http://www.w3.org/2000/svg">
<path d="M2455.45 1400.28L3133.71 2252.44L1436.33 3908.07L450.602 2703.91L2455.45 1400.28Z" fill="#D58A9F"/>
<path fill-rule="evenodd" clip-rule="evenodd" d="M1433.85 3952.28L406.298 2697.03L2461.93 1360.37L3173.96 2254.97L1433.85 3952.28ZM3093.45 2249.91L2448.97 1440.18L494.902 2710.79L1438.8 3863.86L3093.45 2249.91Z" fill="white"/>
<path d="M1082.36 3111.7L1192.62 2028.16L3563.74 2029.84L3427.48 3580.03L1082.36 3111.7Z" fill="#950C2A"/>
<path fill-rule="evenodd" clip-rule="evenodd" d="M3596.43 1999.94L3454.38 3615.91L1049.87 3135.71L1165.62 1998.22L3596.43 1999.94ZM1219.67 2058.1L1114.9 3087.68L3400.62 3544.15L3531.1 2059.73L1219.67 2058.1Z" fill="white"/>
<path fill-rule="evenodd" clip-rule="evenodd" d="M2515.84 2701.49L1139.48 2402.28L1152.2 2343.81L2528.55 2643.01L2515.84 2701.49Z" fill="white"/>
<path d="M1329.56 1555.78L2059.5 747.446L3970.14 2151.6L2943.16 3320.77L1329.56 1555.78Z" fill="#F0932C"/>
<path fill-rule="evenodd" clip-rule="evenodd" d="M4014.16 2146.82L2943.6 3365.6L1289.13 1555.9L2055.42 707.316L4014.16 2146.82ZM2063.57 787.574L1369.98 1555.65L2942.71 3275.94L3926.11 2156.38L2063.57 787.574Z" fill="white"/>
<path fill-rule="evenodd" clip-rule="evenodd" d="M3054.44 2402.28L2156.81 1624.34L2196.01 1579.12L3093.63 2357.06L3054.44 2402.28Z" fill="white"/>
<path d="M780.435 2671.57L122.177 1803.87L1857.58 188.142L2815.05 1414.89L780.435 2671.57Z" fill="#300729"/>
<path fill-rule="evenodd" clip-rule="evenodd" d="M1861.1 144L2859.19 1422.81L773.037 2711.31L82 1800.4L1861.1 144ZM162.372 1807.33L787.851 2631.83L2770.93 1406.98L1854.09 232.285L162.372 1807.33Z" fill="white"/>
<path fill-rule="evenodd" clip-rule="evenodd" d="M1857.6 1325.13L459.044 2198.4L422.089 2149.69L1825.88 1274.39L1857.6 1325.13Z" fill="white"/>
</svg>
