<?xml version="1.0" encoding="utf-8"?>
<!-- Generator: Adobe Illustrator 26.1.0, SVG Export Plug-In . SVG Version: 6.00 Build 0)  -->
<svg version="1.1" id="Layer_1" xmlns="http://www.w3.org/2000/svg" xmlns:xlink="http://www.w3.org/1999/xlink" x="0px" y="0px"
	 viewBox="0 0 360 360" style="enable-background:new 0 0 360 360;" xml:space="preserve">
<style type="text/css">
	.st0{fill:#FEFEFE;}
	.st1{fill:#B3332F;}
	.st2{fill:#4C4C4C;}
</style>
<rect x="0" y="0" class="st0" width="360" height="360"/>
<g>
	<path class="st1" d="M179.7,135.8c19,0,38,0,57,0c13,0,24.3,4.3,33.9,13c10.7,9.8,16.2,22,16.3,36.5c0.1,23.6,0.2,47.2,0,70.7
		c-0.3,42.6-29.5,78.1-71.2,86.8c-6,1.2-12,1.8-18.1,1.8c-12.9,0-25.8,0.4-38.7-0.1c-21.7-0.8-40.9-8.5-57-23.2
		c-14.2-12.9-23.2-28.9-27.2-47.7c-1.9-8.9-1.8-18-1.7-27.1c0-20.1,0-40.2,0-60.2c0-12.6,3.9-23.7,12.2-33.1
		c10-11.4,22.6-17.3,37.8-17.4C141.9,135.7,160.8,135.8,179.7,135.8z M179.8,285.9c7.2,0,14.5,0,21.7,0c1.6,0,2.2-0.4,1.6-2
		c-0.2-0.5-0.2-1.1-0.4-1.7c-3.2-12.7-6.3-25.5-9.5-38.2c-0.4-1.4-0.3-2.1,1.2-2.6c2.8-1,5.2-2.5,7.6-4.3
		c11.4-8.3,12.9-23.6,3.1-32.9c-13.7-13.1-37.3-12.9-50.7,0.4c-7,7-8,18-2.5,26.3c3.4,5.1,8.4,8.3,13.7,10.8c1.7,0.8,1.3,1.3,1,2.5
		c-3.2,13-6.4,26-9.7,39c-0.5,2.1-0.4,2.9,2.1,2.8C166,285.8,172.9,285.9,179.8,285.9z"/>
	<path class="st2" d="M102.3,106.5c0.2-8.6-0.4-17.2,0.9-25.7c1.1-6.7,2.9-13.1,5.7-19.2c7.7-16.9,19.7-29.8,36.4-38.1
		c8-3.9,16.4-6.4,25.4-7.6c22.3-2.9,41.9,3.2,59.1,17.1c11,8.8,19,20,23.7,33.3c2.2,6.3,3.5,12.7,4.1,19.5
		c1.3,14.3,0.1,28.6,0.7,42.9c0.1,2.5-1.4,1.5-2.4,1.2c-4-1.4-8.1-2.4-12.3-2.9c-5.9-0.7-11.8-0.4-17.7-0.3c-2.2,0-2.6-0.7-2.5-2.7
		c0.1-10.3,0.1-20.7,0-31c0-19-12.1-35.4-30.1-41.2c-23.2-7.5-48.1,6.5-54.6,29.6c-2.1,7.4-1.4,14.8-1.5,22.2c-0.2,7-0.1,14,0,21
		c0,1.6-0.3,2.1-2,2.1c-7.6,0-15.2-0.5-22.7,0.9c-2.8,0.5-5.5,1.2-8.2,2.2c-1.7,0.6-2,0.2-2-1.4C102.4,121,102.3,113.8,102.3,106.5z
		"/>
</g>
</svg>
