<svg width="400" height="400" viewBox="0 0 400 400" fill="none" xmlns="http://www.w3.org/2000/svg">
<g clip-path="url(#clip0_1_2)">
<rect x="10" y="10" width="380" height="380" fill="#1E1E1E" stroke="url(#paint0_linear_1_2)" stroke-width="20"/>
<path d="M114.854 191.161L112.143 192.034V122H122V203H112.143L60.1464 133.963L62.8571 133.091V203H53V122H62.8571L114.854 191.161Z" fill="url(#paint1_linear_1_2)"/>
<path d="M178.5 204C171.176 204 164.511 202.307 158.503 198.921C152.578 195.452 147.846 190.621 144.308 184.427C140.769 178.233 139 170.924 139 162.5C139 154.076 140.769 146.767 144.308 140.573C147.846 134.297 152.578 129.465 158.503 126.079C164.511 122.693 171.176 121 178.5 121C185.824 121 192.448 122.693 198.373 126.079C204.381 129.465 209.154 134.297 212.692 140.573C216.231 146.767 218 154.076 218 162.5C218 170.924 216.231 178.233 212.692 184.427C209.154 190.621 204.381 195.452 198.373 198.921C192.448 202.307 185.824 204 178.5 204ZM178.5 194.709C184.095 194.709 189.115 193.511 193.559 191.116C198.003 188.639 201.542 185.005 204.175 180.215C206.809 175.425 208.125 169.52 208.125 162.5C208.125 155.48 206.809 149.616 204.175 144.909C201.542 140.119 198.003 136.485 193.559 134.007C189.115 131.53 184.095 130.291 178.5 130.291C172.987 130.291 167.966 131.53 163.441 134.007C158.997 136.485 155.459 140.119 152.825 144.909C150.192 149.616 148.875 155.48 148.875 162.5C148.875 169.52 150.192 175.425 152.825 180.215C155.459 185.005 158.997 188.639 163.441 191.116C167.966 193.511 172.987 194.709 178.5 194.709Z" fill="url(#paint2_linear_1_2)"/>
<path d="M252.133 203L223 122H233.707L258.731 192.283H255.743L279.771 122H290.478L314.506 192.283H311.518L336.542 122H347L318.117 203H307.659L283.755 130.225H286.494L262.59 203H252.133Z" fill="url(#paint3_linear_1_2)"/>
<path d="M49.5051 249.369V243.946H63.8658C66.6815 243.946 68.9571 243.054 70.6935 241.271C72.477 239.439 73.3685 237.077 73.3685 234.185C73.3685 231.196 72.477 228.834 70.6935 227.098C68.9571 225.315 66.6815 224.423 63.8658 224.423H50.6315V266H45V219H63.8658C65.9773 219 67.9481 219.337 69.7787 220.012C71.6088 220.687 73.2045 221.675 74.5653 222.977C75.9732 224.278 77.0525 225.869 77.8032 227.749C78.6011 229.629 79 231.774 79 234.185C79 236.595 78.6011 238.74 77.8032 240.62C77.0525 242.5 75.9732 244.091 74.5653 245.392C73.2045 246.694 71.6088 247.682 69.7787 248.357C67.9481 249.032 65.9773 249.369 63.8658 249.369H49.5051Z" fill="white"/>
<path d="M98.8693 267C96.1743 267 93.6847 266.217 91.4006 264.652C89.1619 263.039 87.3578 260.857 85.9874 258.106C84.6623 255.307 84 252.129 84 248.571C84 245.013 84.6855 241.835 86.0559 239.036C87.4263 236.238 89.2763 234.032 91.6061 232.419C93.9814 230.806 96.6311 230 99.5548 230C102.752 230 105.174 230.854 106.818 232.562C108.508 234.222 109.65 236.451 110.244 239.25C110.883 242.049 111.203 245.156 111.203 248.571C111.203 250.374 111.02 252.342 110.655 254.477C110.29 256.564 109.65 258.58 108.736 260.525C107.869 262.422 106.635 263.988 105.037 265.221C103.437 266.407 101.382 267 98.8693 267ZM100.24 261.592C102.57 261.592 104.488 260.999 105.995 259.813C107.549 258.627 108.691 257.062 109.422 255.117C110.153 253.125 110.518 250.943 110.518 248.571C110.518 245.962 110.13 243.685 109.353 241.74C108.622 239.748 107.48 238.206 105.927 237.115C104.42 235.977 102.524 235.408 100.24 235.408C96.8139 235.408 94.1642 236.665 92.2911 239.179C90.4185 241.645 89.4818 244.776 89.4818 248.571C89.4818 251.085 89.9386 253.338 90.8522 255.331C91.8116 257.276 93.0909 258.817 94.6895 259.956C96.3339 261.047 98.1843 261.592 100.24 261.592ZM110.518 230.712H116V266.288H110.998C110.998 266.288 110.952 265.861 110.861 265.008C110.815 264.154 110.746 263.158 110.655 262.019C110.564 260.881 110.518 259.932 110.518 259.173V230.712Z" fill="white"/>
<path d="M123 231H129.103L141.806 264.6L136.838 266L123 231ZM156 231L136.2 280H130.026L138.613 261.1L149.968 231H156Z" fill="white"/>
<path d="M162 230.706H167.789V266H162V230.706ZM180.237 230C182.166 230 183.903 230.282 185.447 230.847C186.991 231.412 188.294 232.235 189.355 233.318C190.416 234.4 191.237 235.718 191.815 237.271C192.395 238.776 192.684 240.494 192.684 242.423V266H186.895V243.835C186.895 241.106 186.243 239.059 184.94 237.694C183.638 236.329 181.684 235.647 179.079 235.647C177.101 235.647 175.267 236.141 173.579 237.129C171.89 238.118 170.491 239.482 169.382 241.224C168.32 242.918 167.669 244.894 167.427 247.153L167.355 243.059C167.596 241.082 168.079 239.294 168.802 237.694C169.574 236.094 170.515 234.729 171.625 233.6C172.783 232.424 174.085 231.529 175.533 230.918C177.028 230.306 178.596 230 180.237 230ZM204.552 230C206.482 230 208.219 230.282 209.763 230.847C211.307 231.412 212.609 232.235 213.671 233.318C214.732 234.4 215.553 235.718 216.131 237.271C216.71 238.776 217 240.494 217 242.423V266H211.211V243.835C211.211 241.106 210.559 239.059 209.256 237.694C207.954 236.329 206 235.647 203.394 235.647C201.417 235.647 199.583 236.141 197.894 237.129C196.206 238.118 194.807 239.482 193.697 241.224C192.636 242.918 191.985 244.894 191.743 247.153L191.671 243.059C191.912 241.082 192.395 239.294 193.118 237.694C193.89 236.094 194.831 234.729 195.941 233.6C197.099 232.424 198.401 231.529 199.849 230.918C201.344 230.306 202.912 230 204.552 230Z" fill="white"/>
<path d="M253.355 254.833H258.726C258.344 257.157 257.485 259.244 256.148 261.094C254.859 262.897 253.14 264.343 250.992 265.435C248.891 266.478 246.457 267 243.687 267C240.346 267 237.338 266.217 234.665 264.652C231.991 263.039 229.867 260.857 228.291 258.106C226.764 255.307 226 252.129 226 248.571C226 245.013 226.74 241.835 228.22 239.036C229.748 236.238 231.824 234.032 234.45 232.419C237.075 230.806 240.036 230 243.329 230C246.814 230 249.75 230.783 252.137 232.348C254.572 233.866 256.362 236.119 257.508 239.108C258.701 242.049 259.179 245.677 258.94 249.994H231.729C231.967 252.318 232.612 254.358 233.662 256.113C234.713 257.869 236.097 259.244 237.815 260.24C239.534 261.189 241.491 261.663 243.687 261.663C246.122 261.663 248.175 261.047 249.846 259.813C251.565 258.533 252.734 256.872 253.355 254.833ZM243.544 235.336C240.585 235.336 238.102 236.19 236.097 237.898C234.092 239.606 232.755 241.93 232.087 244.871H253.068C252.877 241.74 251.851 239.369 249.989 237.756C248.175 236.143 246.026 235.336 243.544 235.336Z" fill="white"/>
<path d="M265 230.706H270.849V266H265V230.706ZM283.425 230C285.374 230 287.129 230.282 288.689 230.847C290.249 231.412 291.565 232.235 292.637 233.318C293.71 234.4 294.538 235.718 295.123 237.271C295.708 238.776 296 240.494 296 242.423V266H290.151V243.835C290.151 241.106 289.493 239.059 288.177 237.694C286.861 236.329 284.887 235.647 282.255 235.647C280.256 235.647 278.404 236.141 276.698 237.129C274.992 238.118 273.579 239.482 272.458 241.224C271.385 242.918 270.727 244.894 270.484 247.153L270.411 243.059C270.654 241.082 271.141 239.294 271.873 237.694C272.653 236.094 273.603 234.729 274.724 233.6C275.894 232.424 277.21 231.529 278.673 230.918C280.183 230.306 281.767 230 283.425 230Z" fill="white"/>
<path d="M304 229.492H324V234.968H304V229.492ZM311.279 220H316.721V266H311.279V220Z" fill="white"/>
<path d="M328.05 254.833H333.543C333.692 256.872 334.484 258.533 335.919 259.813C337.404 261.094 339.532 261.735 342.304 261.735C343.987 261.735 345.299 261.521 346.239 261.094C347.229 260.667 347.947 260.098 348.392 259.386C348.838 258.627 349.061 257.797 349.061 256.896C349.061 255.805 348.764 254.951 348.169 254.335C347.625 253.67 346.858 253.125 345.868 252.698C344.927 252.271 343.839 251.868 342.601 251.488C341.166 250.967 339.681 250.421 338.146 249.852C336.662 249.235 335.251 248.524 333.915 247.717C332.628 246.863 331.589 245.844 330.797 244.658C330.004 243.424 329.609 241.954 329.609 240.246C329.609 238.823 329.906 237.495 330.499 236.262C331.094 234.981 331.935 233.89 333.024 232.988C334.162 232.04 335.474 231.304 336.959 230.783C338.493 230.261 340.176 230 342.007 230C344.482 230 346.561 230.474 348.244 231.423C349.976 232.372 351.288 233.724 352.179 235.479C353.119 237.186 353.614 239.179 353.664 241.456H348.54C348.194 239.321 347.476 237.779 346.388 236.831C345.348 235.835 343.839 235.336 341.859 235.336C339.829 235.336 338.27 235.763 337.182 236.617C336.092 237.471 335.548 238.61 335.548 240.033C335.548 241.076 335.944 241.954 336.736 242.665C337.528 243.329 338.543 243.946 339.78 244.515C341.067 245.037 342.428 245.583 343.863 246.152C345.299 246.721 346.685 247.29 348.021 247.86C349.357 248.429 350.545 249.093 351.585 249.852C352.624 250.611 353.441 251.56 354.035 252.698C354.678 253.789 355 255.165 355 256.825C355 258.817 354.505 260.596 353.515 262.161C352.575 263.679 351.164 264.865 349.283 265.719C347.452 266.573 345.2 267 342.527 267C340.102 267 338.023 266.715 336.29 266.146C334.607 265.529 333.197 264.747 332.058 263.798C330.92 262.802 330.029 261.758 329.386 260.667C328.792 259.576 328.396 258.509 328.198 257.465C328 256.422 327.95 255.544 328.05 254.833Z" fill="white"/>
</g>
<defs>
<linearGradient id="paint0_linear_1_2" x1="200" y1="0" x2="200" y2="400" gradientUnits="userSpaceOnUse">
<stop stop-color="#64ACFF"/>
<stop offset="0.9999" stop-color="#3C8AE4" stop-opacity="0.875"/>
<stop offset="1" stop-color="#247BDF" stop-opacity="0"/>
</linearGradient>
<linearGradient id="paint1_linear_1_2" x1="87.5" y1="122" x2="87.5" y2="203" gradientUnits="userSpaceOnUse">
<stop stop-color="#64ACFF"/>
<stop offset="0.9999" stop-color="#3C8AE4" stop-opacity="0.875"/>
<stop offset="1" stop-color="#247BDF" stop-opacity="0"/>
</linearGradient>
<linearGradient id="paint2_linear_1_2" x1="178.5" y1="121" x2="178.5" y2="204" gradientUnits="userSpaceOnUse">
<stop stop-color="#64ACFF"/>
<stop offset="0.9999" stop-color="#3C8AE4" stop-opacity="0.875"/>
<stop offset="1" stop-color="#247BDF" stop-opacity="0"/>
</linearGradient>
<linearGradient id="paint3_linear_1_2" x1="285" y1="122" x2="285" y2="203" gradientUnits="userSpaceOnUse">
<stop stop-color="#64ACFF"/>
<stop offset="0.9999" stop-color="#3C8AE4" stop-opacity="0.875"/>
<stop offset="1" stop-color="#247BDF" stop-opacity="0"/>
</linearGradient>
<clipPath id="clip0_1_2">
<rect width="400" height="400" fill="white"/>
</clipPath>
</defs>
</svg>
