<svg width="188" height="188" viewBox="0 0 188 188" fill="none" xmlns="http://www.w3.org/2000/svg">
<path d="M61.3112 13.2652C73.8542 9.85011 86.4851 7 93.692 7C100.899 7 113.518 9.86267 126.061 13.2527C137.097 16.2911 148.045 19.5932 158.918 23.159C161.266 23.9374 163.338 25.3562 164.907 27.2647C166.477 29.1731 167.481 31.4833 167.808 33.9317V33.9442C174.462 83.9404 159.044 120.791 140.449 145.111L140.437 145.124V145.136C132.552 155.532 123.16 164.698 112.551 172.306C108.973 174.88 105.193 177.14 101.225 179.061C98.099 180.53 95.4372 181.372 93.6795 181.372C91.9091 181.372 89.2348 180.53 86.1085 179.049C82.9068 177.542 79.0397 175.295 74.7959 172.294C64.199 164.685 54.8075 155.52 46.9351 145.124V145.111V145.099C28.3403 120.778 12.9221 83.9279 19.5766 33.9317V33.9191C19.903 31.4708 20.9075 29.1606 22.4769 27.2647C24.0464 25.3688 26.1306 23.9374 28.4659 23.1716C35.9616 20.7107 48.7055 16.6678 61.3112 13.2652Z" fill="#2B2B36" stroke="url(#paint0_linear_12568_68700)" stroke-width="7.2" stroke-linejoin="round"/>
<path d="M46.875 87.6334H51.3124V68.4103H51.3872L63.7146 87.6458H69.3487V62.561H64.9113V81.1841H64.8489L52.7459 62.561H46.8874V87.6334H46.875ZM76.4411 80.5591C77.0518 82.109 77.9867 83.5213 79.1708 84.6837C80.3549 85.8461 81.7759 86.7585 83.3339 87.3459C85.0292 87.9833 86.824 88.3083 88.6314 88.2833C90.4637 88.2833 92.2835 87.9458 93.9912 87.2709C95.5617 86.6585 96.9827 85.7336 98.1918 84.5587C99.3884 83.3838 100.323 81.9715 100.946 80.4092C101.619 78.7093 101.944 76.8845 101.906 75.0596C101.931 73.1974 101.595 71.335 100.922 69.5977C100.298 68.0229 99.3634 66.5981 98.1668 65.4231C96.9702 64.2483 95.5368 63.3484 93.9662 62.786C92.2461 62.1611 90.4388 61.8735 88.6065 61.9235C86.7992 61.9111 85.0042 62.2235 83.309 62.8609C81.7509 63.4484 80.3425 64.3608 79.1583 65.5356C77.9617 66.7356 77.0269 68.1604 76.4037 69.7352C75.743 71.4851 75.4314 73.3473 75.4812 75.2097C75.4563 77.0345 75.7928 78.8593 76.4659 80.5591H76.4411ZM80.7164 71.4225C81.1153 70.3602 81.7011 69.3977 82.4615 68.5728C83.2218 67.7605 84.1317 67.098 85.1663 66.6606C86.2756 66.1856 87.4721 65.9481 88.6812 65.9732C89.8903 65.9606 91.0869 66.1981 92.2087 66.6606C93.2309 67.098 94.1656 67.7479 94.926 68.5728C95.6864 69.3977 96.2846 70.3726 96.6711 71.4225C97.0824 72.5474 97.2818 73.7223 97.2694 74.9222C97.2818 76.1846 97.07 77.447 96.6461 78.6468C96.2598 79.7342 95.6739 80.7341 94.9011 81.584C94.1408 82.4215 93.2184 83.0839 92.1839 83.5338C91.0744 84.0213 89.8779 84.2587 88.6564 84.2463C87.4473 84.2587 86.2507 84.0213 85.1538 83.5338C84.1317 83.0839 83.2093 82.4089 82.4615 81.584C81.6887 80.7341 81.1028 79.7342 80.7164 78.6468C80.2926 77.447 80.0931 76.197 80.1057 74.9222C80.0931 73.7223 80.305 72.535 80.7288 71.4101L80.7164 71.4225ZM112.563 87.6334H116.651L122.436 68.5354H122.51L128.307 87.6334H132.532L139.786 62.561H135.274L130.388 80.6341H130.313L124.804 62.561H120.429L114.819 80.6341H114.745L110.058 62.561H105.172L112.563 87.6334Z" fill="#00C26F"/>
<path d="M51.5966 102.685L54.703 113.406H54.7661L58.3651 102.685H60.3224L63.9213 113.406H63.9843L67.0908 102.685H69.3385L65.0829 115.882H62.9615L59.4005 105.049H59.3374L55.7764 115.882H53.6423L49.3867 102.685H51.5966Z" fill="white"/>
<path d="M82.1711 108.974C81.6913 108.974 81.0852 108.999 80.3527 109.06C79.6456 109.098 78.9512 109.209 78.2818 109.394C77.6252 109.568 77.0696 109.84 76.5897 110.212C76.1225 110.583 75.8953 111.103 75.8953 111.76C75.8953 112.193 75.9836 112.565 76.1477 112.886C76.3372 113.184 76.5897 113.444 76.8928 113.653C77.1959 113.839 77.5368 113.988 77.903 114.075C78.2818 114.149 78.6733 114.186 79.0521 114.186C79.7467 114.186 80.3402 114.075 80.8326 113.852C81.3504 113.629 81.7797 113.319 82.1207 112.948C82.4616 112.552 82.7142 112.106 82.8657 111.598C83.0425 111.066 83.1182 110.522 83.1182 109.939V108.986H82.1711V108.974ZM83.1561 107.451V107.104C83.1561 104.827 82.007 103.687 79.7088 103.687C78.1303 103.687 76.7665 104.208 75.5922 105.235L74.443 103.91C75.7058 102.634 77.5999 101.991 80.1381 101.991C80.7948 101.991 81.4135 102.09 82.007 102.275C82.6258 102.461 83.1434 102.759 83.5855 103.154C84.0275 103.526 84.3811 104.009 84.6462 104.591C84.9114 105.173 85.0503 105.866 85.0503 106.671V112.565C85.0503 113.072 85.0629 113.604 85.1134 114.173C85.1766 114.718 85.227 115.176 85.2902 115.523H83.4465C83.3834 115.201 83.3456 114.855 83.3077 114.483C83.295 114.111 83.2824 113.74 83.2824 113.381H83.2193C82.6637 114.261 82.007 114.904 81.2368 115.3C80.4917 115.672 79.5699 115.869 78.4713 115.869C77.8778 115.869 77.3095 115.783 76.7412 115.622C76.1857 115.474 75.6931 115.239 75.2386 114.916C74.8219 114.582 74.4683 114.173 74.2031 113.703C73.9505 113.22 73.8242 112.651 73.8242 112.007C73.8242 110.93 74.1021 110.1 74.6577 109.494C75.2386 108.875 75.9457 108.416 76.7792 108.12C77.6378 107.822 78.547 107.637 79.5067 107.55C80.479 107.476 81.3756 107.438 82.1838 107.438L83.1561 107.451Z" fill="white"/>
<path d="M94.4927 115.882H92.5859V94.5625H94.4927V115.882Z" fill="white"/>
<path d="M104.141 115.882H102.234V94.5625H104.141V115.882Z" fill="white"/>
<path d="M121.921 107.922C121.921 106.658 121.542 105.643 120.772 104.876C120.001 104.083 118.929 103.687 117.552 103.687C116.933 103.687 116.34 103.811 115.771 104.058C115.191 104.282 114.685 104.591 114.243 104.987C113.826 105.383 113.474 105.829 113.209 106.337C112.955 106.844 112.829 107.364 112.829 107.922H121.921ZM112.779 109.457C112.842 110.112 113.007 110.731 113.271 111.327C113.536 111.908 113.89 112.415 114.332 112.848C114.774 113.258 115.279 113.592 115.86 113.839C116.44 114.088 117.059 114.211 117.729 114.211C118.752 114.211 119.611 113.988 120.343 113.543C121.087 113.072 121.656 112.539 122.035 111.933L123.499 113.121C122.692 114.124 121.808 114.83 120.822 115.263C119.863 115.696 118.827 115.907 117.716 115.907C116.719 115.907 115.784 115.734 114.925 115.4C114.08 115.041 113.359 114.557 112.74 113.926C112.123 113.307 111.642 112.577 111.276 111.722C110.935 110.881 110.758 109.952 110.758 108.961C110.758 107.958 110.935 107.043 111.276 106.2C111.617 105.359 112.096 104.616 112.715 103.997C113.334 103.378 114.054 102.894 114.875 102.56C115.696 102.201 116.592 102.028 117.552 102.028C118.575 102.028 119.484 102.201 120.28 102.56C121.087 102.919 121.756 103.403 122.288 103.997C122.843 104.578 123.259 105.272 123.551 106.077C123.841 106.869 123.98 107.711 123.98 108.615V109.457H112.779Z" fill="white"/>
<path d="M137.138 104.033H133.262V111.821C133.262 112.305 133.313 112.713 133.413 113.034C133.515 113.332 133.64 113.567 133.817 113.74C133.994 113.913 134.197 114.037 134.424 114.111C134.676 114.173 134.941 114.198 135.231 114.198C135.56 114.198 135.888 114.149 136.242 114.062C136.583 113.963 136.899 113.839 137.189 113.691L137.278 115.412C136.571 115.734 135.712 115.894 134.714 115.894C134.347 115.894 133.969 115.845 133.565 115.759C133.186 115.66 132.833 115.486 132.504 115.226C132.176 114.966 131.91 114.607 131.696 114.149C131.481 113.703 131.38 113.108 131.38 112.379V104.058H128.539V102.362H131.38V98.6357H133.275V102.362H137.151L137.138 104.033Z" fill="white"/>
<defs>
<linearGradient id="paint0_linear_12568_68700" x1="93.6867" y1="2.47711" x2="93.6867" y2="185.873" gradientUnits="userSpaceOnUse">
<stop stop-color="#FB9600"/>
<stop offset="0.25" stop-color="#00C26F"/>
<stop offset="0.5052" stop-color="#6696D6"/>
<stop offset="0.776" stop-color="#F28984"/>
<stop offset="0.9999" stop-color="#5FCEF0"/>
<stop offset="1" stop-color="#5FCEF0"/>
</linearGradient>
</defs>
</svg>
