<svg width="46" height="37" viewBox="0 0 46 37" fill="none" xmlns="http://www.w3.org/2000/svg">
<path d="M14.9219 33.8776C10.3998 33.8776 6.86321 32.95 4.31225 31.0948C1.76129 29.2395 0.40851 26.6306 0.253906 23.268H8.48655C8.64115 24.2729 9.24024 25.1812 10.2838 25.9928C11.366 26.7659 12.9701 27.1524 15.0959 27.1524C16.7192 27.1524 18.0526 26.8818 19.0962 26.3407C20.1784 25.7609 20.7196 24.9493 20.7196 23.9057C20.7196 22.9781 20.3137 22.2437 19.5021 21.7026C18.6904 21.1228 17.241 20.717 15.1538 20.4851L12.6608 20.2532C8.83441 19.8667 5.95492 18.8038 4.02237 17.0645C2.12848 15.3252 1.18153 13.1028 1.18153 10.3972C1.18153 8.15545 1.74197 6.28088 2.86284 4.77349C3.98372 3.26611 5.52976 2.1259 7.50095 1.35289C9.5108 0.579868 11.7912 0.193359 14.3422 0.193359C18.4392 0.193359 21.7438 1.10166 24.2561 2.91825C26.7684 4.69619 28.0826 7.2858 28.1985 10.6871H19.9659C19.8113 9.64351 19.2702 8.77386 18.3425 8.07814C17.4149 7.34378 16.0428 6.97659 14.2262 6.97659C12.7961 6.97659 11.6559 7.24715 10.8056 7.78826C9.95528 8.32938 9.53012 9.06374 9.53012 9.99137C9.53012 10.8803 9.89731 11.5567 10.6317 12.0205C11.366 12.4844 12.5642 12.8129 14.2262 13.0061L16.7192 13.238C20.6229 13.6632 23.657 14.7454 25.8215 16.4847C27.9859 18.224 29.0682 20.5624 29.0682 23.4999C29.0682 25.6257 28.4884 27.4809 27.3289 29.0656C26.1693 30.6116 24.5267 31.8098 22.4009 32.6601C20.2751 33.4718 17.7821 33.8776 14.9219 33.8776Z" fill="white"/>
<path d="M33.1759 32.892V22.5143H43.3797V32.892H33.1759Z" fill="white"/>
<path fill-rule="evenodd" clip-rule="evenodd" d="M0 23.0746H10.8096L10.9861 24.2217C11.0731 24.787 11.4152 25.4079 12.2541 26.0667C13.0092 26.5959 14.278 26.959 16.2584 26.959C17.7381 26.959 18.8365 26.7116 19.6279 26.3034C20.3573 25.9104 20.5293 25.5106 20.5293 25.0651C20.5293 24.617 20.3727 24.2933 19.9142 23.9876L19.896 23.9755L19.8783 23.9628C19.3707 23.6003 18.2302 23.2192 16.1787 22.9903L13.6927 22.7591L13.6874 22.7585C9.70558 22.3563 6.50651 21.2334 4.27991 19.2294L4.27485 19.2249L4.26984 19.2203C2.08098 17.2101 0.991248 14.6187 0.991248 11.5566C0.991248 9.08195 1.61377 6.90897 2.93979 5.12571C4.23029 3.39021 5.99352 2.10626 8.16957 1.2529L8.1737 1.25129L8.17783 1.2497C10.3684 0.407177 12.8177 0 15.5047 0C19.7927 0 23.3996 0.95053 26.2058 2.97746C29.0993 5.02774 30.5845 8.03048 30.713 11.8004L30.7607 13.1993H19.9612L19.7902 12.0448C19.6932 11.3902 19.3669 10.8249 18.6934 10.3198L18.6792 10.3092L18.6654 10.2982C18.0749 9.83074 17.0552 9.4888 15.3887 9.4888C14.1131 9.4888 13.2547 9.73239 12.6944 10.089C12.1939 10.4074 12.0454 10.7315 12.0454 11.1508C12.0454 11.5889 12.1857 11.8272 12.5166 12.0362C12.9835 12.3311 13.9254 12.6323 15.5298 12.8201L18.0176 13.0515L18.0282 13.0526C22.0869 13.4947 25.3987 14.6348 27.8314 16.5896C30.3361 18.6024 31.5834 21.3392 31.5834 24.6593C31.5834 27.0472 30.9265 29.1879 29.5831 31.0238L29.5784 31.0303L29.5736 31.0367C28.2397 32.8152 26.379 34.1503 24.0658 35.0756L24.0559 35.0795L24.0459 35.0833C21.7321 35.9668 19.0688 36.3898 16.0844 36.3898C11.3959 36.3898 7.5421 35.4304 4.67909 33.3482C1.7709 31.2332 0.237073 28.2309 0.0650535 24.4895L0 23.0746ZM15.3887 14.1656C13.7267 13.9723 12.5285 13.6438 11.7942 13.18C11.0598 12.7161 10.6926 12.0398 10.6926 11.1508C10.6926 10.2232 11.1178 9.4888 11.9681 8.94768C12.8184 8.40657 13.9586 8.13602 15.3887 8.13602C17.2053 8.13602 18.5774 8.5032 19.505 9.23757C20.4327 9.93328 20.9738 10.8029 21.1284 11.8465H29.361C29.3451 11.3803 29.3067 10.9294 29.2458 10.4937C28.8623 7.75062 27.5866 5.61193 25.4186 4.07767C22.9063 2.26108 19.6017 1.35278 15.5047 1.35278C12.9537 1.35278 10.6733 1.73929 8.66345 2.51231C6.69226 3.28533 5.14622 4.42553 4.02534 5.93292C2.90447 7.4403 2.34403 9.31487 2.34403 11.5566C2.34403 14.2622 3.29098 16.4846 5.18487 18.2239C7.11742 19.9632 9.99691 21.0261 13.8233 21.4126L16.3163 21.6445C18.4035 21.8764 19.8529 22.2823 20.6646 22.862C21.4762 23.4031 21.8821 24.1375 21.8821 25.0651C21.8821 26.1087 21.341 26.9204 20.2587 27.5001C19.2152 28.0412 17.8817 28.3118 16.2584 28.3118C14.1326 28.3118 12.5285 27.9253 11.4463 27.1523C10.4027 26.3406 9.80366 25.4323 9.64905 24.4274H1.41641C1.4378 24.8927 1.48215 25.3437 1.54944 25.7802C1.96839 28.4977 3.27683 30.6557 5.47475 32.2542C8.02571 34.1094 11.5623 35.0371 16.0844 35.0371C18.9446 35.0371 21.4376 34.6312 23.5634 33.8195C25.6892 32.9692 27.3318 31.7711 28.4914 30.225C29.6509 28.6403 30.2307 26.7851 30.2307 24.6593C30.2307 21.7218 29.1484 19.3834 26.984 17.6441C24.8195 15.9048 21.7854 14.8226 17.8817 14.3975L15.3887 14.1656ZM32.9856 35.4042V22.3209H45.895V35.4042H32.9856ZM34.3384 34.0515H44.5422V23.6737H34.3384V34.0515Z" fill="white"/>
</svg>
