<svg width="138" height="134" viewBox="0 0 138 134" fill="none" xmlns="http://www.w3.org/2000/svg">
<path d="M59.7992 68.4439L62.2145 66.0157V57.463L59.7992 55.0348H56.4663L54.1645 57.463V66.0157L56.4663 68.4439H59.7992Z" fill="black"/>
<path d="M81.5369 68.3298L83.8355 65.9016V57.463L81.5369 55.0348H78.2008L75.7855 57.463V65.9016L78.2008 68.3298H81.5369Z" fill="black"/>
<path d="M135.932 49.1385L132.596 48.6757L120.636 57.9226L120.175 61.2765L119.639 61.7393H116.382L113.967 64.1676V67.4042L116.152 69.601V70.7581L113.85 73.1863L113.967 88.3327L116.382 90.6436L116.496 91.8007L116.559 91.8514L114.311 94.1116V97.4655L113.276 98.5053H96.3692L95.335 97.4655V80.4678L94.8746 80.0082L92.9197 78.0428V76.8857L92.7494 76.7114L95.1048 74.3402V71.1036L94.9282 70.9261L95.335 70.8722L96.0255 70.0638L99.3615 69.7183L107.411 59.3111L107.077 56.0618L107.872 55.2662L107.847 54.9492L107.872 54.9175L107.771 53.9791L107.755 53.7604L110.17 51.3353L109.94 31.9094L107.525 29.5985V29.3671L107.642 28.3273L106.721 27.1703L107.065 23.8164L98.9012 13.4124L95.5651 13.0637L95.0732 12.4043L95.1048 12.3726V9.13283L92.8061 6.7046H89.5868L88.4359 5.78212V2.42824L85.9039 0H52.0961L49.5641 2.42824V5.78212L48.4164 6.7046H45.1938L42.8952 9.13283V12.3726L42.9267 12.4043L42.4349 13.0637L39.0988 13.4124L30.9354 23.8164L31.2791 27.1703L30.3615 28.3273L30.475 29.3671V29.5985L28.0597 31.9094L27.8295 51.3353L30.2448 53.7604L30.1313 55.2662L31.03 56.1664L30.7052 59.3111L38.7552 69.7183L42.0912 70.0638L42.7817 70.8722L43.0781 70.9134L42.8952 71.1036V74.3402L45.1938 76.7684L45.0803 76.8857V78.0428L43.1254 80.0082L42.665 80.4678V97.4655L41.6308 98.5053H24.7237L23.6895 97.4655V94.1116L21.3909 91.8007L21.5044 90.6436L23.9197 88.3327L24.0363 73.1863L21.7345 70.7581L21.8386 69.6137L24.0363 67.4042V64.1676L21.621 61.7393H18.3607L17.8247 61.2765L17.3643 57.9226L5.40447 48.6757L2.06845 49.1385L0 51.795L0.460357 55.1489L12.4202 64.399L15.7562 63.9362L16.0085 64.1422L15.9864 64.1676V67.4042L18.285 69.8324H18.4017V70.5266L15.9864 72.9549L15.7562 88.1013L18.0548 90.5295V91.6834H17.9413L15.6395 94.1116V97.4655L17.9413 99.7764H21.2742L22.3116 100.819V104.17L24.6102 106.484H41.5141L43.9294 104.17V100.819L44.9668 99.7764H48.4164L50.715 97.4655V80.4678L48.6465 78.0428L48.5299 76.7684L50.9452 74.3402V71.1036L48.5299 68.6754H45.2884L44.7366 67.9811L45.0803 64.6304L36.9137 54.2232L33.5809 53.8777L33.5714 53.865L33.5809 53.7604L35.9962 51.4495L36.1097 32.1409L33.811 29.7126L33.8426 29.3481L33.9246 29.2498L37.2606 28.9043L45.3105 18.5002L44.9668 15.1464L45.2348 14.7977H48.5299L50.9452 12.3726V9.13283L52.0961 8.21036H85.9039L87.0548 9.13283V12.3726L89.4701 14.7977H92.7683L93.0363 15.1464L92.6895 18.5002L100.739 28.9043L104.075 29.2498L104.157 29.3481L104.192 29.7126L101.89 32.1409L102.007 51.4495L104.419 53.7604L104.432 53.8872L101.2 54.2232L93.0363 64.6304L93.38 67.9811L92.7683 68.7546L92.6895 68.6754H89.3566L87.0548 71.1036V74.3402L89.3566 76.7684H89.4701L89.3566 78.0428L87.4017 80.4678V97.4655L89.7003 99.7764H93.0363L94.0706 100.819V104.17L96.4859 106.484H113.39L115.692 104.17V100.819L116.726 99.7764H120.062L122.36 97.4655V94.1116L120.062 91.6834H119.832V90.5295L122.13 88.1013L121.9 72.9549L119.485 70.5266V69.8324H119.715L122.017 67.4042V64.1676L121.992 64.1422L122.247 63.9362L125.58 64.399L137.54 55.1489L138 51.795L135.932 49.1385Z" fill="black"/>
<path d="M58.5347 99.0822L56.1194 101.51V104.864L55.0852 105.904H51.7492L35.6493 121.745V124.981L34.6151 126.021H17.7111L16.6738 124.981V121.627L14.2585 119.202H10.9256L8.62382 121.627V124.981L10.9256 127.295H14.2585L15.2958 128.335V131.689L17.5945 134H34.5016L36.9137 131.689V128.335L37.9479 127.295L38.0646 127.41H41.4006L57.5005 111.569V108.218L58.4212 107.175H61.6406L64.2861 104.864V101.51L61.8708 99.0822H58.5347Z" fill="black"/>
<path d="M123.972 119.202L121.556 121.627V124.981L120.522 126.021H103.615L102.581 124.981V121.745L86.481 105.904H83.145L82.1107 104.864V101.51L79.6954 99.0822H76.3594L73.9441 101.51V104.864L76.5896 107.175H79.8121L80.7297 108.218V111.569L96.8296 127.41H100.166L100.282 127.295L101.316 128.335V131.689L103.732 134H120.636L122.934 131.689V128.335L123.972 127.295H127.305L129.606 124.981V121.627L127.305 119.202H123.972Z" fill="black"/>
</svg>
