<?xml version="1.0" encoding="utf-8"?>
<svg width="131" height="131" viewBox="0 0 131 131" fill="none" xmlns="http://www.w3.org/2000/svg">
<circle cx="65.5" cy="65.5" r="65.5" fill="#4AB6A1"/>
<path d="M88.3104 57.1873L102.099 65.7504L88.3104 74.3283C89.3127 71.6603 89.9024 68.7712 89.9024 65.7504C89.9024 62.7286 89.3127 59.8553 88.3104 57.1873ZM42.7047 57.1873C41.7023 59.8553 41.1127 62.7434 41.1127 65.7504C41.1127 68.7712 41.6876 71.6455 42.7047 74.3135L28.9161 65.7504L42.7047 57.1873ZM65.5081 46.4584C76.1864 46.4584 84.7759 55.0647 84.7759 65.7504C84.7759 76.4351 76.1727 85.0277 65.5081 85.0277C54.8276 85.0277 46.2245 76.4214 46.2245 65.7504C46.2245 55.0805 54.8423 46.4584 65.5081 46.4584ZM65.5081 37.0846L63.1212 38.5586L53.6778 44.4242C53.0008 44.8075 52.3533 45.2055 51.7195 45.6477L19.3853 65.7504L51.7195 85.8384C52.367 86.2806 53.0303 86.6934 53.722 87.0766L65.5217 94.4016L77.1298 87.1798C77.1593 87.1651 77.1888 87.1356 77.2182 87.1208C77.9395 86.7229 78.647 86.2806 79.3251 85.809L111.644 65.7504L79.3103 45.6624C78.6618 45.2202 77.9995 44.7927 77.3067 44.4095L65.5081 37.0846Z" fill="white"/>
<path d="M116.387 70.3047C114.9 70.3194 113.279 70.7174 111.644 71.6755L70.2794 97.3638L70.6931 97.6144C71.8555 98.2925 73.3875 98.7642 75.0826 98.7336C76.5703 98.72 78.1907 98.322 79.8248 97.3638L87.9563 92.3079L121.175 71.6608L120.748 71.3955C119.584 70.7469 118.081 70.2899 116.387 70.3047Z" fill="white"/>
<path d="M55.932 32.7514C54.4443 32.7661 52.8239 33.1641 51.1888 34.1222L43.0573 39.1771L9.8251 59.8253C11.9751 61.2698 15.6139 62.0068 19.3695 59.8253L60.7353 34.137L60.3226 33.8864C59.1581 33.1936 57.6409 32.7219 55.932 32.7514Z" fill="white"/>
</svg>
