<svg id="Layer_1" data-name="Layer 1" xmlns="http://www.w3.org/2000/svg" viewBox="0 0 70 70"><defs><style>.cls-1{fill:#272b30;}.cls-2,.cls-4{fill:none;}.cls-2{stroke:#fff;stroke-miterlimit:10;stroke-opacity:0;stroke-width:0.25px;}.cls-3{fill:#fff;}</style></defs><title>Witnet</title><circle class="cls-1" cx="35" cy="35" r="35"/><rect class="cls-2" x="4.34" y="5.08" width="60.669" height="60.669"/><path class="cls-3" d="M47.045,30.258l7.449,4.617-7.449,4.618a13.082,13.082,0,0,0,0-9.235m-24.639,0a12.925,12.925,0,0,0-.033,9.269l-7.416-4.618Zm12.3-5.8A10.415,10.415,0,1,1,24.294,34.875,10.4,10.4,0,0,1,34.709,24.461m0-5.056-1.281.809-5.09,3.168a11.087,11.087,0,0,0-1.044.674L9.8,34.909,27.26,45.762a11.639,11.639,0,0,0,1.078.674l6.371,3.944,6.269-3.91.033-.034a7.947,7.947,0,0,0,1.146-.708l17.46-10.819L42.157,24.056a11.508,11.508,0,0,0-1.078-.674Z" transform="translate(0 0)"/><rect class="cls-4" x="9.733" y="18.764" width="49.985" height="32.02"/><path class="cls-3" d="M62.178,37.37a5.15,5.15,0,0,0-2.561.741L37.27,52l.236.134a4.708,4.708,0,0,0,2.36.607A5.153,5.153,0,0,0,42.427,52l4.382-2.731L64.74,38.111l-.236-.135a4.041,4.041,0,0,0-2.326-.606" transform="translate(0 0)"/><rect class="cls-4" x="37.068" y="36.729" width="28.11" height="16.414"/><path class="cls-3" d="M29.552,17.079a5.148,5.148,0,0,0-2.562.742l-4.381,2.73L4.644,31.707a4.838,4.838,0,0,0,5.157,0L32.147,17.821l-.236-.135a4.38,4.38,0,0,0-2.359-.607" transform="translate(0 0)"/><rect class="cls-4" x="4.273" y="16.439" width="28.11" height="16.414"/></svg>