<svg viewBox="0 0 14 14" xmlns="http://www.w3.org/2000/svg">
<path id="Vector" d="M1.55556 0C0.696422 0 0 0.696111 0 1.55556V4.66667C0 5.52611 0.696422 6.22222 1.55556 6.22222H4.66667C5.5258 6.22222 6.22222 5.52611 6.22222 4.66667V1.55556C6.22222 0.696111 5.5258 0 4.66667 0H1.55556ZM9.33333 0C8.4742 0 7.77778 0.696111 7.77778 1.55556V4.66667C7.77778 5.52611 8.4742 6.22222 9.33333 6.22222H12.4444C13.3036 6.22222 14 5.52611 14 4.66667V1.55556C14 0.696111 13.3036 0 12.4444 0H9.33333ZM1.55556 7.77778C0.696422 7.77778 0 8.47389 0 9.33333V12.4444C0 13.3039 0.696422 14 1.55556 14H4.66667C5.5258 14 6.22222 13.3039 6.22222 12.4444V9.33333C6.22222 8.47389 5.5258 7.77778 4.66667 7.77778H1.55556ZM9.33333 7.77778C8.4742 7.77778 7.77778 8.47389 7.77778 9.33333V12.4444C7.77778 13.3039 8.4742 14 9.33333 14H12.4444C13.3036 14 14 13.3039 14 12.4444V9.33333C14 8.47389 13.3036 7.77778 12.4444 7.77778H9.33333Z" />
</svg>
