<?xml version="1.0" encoding="utf-8"?>
<!-- Generator: Adobe Illustrator 25.4.1, SVG Export Plug-In . SVG Version: 6.00 Build 0)  -->
<svg version="1.1" id="Layer_1" xmlns="http://www.w3.org/2000/svg" xmlns:xlink="http://www.w3.org/1999/xlink" x="0px" y="0px"
	 viewBox="0 0 120.2 120.2" style="enable-background:new 0 0 120.2 120.2;" xml:space="preserve">
<style type="text/css">
	.st0{fill:#CCFF00;}
	.st1{fill:#1CD8D2;}
	.st2{fill:#A4EFED;}
	.st3{fill:none;stroke:#EBFF99;stroke-width:3;stroke-linecap:round;stroke-miterlimit:10;}
</style>
<circle cx="60.1" cy="60.1" r="60.1"/>
<path class="st0" d="M62.7,51.2c-5.8,0-11.3,1.8-15.8,4.7l1.2,7.3c3.9-3.4,9-5.5,14.6-5.5c12.2,0,22.2,10,22.2,22.2
	s-10,22.3-22.2,22.3c-12.2,0-22.2-10-22.2-22.3c0-1.7,0.2-3.3,0.5-4.8l-2-11.6C35.9,68.3,34,73.9,34,80c0,15.9,12.9,28.8,28.7,28.8
	s28.7-13,28.7-28.8S78.6,51.2,62.7,51.2z"/>
<g>
	<g>
		<path class="st1" d="M60.8,96.4c2.2,0,3.9-1.8,3.9-3.9c0-2.2-1.8-3.9-3.9-3.9s-3.9,1.8-3.9,3.9C56.9,94.7,58.6,96.4,60.8,96.4z"/>
		<path class="st1" d="M71.6,92.5c2.2,0,3.9-1.8,3.9-3.9s-1.8-3.9-3.9-3.9s-3.9,1.8-3.9,3.9C67.7,90.7,69.4,92.5,71.6,92.5z"/>
		<path class="st1" d="M62.3,84.6c2.2,0,3.9-1.8,3.9-3.9c0-2.2-1.8-3.9-3.9-3.9c-2.2,0-3.9,1.8-3.9,3.9
			C58.4,82.9,60.1,84.6,62.3,84.6z"/>
		<path class="st1" d="M49.9,88.6c2.2,0,3.9-1.8,3.9-3.9c0-2.2-1.8-3.9-3.9-3.9c-2.2,0-3.9,1.8-3.9,3.9
			C45.9,86.8,47.7,88.6,49.9,88.6z"/>
		<path class="st1" d="M75.5,79.4c2.2,0,3.9-1.8,3.9-3.9c0-2.2-1.8-3.9-3.9-3.9c-2.2,0-3.9,1.8-3.9,3.9
			C71.6,77.7,73.3,79.4,75.5,79.4z"/>
		<path class="st1" d="M67.7,71.1c2.2,0,3.9-1.8,3.9-3.9c0-2.2-1.8-3.9-3.9-3.9c-2.2,0-3.9,1.8-3.9,3.9
			C63.7,69.3,65.5,71.1,67.7,71.1z"/>
	</g>
	<path class="st1" d="M53.8,75c2.2,0,3.9-1.8,3.9-3.9c0-2.2-1.8-3.9-3.9-3.9c-2.2,0-3.9,1.8-3.9,3.9C49.9,73.3,51.6,75,53.8,75z"/>
</g>
<circle class="st2" cx="67.7" cy="67.2" r="1.9"/>
<circle class="st2" cx="71.6" cy="88.6" r="1.9"/>
<circle class="st2" cx="75.5" cy="75.5" r="1.9"/>
<circle class="st2" cx="53.8" cy="71.1" r="1.9"/>
<circle class="st2" cx="49.9" cy="84.6" r="1.9"/>
<circle class="st2" cx="62.3" cy="80.7" r="1.9"/>
<circle class="st2" cx="60.8" cy="92.5" r="1.9"/>
<circle class="st3" cx="62.6" cy="80" r="25.8"/>
<polygon points="48.2,63.2 41.3,77.4 38.5,60.1 46.9,55.9 "/>
<g>
	<path class="st0" d="M45.7,78.8c-1.8,0-3.3-1.3-3.6-3.1L31.8,15.6c-0.2-1,0.1-1.9,0.6-2.7c0.6-0.8,1.4-1.3,2.4-1.5
		c2-0.3,3.9,1,4.2,3l10.2,60.1c0.2,1-0.1,1.9-0.6,2.7c-0.6,0.8-1.4,1.3-2.4,1.5C46.1,78.8,45.8,78.8,45.7,78.8z"/>
	<line class="st3" x1="35.4" y1="15.1" x2="45.7" y2="75"/>
</g>
</svg>
