<svg width="28" height="28" viewBox="0 0 28 28" fill="none" xmlns="http://www.w3.org/2000/svg">
<path d="M0 14C0 6.26801 6.26801 0 14 0C21.732 0 28 6.26801 28 14C28 21.732 21.732 28 14 28C6.26801 28 0 21.732 0 14Z" fill="#627EEA"/>
<path d="M14.4358 3.5V11.2612L20.9956 14.1925L14.4358 3.5Z" fill="white" fill-opacity="0.602"/>
<path d="M14.4358 3.5L7.875 14.1925L14.4358 11.2612V3.5Z" fill="white"/>
<path d="M14.4358 19.222V24.4956L21 15.414L14.4358 19.222Z" fill="white" fill-opacity="0.602"/>
<path d="M14.4358 24.4956V19.222L7.875 15.414L14.4358 24.4956Z" fill="white"/>
<path d="M14.4358 18.0014L20.9956 14.1925L14.4358 11.263V18.0014Z" fill="white" fill-opacity="0.2"/>
<path d="M7.875 14.1925L14.4358 18.0014V11.263L7.875 14.1925Z" fill="white" fill-opacity="0.602"/>
</svg>
