<svg width="13" height="16" viewBox="0 0 13 16" fill="none" xmlns="http://www.w3.org/2000/svg">
<path d="M2.02479 0C0.902399 0 0 0.902392 0 2.02398V2.04879C0 3.26638 0.600796 4.22316 2.09999 5.72155C2.00479 5.62635 2.41759 6.00955 2.52479 6.12155C2.69679 6.29914 2.83278 6.48955 2.97518 6.67115C3.62717 7.50474 3.99997 8.43193 3.99997 9.59432C3.99997 10.3295 3.99997 14.1671 3.99997 15.1911C3.99997 15.8495 4.74716 16.2359 5.27516 15.8407C5.67516 15.5407 8.07514 13.7415 8.47514 13.4415C8.67674 13.2911 8.79994 13.0439 8.79994 12.7919C8.79994 12.6927 8.79994 11.1935 8.79994 9.59432C8.79994 8.43273 9.17354 7.50474 9.82474 6.67115C9.96714 6.48875 10.1031 6.29994 10.2751 6.12155C10.3823 6.00955 10.7959 5.62555 10.6999 5.72155C12.1999 4.22236 12.7999 3.26718 12.7999 2.04879V2.02398C12.7999 0.902392 11.8975 0 10.7751 0H2.02479ZM2.02479 1.59918H10.7751C11.0135 1.59918 11.1999 1.78558 11.1999 2.02398V2.04879C11.1999 2.71758 10.7959 3.37677 9.57513 4.59756C9.68553 4.48716 9.24874 4.89356 9.12474 5.02236C8.91754 5.23756 8.72874 5.44235 8.55035 5.67195C7.69115 6.77034 7.19995 8.04873 7.19995 9.59432C7.19995 10.9935 7.19995 12.0167 7.19995 12.3927C6.81595 12.6807 6.27916 13.0831 5.59996 13.5919C5.59996 12.0567 5.59996 10.1199 5.59996 9.59432C5.59996 8.04793 5.10876 6.77034 4.24957 5.67195C4.07117 5.44315 3.88237 5.23756 3.67517 5.02236C3.55117 4.89356 3.11518 4.48796 3.22478 4.59756C2.00399 3.37757 1.59999 2.71678 1.59999 2.04879V2.02398C1.59999 1.78558 1.78639 1.59918 2.02479 1.59918Z" fill="white"/>
</svg>
