<svg xmlns:xlink="http://www.w3.org/1999/xlink" xmlns="http://www.w3.org/2000/svg" width="40" height="40" viewBox="0 0 40 40" fill="none"><rect fill="#13B5EC" width="40" height="40" rx="12"/><g transform="translate(4 4)"><circle cx="16" cy="16" r="14" fill="#fff"/><svg xmlns="http://www.w3.org/2000/svg" width="32" height="32" viewBox="0 0 32 32"><path d="M16 32c8.837 0 16-7.163 16-16S24.837 0 16 0 0 7.163 0 16s7.163 16 16 16z" fill="#13B5EC"/><path fill-rule="evenodd" clip-rule="evenodd" d="M17.2 12.9l3.6-2.1V15l-3.6-2.1zm3.6 9L16 24.7l-4.8-2.8V17l4.8 2.8 4.8-2.8v4.9zm-9.6-11.1l3.6 2.1-3.6 2.1v-4.2zm5.4 3.1l3.6 2.1-3.6 2.1v-4.2zm-1.2 4.2L11.8 16l3.6-2.1v4.2zm4.8-8.3L16 12.2l-4.2-2.4L16 7.3l4.2 2.5zM10 9.4v13.1l6 3.4 6-3.4V9.4L16 6l-6 3.4z" fill="#fff"/></svg></g></svg>