<svg width="52" height="54" viewBox="0 0 52 54" xmlns="http://www.w3.org/2000/svg">
<path d="M17.125 7C13.2212 7 10 9.95999 10 13.688V40.312C10 44.04 13.2212 47 17.125 47H34.875C38.7788 47 42 44.04 42 40.312C42 39.01 42 24.716 42 21C42 20.98 42.0006 20.958 42 20.938C42 13.812 35.1212 7 28 7C19.5714 7 19.5526 7 17.125 7ZM17.125 11C19.106 11 21.3472 11 26 11V16.312C26 20.04 29.2212 23 33.125 23H38C38 28.074 38 39.144 38 40.312C38 41.74 36.6518 43 34.875 43H17.125C15.3482 43 14 41.74 14 40.312V13.688C14 12.26 15.3482 11 17.125 11ZM30 11.5C33.5434 12.44 36.6442 15.466 37.5624 19H33.125C31.3458 19 30 17.74 30 16.312V11.5Z"/>
</svg>
