<?xml version="1.0" encoding="utf-8"?>
<!-- Generator: Adobe Illustrator 25.4.1, SVG Export Plug-In . SVG Version: 6.00 Build 0)  -->
<svg version="1.1" id="Layer_1" xmlns="http://www.w3.org/2000/svg" xmlns:xlink="http://www.w3.org/1999/xlink" x="0px" y="0px"
	 viewBox="0 0 78.8 76.8" style="enable-background:new 0 0 78.8 76.8;" xml:space="preserve">
<style type="text/css">
	.st0{fill:#8EEFC1;}
	.st1{fill:#88EDBC;}
	.st2{fill:#85EDBA;}
	.st3{fill:#7EEAB5;}
	.st4{fill:#7AE9B2;}
	.st5{fill:#855732;}
	.st6{fill:#7C5D3F;}
	.st7{fill:#7F6C4B;}
	.st8{fill:#78E8B0;}
	.st9{fill:#966A35;}
	.st10{fill:#DA8531;}
	.st11{fill:#AB7247;}
	.st12{fill:#6DE4A8;}
	.st13{fill:#77E8B0;}
	.st14{fill:#6E5132;}
	.st15{fill:#D6BBA6;}
	.st16{fill:#6DE0A5;}
	.st17{fill:#6FE5AA;}
	.st18{fill:#7A6847;}
	.st19{fill:#7B6544;}
	.st20{fill:#835633;}
	.st21{fill:#7F673B;}
	.st22{fill:#926C39;}
	.st23{fill:#FE9D38;}
	.st24{fill:#68E1A4;}
	.st25{fill:#865632;}
	.st26{fill:#FEDDBE;}
	.st27{fill:#FE9F34;}
	.st28{fill:#99622D;}
	.st29{fill:#786743;}
	.st30{fill:#D7BDA9;}
	.st31{fill:#D7BDA8;}
	.st32{fill:#057243;}
	.st33{fill:#035B31;}
	.st34{fill:#876A38;}
	.st35{fill:#AC7247;}
	.st36{fill:#D6BCA7;}
	.st37{fill:#8A713E;}
	.st38{fill:#746233;}
	.st39{fill:#FC9F38;}
	.st40{fill:#DD8631;}
</style>
<g>
	<path class="st0" d="M39.2,69.2c-15.7,0.3-29-13.1-28.9-29.1c0.1-15.5,13.2-29,29.5-28.7C55,11.6,68.7,24.5,68.3,41.1
		C67.9,56.2,55.1,69.5,39.2,69.2z"/>
	<path class="st1" d="M65.8,41c0.4,15-12.3,27.3-27.1,27c-14.3-0.2-26.9-11.9-26.4-28.2c0.4-12.9,11.9-26,28.2-25.3
		C53.8,15.1,66.2,26.7,65.8,41z"/>
	<path class="st2" d="M64.4,41.3c-0.2,14.3-11.3,25.1-25.1,25.2C25.8,66.7,13,55.5,14,39.3c0.7-12,11.3-24,26.4-23.3
		C53.1,16.5,64.4,27,64.4,41.3z"/>
	<path class="st3" d="M29.1,62c-1.1,0.8-1.8-0.2-2.5-0.6c-4.6-2.9-7.9-7-9.7-12.1c-1.3-3.5-1.7-7.1-1.3-10.9
		c0.7-5.7,3.1-10.4,7.2-14.3c3.6-3.5,8-5.6,13-6.3c4.6-0.6,9-0.1,13.2,1.8c4.4,2.1,8,5.2,10.5,9.4c1.4,2.4,2.3,4.9,2.9,7.5
		c0.1,0.4,0.1,0.8,0.1,1.2c-1.5-0.7-2.5-1.9-3.3-3.2c-0.2-1.4-1.1-2.5-1.5-3.8c-0.2-1.4-1.2-2.3-2-3.3c-3.6-4.2-8.1-6.7-13.5-7.5
		c-8.9-1.3-17.9,3.3-22.1,11.3c-1.5,2.9-2.4,6.1-2.5,9.3c-0.1,3.3,0.5,6.6,2.1,9.6c0.3,0.6,0.1,1.3,0.4,2c0.4,0.8,1.2,1,1.7,1.6
		c1.7,3,4.4,5,7.3,6.6C30.2,61,30.1,61.3,29.1,62z"/>
	<path class="st4" d="M29.1,62c0.7-0.6,0.7-1-0.3-1.5c-2.7-1.3-4.9-3.2-6.7-5.6c-0.3-0.3-0.5-0.6-0.4-1.1c0.5-0.3,1-0.1,1.5,0.1
		c5.5,7.1,14.8,9.5,23.1,6.5c4.1-1.5,7.4-4.2,9.9-7.8c0.3-0.4,0.6-0.9,1-1.2c1.1-0.1,2-0.8,2.9-1.2c0,1.6-1.1,2.8-1.9,4
		c-3.8,5.6-9.2,8.9-15.8,9.9C37.7,64.8,33.3,64,29.1,62z"/>
	<path class="st5" d="M60,50.2c-0.7,0.9-1.6,1.4-2.8,1.3c-0.2,0.1-0.4,0.2-0.7,0.2c-0.3,0-0.6-0.2-0.9-0.3c-0.5-0.2-1-0.5-1.5-0.4
		c-0.7,0.1-0.3,0.9-0.6,1.3c-0.4,0.6-0.8,1.1-1.5,1.3c-0.3,0-0.5,0-0.6-0.2c1.9-1.5,1.3-3.4,1-5.3c-0.1-0.8-0.6-1.7-0.1-2.5
		c0.2-0.2,0.5-0.3,0.7-0.3c0.4,0,0.8,0,1.2,0.2c0.2,0.5-0.2,0.5-0.5,0.6c-0.3,0.1-0.6,0-0.5,0.6c0.6,2.4,4.7,4.2,6.6,2.3
		c0.7-0.7,1-1.7,1.5-2.6c0.2-0.5,0.2-1.2,0.9-1.3c0.1,0.1,0.1,0.2,0,0.3C61.8,47,60.9,48.6,60,50.2z"/>
	<path class="st6" d="M59.3,34.7c1,1,2.1,2.1,3.1,3.1c0.2,0.3,0.3,0.6,0.5,0.9c0.1,0.1,0.1,0.1,0.1,0.2c0,0.1,0,0.1-0.1,0.1
		c-0.4,0.1-0.6-0.2-0.8-0.5c-0.9-1.1-2-2-2.9-3c-0.3-0.3-0.8-0.6-0.6-1.2C59,34.2,59.2,34.4,59.3,34.7z"/>
	<path class="st7" d="M62.9,39c0-0.1,0-0.2,0-0.3c0.4,0.4,0.5,1,0.5,1.5c-0.1,1.7-0.4,3.4-1.2,5c0-0.1,0-0.2,0-0.3
		C62,44.8,62,44.6,62,44.3C62.4,42.6,62.8,40.8,62.9,39z"/>
	<path class="st8" d="M59.3,34.7c-0.2-0.1-0.5-0.2-0.7-0.3c-0.1,0-0.1,0-0.2,0c-1.2-1-2.8-1.5-3.9-2.6c-0.7-1.9-2.2-3.2-3.7-4.5
		c-6.7-5.7-16.3-5.8-23.2-0.3c-1.5,1.2-2.7,2.6-3.8,4.1c-0.3,0.4-0.5,0.8-1,1c-0.9,0-1.4,1.1-2.4,0.9c-0.3-0.6-0.1-1.2,0.2-1.7
		c3.4-6,8.4-9.8,15.2-10.7c8.9-1.3,16,2,21.1,9.5c0.3,0.4,0.5,0.8,1.1,0.9C58.4,32.1,59.4,33.2,59.3,34.7z"/>
	<path class="st4" d="M57.9,30.8c-0.6,0.6-0.9,0.1-1.1-0.4c-1.6-2.8-3.9-5.1-6.7-6.9c-6.9-4.5-16.8-4.1-23.2,0.9
		c-2.5,1.9-4.5,4.1-6,6.8c-0.3,0.5-0.4,1-0.4,1.6c0,0.2,0,0.3-0.1,0.5c-0.1,0.2-0.2,0.4-0.3,0.6c-1.7,4.7-2,9.5,0,14.2
		c0,0.7,0.1,1.5-0.6,2c-1.2-0.9-1.2-2.4-1.6-3.6c-1.7-6.9-0.5-13.1,3.9-18.8c3.6-4.7,8.5-7.4,14.2-8.2c5.8-0.8,11.2,0.6,16,4.1
		c2.2,1.6,4.1,3.6,5.5,5.9C57.8,30,58.2,30.3,57.9,30.8z"/>
	<path class="st9" d="M19.5,50.3c0.1-0.6,0.3-1.3,0.4-1.9c-0.2-0.5-0.2-0.9,0.3-1.3c0.2,0,0.3,0,0.3,0.2c0.3,0.8-0.1,1.7-0.2,2.5
		c-0.3,2.3,0.2,3.1,2.4,3.6c2.9,0.6,5.8,0.9,8.8,1c0.5,0,1.3-0.4,1.5,0.6c-0.7,0.4-1.4,0.2-2.1,0.3c-1.4,0.1-2.7,0-4-0.2
		c-0.9-0.1-1.9-0.3-2.8-0.3c-0.4-0.1-0.8-0.2-1.1-0.5c-0.5-0.1-1-0.2-1.4-0.3C19.9,53.3,19.3,52,19.5,50.3z"/>
	<path class="st8" d="M23.1,54.1c0.3,0,0.7-0.1,1,0.2c2.2,2.4,4.7,4.4,7.7,5.5c7.5,2.7,14.3,1.6,20.4-3.6c1.4-1.2,2.5-2.5,3.5-4
		c0.2-0.3,0.4-0.5,0.7-0.6c0.2,0,0.5,0,0.7,0c-2,3.3-4.6,6-7.9,7.9c-3.7,2.1-7.7,2.9-11.8,2.6c-4.3-0.3-8.3-1.9-11.6-4.8
		C24.8,56.3,23.5,55.6,23.1,54.1z"/>
	<path class="st10" d="M33.2,54.8c-0.4-0.4-0.9-0.2-1.4-0.2c-3.1,0-6.1-0.4-9.1-1c-2.5-0.5-3.1-1.6-2.6-4c0.2-0.8,0.3-1.6,0.4-2.5
		c-0.2-0.5-0.1-1.1,0.1-1.6c0.4-1.6,0.8-3.3,1.2-4.9c0.2-0.7,0.4-1.4,0.8-2.1c0.3-0.6,0.6-0.6,0.9,0c0.3,0.4,0.4,1,0.6,1.4
		c0.5,1.1,1.4,1.2,2.1,0.2c1-1.6,1.4-3.3,1.5-5.2c0-0.6-0.2-1-0.9-1c-0.3,0-0.8,0.2-0.9-0.2c-0.1-0.4,0.3-0.7,0.7-0.9
		c1.5,0.3,3.1,0.3,4.6,0.8c-0.1,0.6-0.8,0.4-1,0.7c-0.3,0.2-0.7,0.3-0.6,0.8c-1.2,2.8-2.1,5.7-2.2,8.8c-0.1,2.1,0.2,4.2,1.2,6
		c1.1,2,3,2.8,5.2,3.1c3.8,0.5,7.5,0.2,11.2-0.4c3-0.6,4.8-2.5,5-5.6c0.3-4.4-0.7-8.6-2.8-12.4c-0.1-0.1-0.2-0.3-0.3-0.5
		c-0.2-0.3-0.4-0.6-0.5-0.9c0.1-0.4,0.4-0.6,0.8-0.5c0.8,0.3,1.2,1,1.6,1.7c0.1,0.3,0.2,0.5,0.3,0.8c0.1,0.3,0.3,0.6,0.5,0.9
		c1.5,2.9,2.3,6.1,2.9,9.4c0,0.1,0,0.1,0,0.2c-0.1,1.4,0.3,2.8,0.6,4.1c0.3,1.7,0.2,3-1.5,3.8c-0.1,0-0.1,0.1-0.2,0.1
		c-2.5,0.6-5,0.9-7.5,1.1c-0.4,0-0.8,0.1-1.2,0.2c-2.7,0.1-5.3,0.4-8,0.3C34.2,55.1,33.6,55.2,33.2,54.8z"/>
	<path class="st11" d="M49.2,35.9c-0.1-0.2-0.3-0.5-0.4-0.7c0.3-0.8,1-1.2,1.5-1.8c0.4-0.3,0.7-0.7,1.1-1c0.2-0.2,0.5-0.3,0.8-0.3
		c2.4-0.8,4,0.9,5.8,2c0.2,0.1,0.4,0.4,0.7,0.5c0,0,0,0,0,0c0.6,1,1.6,1.7,2.4,2.6c0.6,0.7,1.2,1.3,1.9,2c0.5,1.5-0.1,2.9-0.3,4.3
		c-0.1,0.6-0.3,1.1-0.4,1.7c-0.4,0.9-0.8,1.9-1.3,2.8c-0.9,1.8-2.3,2.5-4.3,2c-1.7-0.4-3-1.3-3.7-3.1c-0.3-0.8-0.1-1,0.7-0.9
		c0.7,0.6,2.2,0.8,2.9,0.4c0.3-0.2,0.1-0.4,0.1-0.6c0.2-0.3,0.7-0.3,0.9-0.7c1.4-2.1,1.6-4.3,0.3-6.5c-0.4-0.8-0.7-1.7-1-2.5
		c-0.3-0.8-0.9-1-1.6-0.7c-0.8,0.3-1.6,0.7-2.3,1.1c0.3-0.2,0.5-0.5,1-0.4c0.5,0.4,1,0.2,1.5,0.1c-0.3,0-0.7,0.1-0.8-0.4
		c1.4-1,2.3-0.6,2.5,1c0.1,0.8,0,1.5,0,2.3c0,0.7-0.3,1.3-0.9,1.7c-1.1,0.8-2.3,1.3-3.5,1.8c-0.7,0.3-1-0.1-1.2-0.8
		c-0.4-1.9-1.1-3.7-1.9-5.5c0-0.5,0.6-0.6,0.9-0.9c0.8-0.5,1.5-1.1,1.9-1.9c-1.2,0.4-2.1,1.1-2.7,2.3C49.6,35.7,49.4,35.8,49.2,35.9
		z"/>
	<path class="st12" d="M27,54.6c1.3,0.1,2.7,0.3,4,0.2c3.2,0.2,6.3,0.2,9.5-0.1c1.1-0.1,2.1,0,3.2-0.2c2.6-0.2,5.2-0.6,7.8-1.1
		c0,0,0,0,0,0c0.2,0,0.5,0,0.7,0c0.4,0.6-0.2,1-0.5,1.3c-2.2,2.3-4.9,3.6-7.8,4.4c-5.4,1.5-10.5,0.4-15.2-2.7
		C28,55.9,27.2,55.5,27,54.6z"/>
	<path class="st13" d="M27,54.6c2.4,2.3,5.3,3.8,8.6,4.4c6.1,1.2,11.5-0.4,16-4.7c0.3-0.2,0.5-0.5,0.5-0.9c0.9-0.6,1.6-1.2,1.3-2.4
		c-0.1-0.5,0.3-0.5,0.6-0.4c0.8,0.3,1.6,0.6,2.5,0.9c-3,5.1-7.5,8.3-13.3,9.6c-4.2,0.9-8.3,0.4-12.2-1.3c-2.5-1.1-4.8-2.7-6.6-4.8
		c-0.2-0.2-0.2-0.4-0.2-0.7C25,54.4,26,54.5,27,54.6z"/>
	<path class="st14" d="M57.7,45c-0.1,0.7-0.6,0.4-1,0.5c-0.8,0.5-1.5,0.5-2.3,0c-0.4,0-0.9,0-1.3,0c0.1-0.6,0.7-0.5,1-0.6
		c0.5-0.1,1.1-0.2,1.3-0.9c-1-0.2-1.6,1.1-2.5,0.5c0-0.4,0.3-0.7,0.6-0.8c1.3-0.7,2.6-1.4,3.8-2.2c0.3-0.2,0.6-0.4,0.9-0.1
		c0.2,0.3,0,0.7-0.3,0.8c-1,0.6-1.6,1.4-1.7,2.6C56.8,44.6,56.8,44.6,57.7,45z"/>
	<path class="st15" d="M54.4,45.5c0.8,0,1.5,0,2.3,0c0.2,0.2,0.7,0.1,0.7,0.6c0,0.3-0.4,0.3-0.7,0.4c-0.9,0.2-1.8,0.3-2.7,0.1
		c-0.5-0.1-0.8-0.3-0.3-0.8C53.9,45.7,54.1,45.6,54.4,45.5z"/>
	<path class="st16" d="M52.9,44.6c0.6-0.3,1.2-0.6,1.8-0.9c0.3-0.1,0.6-0.5,1-0.3c0.2,0.1,0.1,0.5,0.1,0.8c-0.1,0.4-0.2,0.7-0.7,0.8
		c-0.7,0.1-1.4,0-2,0.4c-0.2,0-0.4,0-0.7,0c0,0,0,0,0,0C52.2,45,52.2,44.6,52.9,44.6z"/>
	<path class="st17" d="M52,32.3c-0.2,0.1-0.4,0.2-0.6,0.2c-0.7,0.4-1.1-0.2-1.5-0.6c-2.2-2.3-4.8-3.9-7.9-4.6
		c-0.6-0.1-1.1-0.2-1.6-0.1c-1.1-0.2-2.1,0.1-2.9,0.7c-0.6,0.4-1.1,0.5-1.7,0.1c-0.7-0.5-1.5-0.5-2.3-0.4c-0.3,0.1-0.6,0.2-0.7,0.6
		c-0.1,0.4,0.2,0.6,0.5,0.7c0.5,0.3,1.1,0.3,1.7,0.4c1.4,0.2,1.5,0.4,1.2,1.6c-0.3,0.3-0.7,0.3-1.1,0.3c-1.8-0.1-3.6,0.2-5.4,0.3
		c-1.2,0.1-2,1-3.1,1.3c-0.7,0.1-0.9,1.2-1.7,1.1c-1-0.4-1.7-1.1-2.2-2c0.9-0.3,1.2-1.2,1.7-1.9c3.2-4.2,7.5-6.6,12.6-7.2
		c5.6-0.7,10.6,1,14.7,4.8c0.9,0.9,1.8,1.8,2.6,2.8c0.3,0.4,0.6,0.9,0.5,1.4C53.9,32,52.9,31.8,52,32.3z"/>
	<path class="st18" d="M52,32.3c0.8-0.7,1.8-0.5,2.7-0.4c1.4,0.8,2.8,1.3,3.9,2.6c-0.8-0.1-1.2-0.7-1.8-1.1
		C55.4,32.3,53.8,31.7,52,32.3z"/>
	<path class="st19" d="M22.6,31.8c0.8,0.6,1.5,1.2,2.3,1.9c-0.1,0.1-0.2,0.2-0.3,0.2c-0.2,0-0.3,0-0.5,0c-0.2-0.1-0.3-0.2-0.4-0.3
		c-1.1-1.1-1.1-1.1-2.5-0.4c-0.2,0.1-0.4,0.2-0.6,0.2c-0.1,0-0.2-0.1-0.3-0.2c0.1-0.1,0.1-0.2,0.2-0.3
		C21.2,32.6,21.7,31.9,22.6,31.8z"/>
	<path class="st8" d="M20.3,47.1c-0.1,0.4-0.2,0.8-0.3,1.2c-1.1-1-1.1-2.5-1.3-3.7c-0.7-3.3-0.1-6.6,0.7-9.8
		c0.1-0.4,0.3-0.8,0.6-1.1c1.1,0,1.6,0.9,2.2,1.6c0.8,1.1,1.2,2.2,0.4,3.5c-0.3,0.6-0.5,1.2-0.6,1.9C21.3,42.8,20.9,45,20.3,47.1z"
		/>
	<path class="st20" d="M21.9,40.7c0.1-0.3,0.1-0.6,0.2-0.9c0.9-3,0.5-4.3-2.1-6c0-0.2,0.1-0.4,0.3-0.5c0.1,0,0.1,0,0.2,0
		c1.7,0.7,2.7,1.9,3.5,3.5c0.3,0.6,0.6,1.1,1.1,1.5c0.8,0.7,1.3,0.6,1.6-0.4c0.3-0.9,0.4-1.8,0.5-2.7c0.1-0.7-0.1-1.1-0.9-0.9
		c-0.7,0.2-1.4,0.3-1.8-0.6c0.1,0,0.2,0,0.3,0c0.7,0,0.9-0.9,1.6-1c0.1,0.1,0.1,0.1,0.1,0.2c0,0.1,0,0.1-0.1,0.1
		c-0.2,0.2-0.5,0.3-0.6,0.7c0.6-0.1,1.2-0.4,1.7,0.1c0.5,0.6,0.4,1.2,0.3,1.8c-0.2,1.6-0.6,3.1-1.4,4.5c-0.4,0.6-0.9,1-1.6,1
		c-0.8,0-0.9-0.7-1.1-1.2c-0.3-0.6-0.4-1.2-0.7-2c-0.4,1.1-0.6,1.9-0.9,2.7C22,40.8,22,40.8,21.9,40.7z"/>
	<path class="st21" d="M43.8,54.6c-1.2,0.4-2.4,0.3-3.7,0.4c-2.9,0.1-5.7,0-8.6,0c-0.2,0-0.4-0.1-0.6-0.2c0.7,0,1.5,0,2.2,0
		c3.2,0.1,6.4-0.2,9.6-0.2C43.1,54.4,43.5,54.4,43.8,54.6z"/>
	<path class="st22" d="M21.9,40.7c0.1,0,0.2,0,0.2,0c-0.5,2.2-1.1,4.3-1.6,6.5c-0.1,0-0.1,0-0.2,0C20.6,44.9,21.1,42.8,21.9,40.7z"
		/>
	<path class="st23" d="M47.1,34.2c1.8,2.3,2.3,5.1,2.9,7.9c0.4,1.8,0.4,3.6,0.2,5.3c-0.6,3.6-2.4,5.2-6.3,5.7
		c-2.2,0.3-4.5,0.5-6.8,0.5c-1.6,0-3.3-0.2-4.8-0.5c-2.9-0.6-4.4-2.7-5-5.5c-1-4.6,0.1-8.8,2.1-12.9c1-0.5,2-0.1,3-0.1
		c3.2,0.2,6.4,0.2,9.6,0C43.7,34.5,45.4,34.2,47.1,34.2z"/>
	<path class="st24" d="M40.3,27c1.1-0.6,2.1,0,3,0.3c2.7,0.9,5.1,2.3,6.9,4.5c0.3,0.4,0.7,0.6,1.2,0.7c-0.2,0.4-0.6,0.7-0.9,1
		c-0.5,0.2-0.8,0.6-1.1,1c-0.3,0.3-0.6,0.5-0.7-0.1c-0.6-0.4-0.8-1.2-1.5-1.5c-0.5-0.3-1.1-0.5-1.5-0.9c-0.5-0.3-1-0.5-1.6-0.4
		c-1.7,0-3.4-0.4-5-0.3c-0.6,0-1.2,0.1-1.8-0.2c-0.6-0.7-0.6-1.3,0.4-1.6c0.4-0.1,0.9-0.2,1.3-0.3C39.7,28.7,40.3,28.1,40.3,27z"/>
	<path class="st25" d="M52.9,44.6c-0.3,0.2-0.5,0.4-0.5,0.9c-0.8-1.9-1-3.9-1.6-5.8c-0.5-1.3-0.9-2.6-1.5-3.8
		c0.1-0.1,0.1-0.1,0.2-0.2c0.2,0,0.3,0.1,0.3,0.3c0.7,1.8,1.5,3.7,1.9,5.6c0.1,0.7,0.4,0.9,1,0.5c0.9-0.5,1.9-0.9,2.8-1.4
		c0.9-0.5,1.4-1.1,1.3-2.2c-0.1-0.6,0-1.2,0-1.8c-0.1-1.6-0.8-1.9-2.2-1.1c-0.1,0.3-0.3,0.5-0.7,0.3c-0.8-0.1-0.9,0.8-1.6,1.1
		c0.5-1.1,2.7-2.4,3.8-2.3c0.5,0.1,0.8,0.5,1,0.9c0.6,1.4,1.2,2.8,1.7,4.2c0.8,2,0,3.6-1.1,5.2c-0.2,0-0.3,0-0.5,0
		c-0.4-0.1-1.2,0.3-1.2-0.3c-0.1-0.7-0.3-1.6,0.7-2.1c0.5-0.2,1.1-0.5,1.4-1.3c-1.7,1.1-3.2,2-4.9,2.8C53,44.2,53,44.4,52.9,44.6z"
		/>
	<path class="st26" d="M47.1,34.2c-1.2,0.7-2.5,0.5-3.8,0.7c-4.6,0.5-9.3,0.4-13.9-0.2c-0.3-0.6,0.3-0.4,0.5-0.6
		c0.9-0.3,1.9-0.4,2.8-0.3c4.4,0.5,8.7,0.1,13.1-0.2c0.4,0,0.8,0,1.1,0.3C46.9,34,47,34.1,47.1,34.2z"/>
	<path class="st27" d="M46.9,34c-5.7,0.5-11.4,0.6-17,0.2c0.2-0.7,0.8-0.3,1.2-0.5c0.4-0.4,1-0.3,1.5-0.3c2.4,0,4.8-0.1,7.2,0
		c1.9,0,3.8-0.2,5.7-0.3c0.3,0,0.6-0.1,0.9,0.1C46.7,33.3,46.9,33.6,46.9,34z"/>
	<path class="st28" d="M46.4,33.2c-2.5,0.5-5,0.5-7.5,0.5c-2.6,0-5.2,0-7.9,0c-0.4-0.3-0.8-0.2-1.2-0.2c-0.9,0-1.9,0.1-2.7-0.6
		c-0.2-0.2-0.4,0.1-0.7,0.1c0-0.1,0-0.2,0-0.3c1-0.4,1.6-1.5,2.8-1.4c0.2-0.1,0.5-0.1,0.7-0.1c0.2,0.6-0.3,0.5-0.7,0.6
		c-0.4,0.1-0.9,0.1-1,0.6c0.5,0.5,1.2,0.4,1.8,0.4c4.5,0,8.9,0,13.4,0c0.5,0,0.9-0.1,1.4-0.2c0.6-0.1,0.7-0.4,0.7-0.9
		c0.1-0.1,0.2-0.1,0.3,0c0.4,0.3,0.9,0.6,1.1,1C46.7,32.7,46.5,32.9,46.4,33.2z"/>
	<path class="st5" d="M43.8,54.6c-0.3,0-0.7,0-1,0c1.7-0.2,3.3-0.5,5-0.7c1.2-0.1,2.4-0.6,3.6-0.5C48.9,54.2,46.4,54.4,43.8,54.6z"
		/>
	<path class="st29" d="M48.6,34.3c0.3,0.3,0.5,0.2,0.8-0.1c0.3-0.3,0.6-0.8,1.1-0.8c-0.5,0.6-1,1.2-1.6,1.6
		C48.7,34.9,48.5,34.6,48.6,34.3z"/>
	<path class="st30" d="M49.7,35.9c-0.1-0.1-0.2-0.2-0.3-0.3c0.5-1.5,1.8-2.1,3-2.8c0.2-0.1,0.4-0.1,0.5,0.1c0.1,0.1,0,0.4-0.1,0.5
		C52,34.6,51,35.4,49.7,35.9z"/>
	<path class="st31" d="M53.9,35.9c0.2-0.1,0.4-0.2,0.7-0.3c0.5,0,1,0,1.5,0C55.3,36,54.7,36.9,53.9,35.9z"/>
	<path class="st32" d="M40.3,27c0.5,0.7,0.3,1.3-0.4,1.7c-0.7,0.5-1.4,0.8-2.2,0.9c-0.3-0.2-0.8,0.2-0.9-0.3
		c-0.1-0.5,0.4-0.5,0.7-0.7c0.4-0.2,0.8-0.4,1.6-0.6c-1.2,0.2-2,1.1-3,0.9c-0.6-0.5-1.4-0.6-1.8-0.6c0.5,0,1.2,0.2,1.9,0.7
		c0.4,0.4,0.2,0.5-0.2,0.6c-0.4,0-0.8-0.1-1.3,0.1c-0.7-0.1-1.3-0.2-1.9-0.5c-0.8-0.5-0.8-1.2,0.1-1.6c1.1-0.5,2.2-0.3,3.1,0.4
		c0.5,0.4,0.7,0.3,1.2-0.1C38,27,39.1,26.6,40.3,27z"/>
	<path class="st33" d="M34.6,29.6c0.3-0.3,0.7-0.2,1.1-0.2c0.4,0,0.5-0.2,0.3-0.5l0,0c1-0.6,2.3-0.6,3.2-1.4c0,0,0.3,0.1,0.3,0.1
		c0.1,0.3-0.1,0.5-0.4,0.5c-0.9,0.1-1.5,0.6-2.3,0.9c0.2,0.5,0.7,0.2,0.8,0.5c-0.9,0-0.9,0.6-0.7,1.2c0.1,0.3,0.2,0.6,0,0.8
		c-0.9,0.5-1,0.4-1.2-0.5c0.1-0.1,0.1-0.2,0.2-0.3C36.4,29.4,35.3,29.8,34.6,29.6z"/>
	<path class="st34" d="M36.1,30.8c0,0.1,0,0.2,0,0.3c-2,0.5-3.9,0.9-6,0.3c-0.3,0-0.5,0-0.8-0.1C31.5,30.7,33.8,30.9,36.1,30.8z"/>
	<path class="st35" d="M24.5,33.7c0.5,0.3,1.1,0.6,1.8,0.3c0.9-0.4,1.5,0.1,1.3,1c-0.2,1.1-0.4,2.1-0.7,3.1
		c-0.3,1.1-0.9,1.3-1.8,0.5c-0.8-0.7-1.3-1.6-1.8-2.5c-0.6-1.1-1.1-2-2.4-2.3c-0.3-0.1-0.4-0.3-0.4-0.6c0.2-0.1,0.4-0.1,0.5-0.2
		c1.4-1.1,1.7-1,2.8,0.5c0.1,1.1,1.2,0.9,1.8,1.4c-0.5-0.4-1.5-0.2-1.6-1.2C24.2,33.7,24.4,33.7,24.5,33.7z"/>
	<path class="st36" d="M24,33.7c0.6,0.9,1.7,0.8,2.6,1c-0.8,0.5-2.8,0-3.2-0.9c-0.1-0.3,0.1-0.3,0.4-0.3C23.9,33.6,24,33.6,24,33.7z
		"/>
	<path class="st37" d="M45.9,31.8c-0.1,0-0.2,0-0.3,0c-0.1,0.1-0.2,0.1-0.4,0.2c-1.6-0.1-3.3-0.4-4.9-0.3c-0.5,0-1,0-1.3-0.4
		c-0.1-0.1-0.1-0.2-0.1-0.4c1.9,0,3.9,0.1,5.8,0.4C45.2,31.3,45.6,31.4,45.9,31.8z"/>
	<path class="st38" d="M38.9,30.9c0,0.1,0,0.1,0,0.2c-0.6,0.5-1.3,0.3-2,0.2c-0.2-0.2-0.1-0.4,0-0.5C37.7,30.8,38.3,30.8,38.9,30.9z
		"/>
	<path class="st39" d="M37,31.3c0.6-0.5,1.3-0.1,2-0.2c1.7,0.4,3.6,0,5.3,0.4c0.4,0.1,0.8,0.1,1.1,0.3c-0.1,0.8-0.7,0.7-1.3,0.8
		c-1.5,0.3-3,0.4-4.5,0.2c-3.3-0.3-6.6-0.1-9.9-0.2c-0.6,0-1.3,0.1-1.8-0.4c0.5-0.9,1.5-0.5,2.2-0.9c2-0.1,4-0.2,6-0.3
		c0.1,0.2-0.2,0.6,0.2,0.7C36.7,31.9,36.9,31.6,37,31.3z"/>
	<path class="st40" d="M27.9,32.3c3.2,0,6.3-0.1,9.4,0c2.3,0.1,4.5,0.3,6.8,0c0.5-0.1,1-0.1,1.3-0.5c0.1,0,0.2,0,0.2,0
		c0.2,0.2,0.4,0.5,0.7,0.8c-0.8,0.5-1.7,0.6-2.6,0.6c-4.6,0-9.2,0-13.9,0c-0.6,0-1.3-0.1-1.9-0.3C27.5,32.8,27.4,32.6,27.9,32.3z"/>
	<path class="st33" d="M36.1,28.9c-0.8-0.2-1.5-0.6-2.4-0.5c-0.2,0-0.3,0-0.3-0.3c0-0.1,0.2-0.2,0.2-0.2
		C34.3,28.5,35.5,27.8,36.1,28.9C36.1,28.9,36.1,28.9,36.1,28.9z"/>
</g>
</svg>
