<svg xmlns:xlink="http://www.w3.org/1999/xlink" xmlns="http://www.w3.org/2000/svg" width="40" height="40" viewBox="0 0 40 40" fill="none"><rect fill="#FE303F" width="40" height="40" rx="12"/><g transform="translate(4 4)"><circle cx="16" cy="16" r="14" fill="#fff"/><svg xmlns="http://www.w3.org/2000/svg" width="32" height="32" viewBox="0 0 32 32"><path fill-rule="evenodd" clip-rule="evenodd" d="M0 16C0 7.163 7.163 0 16 0s16 7.163 16 16-7.163 16-16 16S0 24.837 0 16z" fill="#FE303F"/><g clip-path="url(#clip0)"><path fill-rule="evenodd" clip-rule="evenodd" d="M5.836 18.625h2.675c.919.004 1.837.004 2.756 0 .31 0 .477-.158.477-.461.003-1.498.003-2.993 0-4.487-.003-.22-.126-.339-.342-.342a29.356 29.356 0 00-.505-.001h-.252c-.32.004-.413.094-.413.414v.801c0 .802-.001 1.603.004 2.404 0 .14-.04.168-.171.168-1.015-.006-2.03-.006-3.046 0-.145 0-.177-.035-.177-.177.005-.811.004-1.622.003-2.433V13.7c0-.252-.116-.365-.364-.365h-.742c-.306 0-.406.1-.406.403v4.39c0 .349.152.497.503.497zm20.318-5.287h-2.688c-.918 0-1.834 0-2.756.003-.277 0-.45.162-.45.433-.004 1.5-.004 2.999 0 4.5 0 .238.122.351.36.355.166.002.33.001.494 0h.247c.31 0 .41-.097.41-.4v-3.093c0-.239.058-.294.296-.294h2.785c.252 0 .303.052.303.3v3.08c0 .297.11.403.41.403h.692c.313 0 .41-.1.41-.416v-4.354c0-.378-.136-.517-.513-.517zm-3.287 2.529a.2.2 0 00-.2.2v1.2c0 .11.09.2.2.2h1.2a.2.2 0 00.2-.2v-1.2a.2.2 0 00-.2-.2h-1.2zm-5.485.392c-.287.177-.564.348-.839.523l-.017.011c-.255.165-.384.247-.513.248-.13 0-.261-.083-.525-.251l-.002-.001c-.38-.242-.764-.478-1.148-.714-.009-.005-.018-.013-.026-.02-.026-.022-.052-.044-.083-.025-.034.017-.03.052-.025.087l.002.032v.001c0 .665 0 1.33-.003 1.994 0 .068 0 .14-.003.207-.01.203-.12.31-.329.313-.28.003-.557.003-.838 0-.229-.003-.348-.12-.348-.349v-4.467c0-.18.061-.326.229-.413.168-.087.319-.046.467.055l2.324 1.585c.28.19.32.193.603 0l1.176-.801c.392-.267.783-.534 1.177-.8.241-.165.515-.085.631.167.03.062.03.126.03.188v4.467c0 .262-.11.365-.378.365h-.741c-.297 0-.4-.1-.4-.394.007-.742.007-1.491.007-2.272l-.428.264z" fill="#fff"/></g><defs><clipPath id="clip0"><path fill="#fff" transform="translate(5.333 5.333)" d="M0 0h21.333v21.333H0z"/></clipPath></defs></svg></g></svg>