<?xml version="1.0" encoding="utf-8"?>
<!-- Generator: Adobe Illustrator 25.4.1, SVG Export Plug-In . SVG Version: 6.00 Build 0)  -->
<svg version="1.1" id="Layer_1" xmlns="http://www.w3.org/2000/svg" xmlns:xlink="http://www.w3.org/1999/xlink" x="0px" y="0px"
	 viewBox="0 0 120.2 120.2" style="enable-background:new 0 0 120.2 120.2;" xml:space="preserve">
<style type="text/css">
	.st0{fill:#CCFF00;}
	.st1{fill:#1CD8D2;}
	.st2{fill:#A4EFED;}
	.st3{fill:none;stroke:#EBFF99;stroke-width:3;stroke-linecap:round;stroke-miterlimit:10;}
	.st4{fill:#CCFF00;stroke:#CCFF00;stroke-width:5;stroke-linecap:round;stroke-miterlimit:10;}
</style>
<circle cx="59.9" cy="60.1" r="60.1"/>
<path class="st0" d="M52.5,54.7c-5.5,0-10.7,1.7-15,4.5l1.2,6.9c3.7-3.2,8.5-5.2,13.8-5.2c11.6,0,21.1,9.5,21.1,21.1
	s-9.5,21.1-21.1,21.1c-11.6,0-21.1-9.5-21.1-21.1c0-1.6,0.2-3.1,0.5-4.5l-1.9-11c-3,4.4-4.9,9.8-4.9,15.5
	c0,15.1,12.3,27.3,27.3,27.3s27.2-12.3,27.2-27.3S67.5,54.7,52.5,54.7z"/>
<g>
	<g>
		<path class="st1" d="M50.6,97.7c2.1,0,3.7-1.7,3.7-3.7s-1.7-3.7-3.7-3.7s-3.7,1.7-3.7,3.7C46.9,96,48.6,97.7,50.6,97.7z"/>
		<path class="st1" d="M60.9,93.9c2.1,0,3.7-1.7,3.7-3.7s-1.7-3.7-3.7-3.7s-3.7,1.7-3.7,3.7C57.2,92.3,58.8,93.9,60.9,93.9z"/>
		<path class="st1" d="M52.1,86.5c2.1,0,3.7-1.7,3.7-3.7S54.1,79,52.1,79s-3.7,1.7-3.7,3.7C48.4,84.8,50,86.5,52.1,86.5z"/>
		<path class="st1" d="M40.3,90.2c2.1,0,3.7-1.7,3.7-3.7c0-2.1-1.7-3.7-3.7-3.7c-2.1,0-3.7,1.7-3.7,3.7
			C36.5,88.5,38.2,90.2,40.3,90.2z"/>
		<path class="st1" d="M64.6,81.5c2.1,0,3.7-1.7,3.7-3.7s-1.7-3.7-3.7-3.7s-3.7,1.7-3.7,3.7S62.5,81.5,64.6,81.5z"/>
		<path class="st1" d="M57.2,73.6c2.1,0,3.7-1.7,3.7-3.7s-1.7-3.7-3.7-3.7c-2.1,0-3.7,1.7-3.7,3.7S55.1,73.6,57.2,73.6z"/>
	</g>
	<path class="st1" d="M44,77.4c2.1,0,3.7-1.7,3.7-3.7c0-2.1-1.7-3.7-3.7-3.7c-2.1,0-3.7,1.7-3.7,3.7C40.3,75.7,41.9,77.4,44,77.4z"
		/>
</g>
<circle class="st2" cx="57.2" cy="69.9" r="1.8"/>
<circle class="st2" cx="60.9" cy="90.2" r="1.8"/>
<circle class="st2" cx="64.6" cy="77.8" r="1.8"/>
<circle class="st2" cx="44" cy="73.6" r="1.8"/>
<circle class="st2" cx="40.3" cy="86.5" r="1.8"/>
<circle class="st2" cx="52.1" cy="82.7" r="1.8"/>
<circle class="st2" cx="50.6" cy="93.9" r="1.8"/>
<circle class="st3" cx="52.4" cy="82.1" r="24.5"/>
<polygon points="38.7,66.1 32.2,79.6 29.5,63.2 37.5,59.2 "/>
<g>
	<path class="st0" d="M36.3,81c-1.7,0-3.1-1.2-3.4-2.9L23.2,21c-0.2-0.9,0.1-1.8,0.6-2.6s1.4-1.2,2.3-1.4c1.9-0.3,3.7,1,4,2.9
		l9.7,57.1c0.2,0.9-0.1,1.8-0.6,2.6c-0.5,0.8-1.4,1.2-2.3,1.4C36.6,81,36.4,81,36.3,81z"/>
	<line class="st3" x1="26.5" y1="20.5" x2="36.3" y2="77.4"/>
</g>
<line class="st4" x1="92.7" y1="35.9" x2="92.7" y2="62"/>
<line class="st3" x1="92.7" y1="35.9" x2="92.7" y2="62"/>
<line class="st4" x1="79.7" y1="48.9" x2="105.8" y2="48.9"/>
<line class="st3" x1="79.7" y1="48.9" x2="105.8" y2="48.9"/>
</svg>
