<?xml version="1.0" encoding="utf-8"?>
<!-- Generator: Adobe Illustrator 26.5.0, SVG Export Plug-In . SVG Version: 6.00 Build 0)  -->
<svg version="1.1" id="Layer_1" xmlns="http://www.w3.org/2000/svg" xmlns:xlink="http://www.w3.org/1999/xlink" x="0px" y="0px"
	 viewBox="0 0 622 801" style="enable-background:new 0 0 622 801;" xml:space="preserve">
<style type="text/css">
	.st0{fill:#CBFF00;}
	.st1{fill:#1CD7D1;}
	.st2{fill:#53CBC8;}
	.st3{fill:#E1147B;}
</style>
<g>
	<g>
		<g>
			<g>
				<g>
					<path class="st0" d="M114.1,555.7c-14.7,0-27.2-10.5-29.7-25.1L0.4,37.2c-1.3-7.9,0.5-15.9,5.1-22.5S17.1,3.8,25.1,2.5
						c16.4-2.7,32,8.3,34.8,24.7l83.9,493.4c1.3,7.9-0.5,15.9-5.1,22.5c-4.7,6.6-11.6,10.9-19.5,12.3
						C117.5,555.6,115.8,555.7,114.1,555.7z"/>
				</g>
			</g>
		</g>
		<path class="st0" d="M254.7,328.2c-48,0-92.6,14.4-129.9,39l10.2,59.7c32.1-27.9,74-44.9,119.7-44.9
			c100.7,0,182.6,81.9,182.6,182.6s-81.9,182.6-182.6,182.6c-100.7,0-182.6-81.9-182.6-182.6c0-13.4,1.5-26.5,4.3-39.1l-16.2-95.1
			c-26.4,38.1-41.9,84.4-41.9,134.2C18.3,694.9,124.3,801,254.7,801c130.4,0,236.4-106.1,236.4-236.4S385.1,328.2,254.7,328.2z"/>
		<g>
			<g>
				<circle class="st1" cx="241.8" cy="670.3" r="32.2"/>
			</g>
			<g>
				<circle class="st1" cx="342.4" cy="632.8" r="32.2"/>
			</g>
			<g>
				<circle class="st1" cx="263.3" cy="563.8" r="32.2"/>
			</g>
			<g>
				<circle class="st1" cx="163.3" cy="596.7" r="32.2"/>
			</g>
			<g>
				<circle class="st1" cx="362.9" cy="530.8" r="32.2"/>
			</g>
			<g>
				<circle class="st1" cx="284.8" cy="457.3" r="32.2"/>
			</g>
			<g>
				<circle class="st1" cx="183.9" cy="494.7" r="32.2"/>
			</g>
		</g>
	</g>
	<g>
		<path class="st2" d="M525.4,225.3c-21.9,0-43.8-0.2-65.6,0.1c-6,0.1-7.9-1.9-7.8-7.9c0.9-34.8,33.9-66.8,68.8-68.6
			c40.6-2,72.5,27.1,77.8,62.3c0.1,0.7,0.3,1.3,0.4,2c1.6,11.1,0.7,12.1-10.6,12.1C567.3,225.3,546.4,225.3,525.4,225.3z"/>
		<path class="st3" d="M525.6,249c-26.9,0-53.9,0-80.8,0c-2,0-4.1,0.1-6.1-0.3c-2.3-0.4-3.5-2.1-3.4-4.4c0.1-2,1.2-3.6,3.2-3.9
			c2.5-0.4,5-0.5,7.5-0.5c53.2,0,106.3-0.1,159.5,0.1c3.9,0,10.2-1.9,10.3,4.5c0.1,6.7-6.2,4.5-10.1,4.5
			C579,249.1,552.3,249,525.6,249z"/>
		<path class="st3" d="M516.1,290.2c-23.7,0-47.4,0-71.1,0c-2,0-4.1,0-6.1-0.3c-2.3-0.3-3.6-2-3.5-4.3c0.1-2.3,1.4-3.8,3.8-4.1
			c1.8-0.2,3.6-0.2,5.5-0.2c47.2,0,94.4,0,141.5,0c1.1,0,2.3,0,3.4,0c3.2,0,6.3,0.4,6.1,4.6c-0.1,4.1-3.3,4.3-6.4,4.3
			C564.8,290.2,540.4,290.2,516.1,290.2z"/>
		<path class="st3" d="M468,260.7c19.1,0,38.3,0,57.4,0c2,0,4.1,0.1,6.1,0.4c2.1,0.3,3.1,1.9,3.2,3.9c0.1,2-1,3.7-2.9,4.2
			c-1.9,0.5-4.1,0.4-6.1,0.4c-39,0-78,0-116.9,0c-3.5,0-8.4,1-8.5-4.2c-0.1-5.9,5.2-4.5,8.8-4.5c16-0.1,31.9-0.1,47.9-0.1
			C460.7,260.7,464.4,260.7,468,260.7z"/>
		<path class="st3" d="M554.3,310.8c-19.1,0-38.2,0-57.4,0c-2,0-4.1,0-6.1-0.3c-2.3-0.4-3.5-2.1-3.4-4.4c0.1-2,1.3-3.5,3.3-3.8
			c1.6-0.3,3.2-0.3,4.8-0.3c39.4,0,78.8,0,118.2,0c1.1,0,2.3,0,3.4,0.1c3,0.1,4.8,1.4,4.7,4.6c-0.1,2.8-1.9,4-4.5,4.1
			c-3,0.1-5.9,0.1-8.9,0.1C590.3,310.8,572.3,310.8,554.3,310.8z"/>
		<path class="st3" d="M508.5,352.4c-11.8,0-23.7,0.1-35.5,0c-3.3,0-7.6,0.3-7.7-4.5c-0.2-5.1,4-4.6,7.4-4.6c23.7,0,47.3,0,71,0
			c3.6,0,7.6,0,7.5,4.7c-0.2,4.6-4.4,4.5-7.8,4.5C531.7,352.4,520.1,352.4,508.5,352.4z"/>
		<path class="st3" d="M555.6,331.5c-12.1,0-24.2,0-36.2,0c-3.3,0-7-0.2-6.8-4.7c0.2-3.9,3.4-4.2,6.6-4.2c24.2,0,48.3,0,72.5,0
			c3.3,0,6.9,0,6.7,4.7c-0.2,4.1-3.5,4.2-6.5,4.2C579.8,331.5,567.7,331.5,555.6,331.5z"/>
		<path class="st3" d="M444.2,302c9.1,0,18.3,0,27.4,0c3.1,0,6.3,0.3,6.2,4.5c-0.1,4.2-3.4,4.3-6.4,4.3c-18.5,0-37,0-55.4,0
			c-3,0-6.4-0.1-6.6-4.2c-0.2-4.6,3.5-4.6,6.8-4.6C425.4,302,434.8,302,444.2,302z"/>
		<path class="st3" d="M423.5,240.3c2.7,0.3,4.2,1.8,4,4.5c-0.2,2.6-1.7,4.3-4.5,4c-2.6-0.2-4.2-1.9-4.1-4.5
			C419.1,241.6,420.8,240.2,423.5,240.3z"/>
		<path class="st3" d="M388.1,260.9c2.7,0,4.4,1.4,4.5,4.1c0.1,2.6-1.5,4.3-4.1,4.4c-2.8,0.2-4.3-1.4-4.4-4
			C383.9,262.7,385.4,261.1,388.1,260.9z"/>
		<path class="st3" d="M505.1,326.7c-0.4,2.9-1.6,4.6-4.4,4.6c-2.7,0-4.4-1.4-4.4-4.1c0-2.6,1.4-4.4,4.2-4.4
			C503.2,322.7,504.4,324.6,505.1,326.7z"/>
		<path class="st3" d="M427.6,285.6c-0.3,2.9-1.6,4.5-4.4,4.5c-2.7-0.1-4.3-1.7-4.3-4.3c0-2.6,1.6-4.2,4.3-4.2
			C426.1,281.5,427.3,283.3,427.6,285.6z"/>
		<path class="st3" d="M453,343.3c2.6,0.2,4.3,1.5,4.4,4.2c0.1,2.7-1.4,4.3-4.1,4.4c-2.6,0.1-4.3-1.3-4.4-4.1
			C448.8,345.2,450.3,343.7,453,343.3z"/>
		<path class="st3" d="M401.4,306.3c-0.2,2.6-1.4,4.2-4.1,4.3c-2.7,0-4.3-1.5-4.3-4.1c-0.1-2.6,1.5-4.2,4.2-4.3
			C399.8,302,401.1,303.7,401.4,306.3z"/>
	</g>
</g>
</svg>
