<?xml version="1.0" encoding="utf-8"?>
<!-- Generator: Adobe Illustrator 26.5.0, SVG Export Plug-In . SVG Version: 6.00 Build 0)  -->
<svg version="1.1" id="Layer_1" xmlns="http://www.w3.org/2000/svg" xmlns:xlink="http://www.w3.org/1999/xlink" x="0px" y="0px"
	 viewBox="0 0 617 801" style="enable-background:new 0 0 617 801;" xml:space="preserve">
<style type="text/css">
	.st0{fill:#CBFF00;}
	.st1{fill:#1CD7D1;}
	.st2{fill-rule:evenodd;clip-rule:evenodd;fill:#E84142;}
</style>
<g>
	<g>
		<g>
			<g>
				<g>
					<path class="st0" d="M114.1,555.7c-14.7,0-27.2-10.5-29.7-25.1L0.4,37.2c-1.3-7.9,0.5-15.9,5.1-22.5S17.1,3.8,25.1,2.5
						c16.4-2.7,32,8.3,34.8,24.7l83.9,493.4c1.3,7.9-0.5,15.9-5.1,22.5c-4.7,6.6-11.6,10.9-19.5,12.3
						C117.5,555.6,115.8,555.7,114.1,555.7z"/>
				</g>
			</g>
		</g>
		<path class="st0" d="M254.7,328.2c-48,0-92.6,14.4-129.9,39l10.2,59.7c32.1-27.9,74-44.9,119.7-44.9
			c100.7,0,182.6,81.9,182.6,182.6s-81.9,182.6-182.6,182.6c-100.7,0-182.6-81.9-182.6-182.6c0-13.4,1.5-26.5,4.3-39.1l-16.2-95.1
			c-26.4,38.1-41.9,84.4-41.9,134.2C18.3,694.9,124.3,801,254.7,801c130.4,0,236.4-106.1,236.4-236.4S385.1,328.2,254.7,328.2z"/>
		<g>
			<g>
				<circle class="st1" cx="241.8" cy="670.3" r="32.2"/>
			</g>
			<g>
				<circle class="st1" cx="342.4" cy="632.8" r="32.2"/>
			</g>
			<g>
				<circle class="st1" cx="263.3" cy="563.8" r="32.2"/>
			</g>
			<g>
				<circle class="st1" cx="163.3" cy="596.7" r="32.2"/>
			</g>
			<g>
				<circle class="st1" cx="362.9" cy="530.8" r="32.2"/>
			</g>
			<g>
				<circle class="st1" cx="284.8" cy="457.3" r="32.2"/>
			</g>
			<g>
				<circle class="st1" cx="183.9" cy="494.7" r="32.2"/>
			</g>
		</g>
	</g>
	<g>
		<g>
			<path class="st2" d="M614,324.1L614,324.1c-1.9,1.3-5.1,1.3-11.5,1.3h-43.2c-6.4,0-9.6,0-11.5-1.2c-2.1-1.3-3.3-3.6-3.5-6
				c-0.1-2.2,1.5-5,4.6-10.4l0.1-0.1l21.6-37c3.2-5.5,4.8-8.2,6.8-9.2c2.2-1.1,4.7-1.1,6.9,0c2,1,3.5,3.6,6.6,8.8l0.3,0.4l21.6,37
				c0.1,0.2,0.2,0.4,0.3,0.5c3,5.2,4.5,7.8,4.4,10C617.3,320.5,616,322.8,614,324.1z"/>
			<path class="st2" d="M559,226.1c-0.8,3.2-2.5,6.3-6,12.3l-39.1,69.1h0l-0.1,0.2c-3.4,6-5.2,9.1-7.6,11.4
				c-2.6,2.5-5.8,4.3-9.3,5.4c-3.2,0.9-6.7,0.9-13.8,0.9H453c-6.3,0-9.5,0-11.4-1.2c-2.1-1.3-3.3-3.5-3.5-6c-0.1-2.3,1.4-5,4.6-10.5
				l74.5-131.2c3.2-5.6,4.8-8.4,6.8-9.4c2.2-1.1,4.8-1.1,6.9,0c2,1,3.6,3.8,6.8,9.4l15.3,26.7l0.1,0.1c3.4,6,5.2,9,5.9,12.2
				C559.8,219,559.8,222.6,559,226.1z"/>
		</g>
	</g>
</g>
</svg>
