<?xml version="1.0" encoding="utf-8"?>
<!-- Generator: Adobe Illustrator 26.5.0, SVG Export Plug-In . SVG Version: 6.00 Build 0)  -->
<svg version="1.1" id="Layer_1" xmlns="http://www.w3.org/2000/svg" xmlns:xlink="http://www.w3.org/1999/xlink" x="0px" y="0px"
	 viewBox="0 0 591 801" style="enable-background:new 0 0 591 801;" xml:space="preserve">
<style type="text/css">
	.st0{fill:#CBFF00;}
	.st1{fill:#1CD7D1;}
	.st2{fill:#343434;}
	.st3{fill:#8C8C8C;}
	.st4{fill:#3C3C3B;}
	.st5{fill:#141414;}
	.st6{fill:#393939;}
</style>
<g>
	<g>
		<g>
			<g>
				<g>
					<path class="st0" d="M114.1,555.7c-14.7,0-27.2-10.5-29.7-25.1L0.4,37.2c-1.3-7.9,0.5-15.9,5.1-22.5S17.1,3.8,25.1,2.5
						c16.4-2.7,32,8.3,34.8,24.7l83.9,493.4c1.3,7.9-0.5,15.9-5.1,22.5c-4.7,6.6-11.6,10.9-19.5,12.3
						C117.5,555.6,115.8,555.7,114.1,555.7z"/>
				</g>
			</g>
		</g>
		<path class="st0" d="M254.7,328.2c-48,0-92.6,14.4-129.9,39l10.2,59.7c32.1-27.9,74-44.9,119.7-44.9
			c100.7,0,182.6,81.9,182.6,182.6s-81.9,182.6-182.6,182.6c-100.7,0-182.6-81.9-182.6-182.6c0-13.4,1.5-26.5,4.3-39.1l-16.2-95.1
			c-26.4,38.1-41.9,84.4-41.9,134.2C18.3,694.9,124.3,801,254.7,801c130.4,0,236.4-106.1,236.4-236.4S385.1,328.2,254.7,328.2z"/>
		<g>
			<g>
				<circle class="st1" cx="241.8" cy="670.3" r="32.2"/>
			</g>
			<g>
				<circle class="st1" cx="342.4" cy="632.8" r="32.2"/>
			</g>
			<g>
				<circle class="st1" cx="263.3" cy="563.8" r="32.2"/>
			</g>
			<g>
				<circle class="st1" cx="163.3" cy="596.7" r="32.2"/>
			</g>
			<g>
				<circle class="st1" cx="362.9" cy="530.8" r="32.2"/>
			</g>
			<g>
				<circle class="st1" cx="284.8" cy="457.3" r="32.2"/>
			</g>
			<g>
				<circle class="st1" cx="183.9" cy="494.7" r="32.2"/>
			</g>
		</g>
	</g>
	<g>
		<polygon class="st2" points="508.5,115.4 506.7,121.5 506.7,299.7 508.5,301.6 591.2,252.7 		"/>
		<polygon class="st3" points="508.5,115.4 425.7,252.7 508.5,301.6 508.5,215 		"/>
		<polygon class="st4" points="508.5,317.2 507.5,318.5 507.5,381.9 508.5,384.9 591.2,268.3 		"/>
		<polygon class="st3" points="508.5,384.9 508.5,317.2 425.7,268.3 		"/>
		<polygon class="st5" points="508.5,301.6 591.2,252.7 508.5,215 		"/>
		<polygon class="st6" points="425.7,252.7 508.5,301.6 508.5,215 		"/>
	</g>
</g>
</svg>
