<?xml version="1.0" encoding="utf-8"?>
<!-- Generator: Adobe Illustrator 26.5.0, SVG Export Plug-In . SVG Version: 6.00 Build 0)  -->
<svg version="1.1" id="Layer_1" xmlns="http://www.w3.org/2000/svg" xmlns:xlink="http://www.w3.org/1999/xlink" x="0px" y="0px"
	 viewBox="0 0 612.1 799" style="enable-background:new 0 0 612.1 799;" xml:space="preserve">
<style type="text/css">
	.st0{fill:#CBFF00;}
	.st1{fill:#1CD7D1;}
	.st2{fill:#1969FF;}
</style>
<g>
	<g>
		<g>
			<g>
				<g>
					<path class="st0" d="M114.1,553.7c-14.7,0-27.2-10.5-29.7-25.1L0.4,35.2c-1.3-7.9,0.5-15.9,5.1-22.5S17.1,1.8,25.1,0.4
						c16.4-2.7,32,8.3,34.8,24.7l83.9,493.4c1.3,7.9-0.5,15.9-5.1,22.5c-4.7,6.6-11.6,10.9-19.5,12.3
						C117.5,553.5,115.8,553.7,114.1,553.7z"/>
				</g>
			</g>
		</g>
		<path class="st0" d="M254.7,326.1c-48,0-92.6,14.4-129.9,39l10.2,59.7c32.1-27.9,74-44.9,119.7-44.9
			c100.7,0,182.6,81.9,182.6,182.6s-81.9,182.6-182.6,182.6c-100.7,0-182.6-81.9-182.6-182.6c0-13.4,1.5-26.5,4.3-39.1l-16.2-95.1
			c-26.4,38.1-41.9,84.4-41.9,134.2C18.3,692.9,124.3,799,254.7,799c130.4,0,236.4-106.1,236.4-236.4S385.1,326.1,254.7,326.1z"/>
		<g>
			<g>
				<circle class="st1" cx="241.8" cy="668.3" r="32.2"/>
			</g>
			<g>
				<circle class="st1" cx="342.4" cy="630.8" r="32.2"/>
			</g>
			<g>
				<circle class="st1" cx="263.3" cy="561.8" r="32.2"/>
			</g>
			<g>
				<circle class="st1" cx="163.3" cy="594.7" r="32.2"/>
			</g>
			<g>
				<circle class="st1" cx="362.9" cy="528.8" r="32.2"/>
			</g>
			<g>
				<circle class="st1" cx="284.8" cy="455.3" r="32.2"/>
			</g>
			<g>
				<circle class="st1" cx="183.9" cy="492.7" r="32.2"/>
			</g>
		</g>
	</g>
	<g>
		<path class="st2" d="M437.2,234.2c0-26.6,0-53.2,0-79.9c0-4.4,1.8-7.4,5.6-9.4c5.6-3,11.2-5.9,16.8-8.9c10.5-5.5,21-11,31.5-16.6
			c4.4-2.3,8.7-4.7,13.1-6.9c8-4,16-3.8,23.9,0.4c5.3,2.9,10.7,5.6,16.1,8.5c11.6,6.1,23.2,12.2,34.8,18.3c3,1.6,6,3.2,9,4.7
			c1.7,0.8,3.1,2,4.3,3.4c1.3,1.5,2,3.3,2,5.3c0,0.3,0,0.5,0,0.8c0,53.6,0,107.1,0,160.7c0,2.5-0.8,4.6-2.4,6.5
			c-0.9,1.1-2,1.9-3.3,2.6c-5.6,3-11.3,6-16.9,8.9c-12.2,6.4-24.3,12.8-36.5,19.2c-3.1,1.6-6.1,3.4-9.3,4.8
			c-7.2,3.2-14.5,3-21.6-0.5c-2.6-1.3-5.2-2.8-7.8-4.1c-9.9-5.2-19.9-10.4-29.8-15.6c-7.7-4-15.3-8-22.9-12.1
			c-2.2-1.1-4.1-2.5-5.3-4.7c-0.7-1.3-1.2-2.7-1.2-4.1c0-0.7,0-1.4,0-2.1C437.2,287,437.2,260.6,437.2,234.2z M447.2,279.6
			c0,11.2,0,22.4,0,33.7c0,1.2,0.2,2,1.4,2.6c12.3,6.3,24.5,12.7,36.7,19.1c6.4,3.3,12.7,6.7,19.1,10c2.2,1.1,4.4,2.3,6.7,3.1
			c3.2,1.1,6.4,1.1,9.6-0.2c2.4-1,4.7-2.1,7-3.3c7.3-3.8,14.5-7.6,21.8-11.5c10.8-5.7,21.6-11.5,32.5-17.1c1.6-0.8,2.2-1.7,2.2-3.6
			c-0.1-22,0-44,0-66c0-0.4,0-0.9,0-1.3c-0.1-1-0.3-1.2-1.2-0.8c-0.5,0.2-1,0.5-1.4,0.7c-7.6,4-15.1,8-22.7,11.9
			c-10.7,5.6-21.4,11.3-32.1,16.8c-6.1,3.2-12.4,3.3-18.9,1.5c-1.9-0.6-3.6-1.6-5.4-2.5c-5.7-3-11.4-6-17.1-9
			c-12-6.3-24-12.6-36.1-19c-2-1.1-2-1-2,1.2C447.2,257.2,447.2,268.4,447.2,279.6z M448.3,153.3c0.2,0.5,0.4,0.6,0.7,0.7
			c12.1,6.4,24.2,12.7,36.3,19.1c7.8,4.1,15.7,8.3,23.5,12.4c4.3,2.2,8.8,2.2,13.2,0.2c1.7-0.8,3.3-1.7,5-2.6
			c8.4-4.4,16.7-8.8,25.1-13.2c9.8-5.2,19.7-10.3,29.5-15.5c0.5-0.2,1-0.3,1.3-0.9c-0.2-0.5-0.7-0.6-1.1-0.9
			c-12.1-6.4-24.1-12.7-36.2-19c-7.7-4-15.4-8-23.1-12.1c-3.1-1.6-6.2-1.8-9.5-1.5c-2.2,0.3-4,1.4-5.9,2.4
			c-11.4,6-22.9,12.1-34.3,18.1c-7.5,3.9-15,7.9-22.5,11.8C449.5,152.6,448.9,152.9,448.3,153.3z M510.6,232.8c0-10.1,0-20.3,0-30.4
			c0-0.5,0-1,0-1.4c0-0.7-0.4-0.8-1-0.6c-0.3,0.1-0.6,0.3-0.9,0.4c-3.1,1.6-6.3,3.3-9.4,4.9c-11.6,6.1-23.2,12.2-34.8,18.3
			c-5,2.6-10.1,5.3-15.1,7.9c-0.4,0.2-1,0.3-1,0.9c0,0.5,0.6,0.5,1,0.8c0,0,0.1,0.1,0.1,0.1c8.9,4.7,17.8,9.3,26.7,14
			c10.8,5.7,21.7,11.4,32.5,17.1c1.8,1,1.9,0.9,1.9-1.2C510.6,253.3,510.6,243.1,510.6,232.8z M583,232.9c-0.5-0.7-1-0.8-1.5-1.1
			c-2.4-1.3-4.8-2.5-7.3-3.8c-11.5-6.1-23.1-12.1-34.6-18.2c-5.6-2.9-11.2-5.9-16.8-8.9c-2-1.1-2.1-1-2.1,1.3c0,20.4,0,40.8,0,61.2
			c0,0.4,0,0.9,0,1.3c0,0.6,0.4,0.7,0.9,0.5c0.7-0.3,1.4-0.7,2.2-1.1c11.1-5.9,22.2-11.7,33.3-17.6c7.6-4,15.2-8,22.8-11.9
			C580.9,234.1,581.8,233.6,583,232.9z M529.8,193.1c0.2,0.5,0.6,0.6,0.9,0.8c5.1,2.7,10.3,5.4,15.4,8.1c12.1,6.3,24.1,12.7,36.2,19
			c1.9,1,1.9,1,1.9-1.2c0-17.8,0-35.5,0-53.3c0-0.4,0-0.9,0-1.3c0-0.5-0.3-0.6-0.8-0.5c-0.2,0.1-0.5,0.2-0.7,0.4
			c-9,4.7-18,9.5-26.9,14.2c-7.8,4.1-15.6,8.2-23.4,12.3C531.4,192,530.5,192.4,529.8,193.1z M501.6,193.2c-0.4-0.6-0.9-0.7-1.4-1
			c-5.3-2.8-10.6-5.5-15.8-8.3c-11.6-6.1-23.3-12.3-34.9-18.4c-2.2-1.2-2.2-1.1-2.2,1.3c0,17.6,0,35.2,0,52.8c0,0.4,0,0.8,0,1.1
			c0,0.7,0.4,0.8,1,0.5c0.1-0.1,0.3-0.1,0.4-0.2c6.8-3.6,13.6-7.2,20.4-10.7c9.7-5.1,19.4-10.2,29.1-15.2
			C499.3,194.5,500.4,193.9,501.6,193.2z"/>
		<path class="st2" d="M609.1,157.2c-1.2,0-2.4,0-3.5,0c-1.3,0-1.4-0.2-1.5-1.5c-0.2-2.8-0.3-5.7-1-8.5c-0.8-3.5-2.7-6.3-5.5-8.4
			c-2.3-1.8-4.8-3.2-7.3-4.7c-0.1-0.1-0.2-0.1-0.3-0.2c-1.8-1.1-1.8-1.1-0.8-2.8c0.9-1.5,1.8-3,2.7-4.5c0.2-0.4,0.5-0.8,0.8-1.2
			c0.6-0.9,0.8-1,1.7-0.4c3.7,2.2,7.4,4.3,10.7,7.1c3.8,3.3,6.3,7.4,7.6,12.2c1,3.6,1.3,7.3,1.4,11c0,1.7-0.2,1.9-1.9,2
			C611.2,157.2,610.1,157.2,609.1,157.2C609.1,157.2,609.1,157.2,609.1,157.2z"/>
		<path class="st2" d="M422.4,311.8c1.1,0,2.3,0,3.4,0c1.4,0,1.7,0.2,1.7,1.7c0,2.5,0.2,4.9,0.7,7.4c0.7,3.9,2.8,7,6,9.4
			c2.3,1.7,4.8,3.2,7.3,4.7c0.3,0.2,0.6,0.4,1,0.6c0.5,0.4,0.7,0.8,0.3,1.4c-1.4,2.3-2.8,4.7-4.2,7c-0.4,0.6-0.9,0.4-1.4,0.1
			c-2.8-1.7-5.6-3.3-8.3-5.3c-2.1-1.6-4.1-3.3-5.7-5.4c-3.1-3.8-4.5-8.2-5.2-13c-0.4-2.3-0.3-4.7-0.5-7.1c-0.1-1.3,0.2-1.6,1.6-1.6
			C420.1,311.7,421.3,311.8,422.4,311.8z"/>
	</g>
</g>
</svg>
