<?xml version="1.0" encoding="utf-8"?>
<!-- Generator: Adobe Illustrator 26.5.0, SVG Export Plug-In . SVG Version: 6.00 Build 0)  -->
<svg version="1.1" id="Layer_1" xmlns="http://www.w3.org/2000/svg" xmlns:xlink="http://www.w3.org/1999/xlink" x="0px" y="0px"
	 viewBox="0 0 610 801" style="enable-background:new 0 0 610 801;" xml:space="preserve">
<style type="text/css">
	.st0{fill:#F3BA2F;}
	.st1{fill:#CBFF00;}
	.st2{fill:#1CD7D1;}
</style>
<g>
	<g>
		<g>
			<path class="st0" d="M507.8,148.4c0.1,0.2,0.3,0.4,0.5,0.5c20.5,20.5,41.1,41.1,61.6,61.6c0.5,0.5,0.5,0.5,0,1
				c-7.4,7.4-14.7,14.7-22.1,22.1c-0.5,0.5-0.5,0.5-1,0c-12.9-12.9-25.7-25.7-38.6-38.6c-0.6-0.6-0.5-0.6-1,0
				c-12.8,12.8-25.7,25.7-38.5,38.5c-0.6,0.6-0.5,0.6-1.1,0c-7.3-7.3-14.7-14.7-22-22c-0.6-0.6-0.6-0.5,0-1.1
				c20.5-20.5,41-41,61.5-61.5c0.2-0.2,0.4-0.3,0.5-0.5C507.6,148.4,507.7,148.4,507.8,148.4z"/>
			<path class="st0" d="M609.6,250.4c-0.2,0.1-0.3,0.3-0.5,0.4c-7.4,7.3-14.7,14.7-22.1,22.1c-0.5,0.5-0.4,0.5-1,0
				c-7.4-7.4-14.8-14.8-22.2-22.2c-0.5-0.5-0.5-0.4,0-0.9c7.4-7.4,14.8-14.8,22.2-22.2c0.5-0.5,0.4-0.5,0.9,0
				c7.4,7.4,14.7,14.7,22.1,22.1c0.2,0.2,0.3,0.3,0.5,0.4C609.6,250.3,609.6,250.3,609.6,250.4z"/>
			<path class="st0" d="M570.3,289.6c0,0.1,0,0.1-0.1,0.2c-0.1,0.1-0.2,0.2-0.3,0.3c-20.6,20.6-41.2,41.2-61.8,61.8
				c-0.5,0.5-0.4,0.5-1,0c-20.6-20.6-41.2-41.2-61.8-61.8c-0.5-0.5-0.5-0.4,0-0.9c7.4-7.4,14.8-14.8,22.2-22.2c0.5-0.5,0.5-0.5,1,0
				c12.9,12.9,25.7,25.7,38.6,38.6c0.6,0.6,0.4,0.6,1,0c12.9-12.9,25.8-25.7,38.6-38.6c0.5-0.5,0.5-0.5,1,0
				c7.4,7.4,14.8,14.8,22.2,22.2C570.1,289.3,570.2,289.4,570.3,289.6z"/>
			<path class="st0" d="M531,250.3c0,0.1,0,0.1-0.1,0.2c-0.1,0.1-0.2,0.2-0.3,0.3c-7.5,7.5-15,15-22.5,22.5c-0.5,0.5-0.4,0.5-0.9,0
				c-7.5-7.5-15-15-22.5-22.5c-0.5-0.5-0.5-0.4,0-0.9c7.5-7.5,15-15,22.5-22.5c0.5-0.5,0.4-0.5,0.9,0c7.5,7.5,15,15,22.5,22.5
				C530.8,250,530.9,250.1,531,250.3z"/>
			<path class="st0" d="M451.8,250.3c0,0,0,0.1-0.1,0.1c-0.1,0.1-0.2,0.2-0.3,0.3c-7.4,7.4-14.8,14.8-22.2,22.2
				c-0.5,0.5-0.4,0.5-0.9,0c-7.4-7.4-14.8-14.8-22.2-22.2c-0.5-0.5-0.5-0.4,0-0.9c7.4-7.4,14.8-14.8,22.2-22.2
				c0.5-0.5,0.4-0.5,0.9,0c7.4,7.4,14.8,14.8,22.2,22.2c0.1,0.1,0.2,0.2,0.3,0.3C451.7,250.2,451.8,250.2,451.8,250.3z"/>
		</g>
	</g>
	<g>
		<g>
			<g>
				<g>
					<path class="st1" d="M114.1,555.7c-14.7,0-27.2-10.5-29.7-25.1L0.4,37.2c-1.3-7.9,0.5-15.9,5.1-22.5S17.1,3.8,25.1,2.5
						c16.4-2.7,32,8.3,34.8,24.7l83.9,493.4c1.3,7.9-0.5,15.9-5.1,22.5c-4.7,6.6-11.6,10.9-19.5,12.3
						C117.5,555.6,115.8,555.7,114.1,555.7z"/>
				</g>
			</g>
		</g>
		<path class="st1" d="M254.7,328.2c-48,0-92.6,14.4-129.9,39l10.2,59.7c32.1-27.9,74-44.9,119.7-44.9
			c100.7,0,182.6,81.9,182.6,182.6s-81.9,182.6-182.6,182.6c-100.7,0-182.6-81.9-182.6-182.6c0-13.4,1.5-26.5,4.3-39.1l-16.2-95.1
			c-26.4,38.1-41.9,84.4-41.9,134.2C18.3,694.9,124.3,801,254.7,801c130.4,0,236.4-106.1,236.4-236.4S385.1,328.2,254.7,328.2z"/>
		<g>
			<g>
				<circle class="st2" cx="241.8" cy="670.3" r="32.2"/>
			</g>
			<g>
				<circle class="st2" cx="342.4" cy="632.8" r="32.2"/>
			</g>
			<g>
				<circle class="st2" cx="263.3" cy="563.8" r="32.2"/>
			</g>
			<g>
				<circle class="st2" cx="163.3" cy="596.7" r="32.2"/>
			</g>
			<g>
				<circle class="st2" cx="362.9" cy="530.8" r="32.2"/>
			</g>
			<g>
				<circle class="st2" cx="284.8" cy="457.3" r="32.2"/>
			</g>
			<g>
				<circle class="st2" cx="183.9" cy="494.7" r="32.2"/>
			</g>
		</g>
	</g>
</g>
</svg>
